Fira Mono-Bold Italic.ufo
<glyph name="exclam" format="1">
  <advance width="600"/>
  <unicode hex="0021"/>
  <outline>
	<contour>
	  <point x="275" y="693" type="line"/>
	  <point x="235" y="256" type="line"/>
	  <point x="364" y="256" type="line"/>
	  <point x="445" y="693" type="line"/>
	</contour>
	<contour>
	  <point x="233" y="165"/>
	  <point x="190" y="128"/>
	  <point x="183" y="83" type="curve" smooth="yes"/>
	  <point x="176" y="28"/>
	  <point x="213" y="-17"/>
	  <point x="267" y="-17" type="curve" smooth="yes"/>
	  <point x="314" y="-17"/>
	  <point x="356" y="20"/>
	  <point x="363" y="65" type="curve" smooth="yes"/>
	  <point x="371" y="120"/>
	  <point x="334" y="165"/>
	  <point x="279" y="165" type="curve" smooth="yes"/>
	</contour>
  </outline>
</glyph>
<glyph name="quotedbl" format="1">
  <advance width="600"/>
  <unicode hex="0022"/>
  <outline>
	<contour>
	  <point x="288" y="462" type="line"/>
	  <point x="346" y="742" type="line"/>
	  <point x="195" y="742" type="line"/>
	  <point x="175" y="462" type="line"/>
	</contour>
	<contour>
	  <point x="481" y="462" type="line"/>
	  <point x="539" y="742" type="line"/>
	  <point x="387" y="742" type="line"/>
	  <point x="367" y="462" type="line"/>
	</contour>
  </outline>
</glyph>
<glyph name="numbersign" format="1">
  <advance width="600"/>
  <unicode hex="0023"/>
  <outline>
	<contour>
	  <point x="591" y="446" type="line"/>
	  <point x="606" y="552" type="line"/>
	  <point x="546" y="552" type="line"/>
	  <point x="585" y="693" type="line"/>
	  <point x="453" y="693" type="line"/>
	  <point x="414" y="552" type="line"/>
	  <point x="320" y="552" type="line"/>
	  <point x="359" y="693" type="line"/>
	  <point x="226" y="693" type="line"/>
	  <point x="188" y="552" type="line"/>
	  <point x="112" y="552" type="line"/>
	  <point x="97" y="446" type="line"/>
	  <point x="159" y="446" type="line"/>
	  <point x="106" y="249" type="line"/>
	  <point x="33" y="249" type="line"/>
	  <point x="18" y="144" type="line"/>
	  <point x="77" y="144" type="line"/>
	  <point x="39" y="0" type="line"/>
	  <point x="171" y="0" type="line"/>
	  <point x="210" y="144" type="line"/>
	  <point x="304" y="144" type="line"/>
	  <point x="265" y="0" type="line"/>
	  <point x="397" y="0" type="line"/>
	  <point x="436" y="144" type="line"/>
	  <point x="512" y="144" type="line"/>
	  <point x="527" y="249" type="line"/>
	  <point x="465" y="249" type="line"/>
	  <point x="517" y="446" type="line"/>
	</contour>
	<contour>
	  <point x="291" y="446" type="line"/>
	  <point x="385" y="446" type="line"/>
	  <point x="332" y="249" type="line"/>
	  <point x="238" y="249" type="line"/>
	</contour>
  </outline>
</glyph>
<glyph name="dollar" format="1">
  <advance width="600"/>
  <unicode hex="0024"/>
  <outline>
	<contour>
	  <point x="351" y="856" type="line"/>
	  <point x="327" y="707" type="line"/>
	  <point x="201" y="694"/>
	  <point x="116" y="624"/>
	  <point x="102" y="520" type="curve" smooth="yes"/>
	  <point x="88" y="420"/>
	  <point x="139" y="356"/>
	  <point x="277" y="308" type="curve"/>
	  <point x="242" y="101" type="line"/>
	  <point x="183" y="105"/>
	  <point x="141" y="126"/>
	  <point x="102" y="165" type="curve"/>
	  <point x="16" y="82" type="line"/>
	  <point x="60" y="35"/>
	  <point x="133" y="-9"/>
	  <point x="231" y="-16" type="curve"/>
	  <point x="208" y="-162" type="line"/>
	  <point x="289" y="-162" type="line"/>
	  <point x="313" y="-14" type="line"/>
	  <point x="450" y="3"/>
	  <point x="534" y="88"/>
	  <point x="549" y="195" type="curve" smooth="yes"/>
	  <point x="567" y="320"/>
	  <point x="497" y="377"/>
	  <point x="368" y="422" type="curve"/>
	  <point x="398" y="596" type="line"/>
	  <point x="439" y="593"/>
	  <point x="479" y="581"/>
	  <point x="512" y="551" type="curve"/>
	  <point x="596" y="626" type="line"/>
	  <point x="550" y="667"/>
	  <point x="489" y="701"/>
	  <point x="408" y="708" type="curve"/>
	  <point x="432" y="856" type="line"/>
	</contour>
	<contour>
	  <point x="399" y="252"/>
	  <point x="405" y="227"/>
	  <point x="400" y="194" type="curve" smooth="yes"/>
	  <point x="393" y="145"/>
	  <point x="365" y="114"/>
	  <point x="323" y="105" type="curve"/>
	  <point x="354" y="277" type="line"/>
	</contour>
	<contour>
	  <point x="291" y="452" type="line"/>
	  <point x="243" y="476"/>
	  <point x="241" y="493"/>
	  <point x="245" y="521" type="curve" smooth="yes"/>
	  <point x="250" y="557"/>
	  <point x="276" y="587"/>
	  <point x="317" y="594" type="curve"/>
	</contour>
  </outline>
</glyph>
<glyph name="percent" format="1">
  <advance width="600"/>
  <unicode hex="0025"/>
  <outline>
	<contour>
	  <point x="49" y="6" type="line"/>
	  <point x="131" y="-29" type="line"/>
	  <point x="567" y="681" type="line"/>
	  <point x="484" y="716" type="line"/>
	</contour>
	<contour>
	  <point x="485" y="229"/>
	  <point x="485" y="207"/>
	  <point x="478" y="159" type="curve" smooth="yes"/>
	  <point x="470" y="105"/>
	  <point x="457" y="72"/>
	  <point x="420" y="72" type="curve" smooth="yes"/>
	  <point x="393" y="72"/>
	  <point x="392" y="99"/>
	  <point x="398" y="141" type="curve" smooth="yes"/>
	  <point x="405" y="195"/>
	  <point x="419" y="229"/>
	  <point x="456" y="229" type="curve" smooth="yes"/>
	</contour>
	<contour>
	  <point x="234" y="633"/>
	  <point x="234" y="611"/>
	  <point x="227" y="563" type="curve" smooth="yes"/>
	  <point x="219" y="509"/>
	  <point x="206" y="476"/>
	  <point x="169" y="476" type="curve" smooth="yes"/>
	  <point x="142" y="476"/>
	  <point x="140" y="503"/>
	  <point x="146" y="545" type="curve" smooth="yes"/>
	  <point x="154" y="599"/>
	  <point x="168" y="633"/>
	  <point x="205" y="633" type="curve" smooth="yes"/>
	</contour>
	<contour>
	  <point x="116" y="711"/>
	  <point x="57" y="649"/>
	  <point x="45" y="563" type="curve" smooth="yes"/>
	  <point x="31" y="463"/>
	  <point x="78" y="398"/>
	  <point x="172" y="398" type="curve" smooth="yes"/>
	  <point x="257" y="398"/>
	  <point x="315" y="455"/>
	  <point x="327" y="545" type="curve" smooth="yes"/>
	  <point x="341" y="645"/>
	  <point x="295" y="711"/>
	  <point x="202" y="711" type="curve" smooth="yes"/>
	</contour>
	<contour>
	  <point x="367" y="307"/>
	  <point x="308" y="245"/>
	  <point x="296" y="159" type="curve" smooth="yes"/>
	  <point x="282" y="59"/>
	  <point x="329" y="-6"/>
	  <point x="423" y="-6" type="curve" smooth="yes"/>
	  <point x="508" y="-6"/>
	  <point x="566" y="51"/>
	  <point x="579" y="141" type="curve" smooth="yes"/>
	  <point x="593" y="241"/>
	  <point x="546" y="307"/>
	  <point x="453" y="307" type="curve" smooth="yes"/>
	</contour>
  </outline>
</glyph>
<glyph name="ampersand" format="2">
  <advance width="600"/>
  <unicode hex="0026"/>
  <outline>
    <contour>
      <point x="107" y="552" type="curve" smooth="yes"/>
      <point x="120" y="642"/>
      <point x="214" y="710"/>
      <point x="330" y="710" type="curve" smooth="yes"/>
      <point x="416" y="710"/>
      <point x="473" y="686"/>
      <point x="520" y="628" type="curve"/>
      <point x="427" y="560" type="line"/>
      <point x="402" y="591"/>
      <point x="382" y="601"/>
      <point x="348" y="601" type="curve" smooth="yes"/>
      <point x="297" y="601"/>
      <point x="263" y="567"/>
      <point x="256" y="514" type="curve" smooth="yes"/>
      <point x="249" y="467"/>
      <point x="279" y="433"/>
      <point x="334" y="433" type="curve" smooth="yes"/>
      <point x="598" y="433" type="line"/>
      <point x="583" y="331" type="line"/>
      <point x="518" y="331" type="line"/>
      <point x="483" y="67" type="line"/>
      <point x="435" y="23"/>
      <point x="359" y="-17"/>
      <point x="244" y="-17" type="curve" smooth="yes"/>
      <point x="82" y="-17"/>
      <point x="7" y="79"/>
      <point x="25" y="207" type="curve" smooth="yes"/>
      <point x="40" y="313"/>
      <point x="102" y="367"/>
      <point x="198" y="390" type="curve"/>
      <point x="206" y="394" type="line"/>
      <point x="131" y="415"/>
      <point x="95" y="467"/>
    </contour>
    <contour>
      <point x="340" y="129" type="curve"/>
      <point x="370" y="331" type="line"/>
      <point x="316" y="331" type="line" smooth="yes"/>
      <point x="237" y="331"/>
      <point x="189" y="268"/>
      <point x="180" y="201" type="curve" smooth="yes"/>
      <point x="171" y="140"/>
      <point x="197" y="99"/>
      <point x="256" y="99" type="curve" smooth="yes"/>
      <point x="293" y="99"/>
      <point x="322" y="113"/>
    </contour>
  </outline>
</glyph>
<glyph name="parenleft" format="1">
  <advance width="600"/>
  <unicode hex="0028"/>
  <outline>
	<contour>
	  <point x="296" y="510"/>
	  <point x="369" y="624"/>
	  <point x="524" y="771" type="curve"/>
	  <point x="438" y="861" type="line"/>
	  <point x="263" y="725"/>
	  <point x="143" y="573"/>
	  <point x="113" y="359" type="curve" smooth="yes"/>
	  <point x="82" y="135"/>
	  <point x="162" y="-19"/>
	  <point x="301" y="-155" type="curve"/>
	  <point x="402" y="-77" type="line"/>
	  <point x="279" y="80"/>
	  <point x="250" y="182"/>
	  <point x="273" y="341" type="curve" smooth="yes"/>
	</contour>
  </outline>
</glyph>
<glyph name="parenright" format="1">
  <advance width="600"/>
  <unicode hex="0029"/>
  <outline>
	<contour>
	  <point x="327" y="190"/>
	  <point x="266" y="86"/>
	  <point x="100" y="-71" type="curve"/>
	  <point x="186" y="-161" type="line"/>
	  <point x="361" y="-25"/>
	  <point x="481" y="127"/>
	  <point x="511" y="341" type="curve" smooth="yes"/>
	  <point x="542" y="565"/>
	  <point x="462" y="719"/>
	  <point x="323" y="855" type="curve"/>
	  <point x="222" y="777" type="line"/>
	  <point x="336" y="630"/>
	  <point x="373" y="518"/>
	  <point x="351" y="359" type="curve" smooth="yes"/>
	</contour>
  </outline>
</glyph>
<glyph name="asterisk" format="1">
  <advance width="600"/>
  <unicode hex="002A"/>
  <outline>
	<contour>
	  <point x="268" y="531" type="line"/>
	  <point x="269" y="381" type="line"/>
	  <point x="141" y="445" type="line"/>
	  <point x="84" y="319" type="line"/>
	  <point x="227" y="293" type="line"/>
	  <point x="108" y="182" type="line"/>
	  <point x="209" y="102" type="line"/>
	  <point x="297" y="237" type="line"/>
	  <point x="350" y="103" type="line"/>
	  <point x="469" y="183" type="line"/>
	  <point x="378" y="292" type="line"/>
	  <point x="530" y="319" type="line"/>
	  <point x="506" y="445" type="line"/>
	  <point x="362" y="380" type="line"/>
	  <point x="405" y="531" type="line"/>
	</contour>
  </outline>
</glyph>
<glyph name="plus" format="1">
  <advance width="600"/>
  <unicode hex="002B"/>
  <outline>
	<contour>
	  <point x="270" y="530" type="line"/>
	  <point x="248" y="374" type="line"/>
	  <point x="97" y="374" type="line"/>
	  <point x="80" y="251" type="line"/>
	  <point x="231" y="251" type="line"/>
	  <point x="209" y="95" type="line"/>
	  <point x="342" y="95" type="line"/>
	  <point x="364" y="251" type="line"/>
	  <point x="516" y="251" type="line"/>
	  <point x="533" y="374" type="line"/>
	  <point x="381" y="374" type="line"/>
	  <point x="403" y="530" type="line"/>
	</contour>
  </outline>
</glyph>
<glyph name="comma" format="1">
  <advance width="600"/>
  <unicode hex="002C"/>
  <outline>
	<contour>
	  <point x="227" y="207"/>
	  <point x="177" y="164"/>
	  <point x="169" y="108" type="curve" smooth="yes"/>
	  <point x="163" y="65"/>
	  <point x="178" y="30"/>
	  <point x="206" y="11" type="curve"/>
	  <point x="121" y="-204" type="line"/>
	  <point x="229" y="-204" type="line"/>
	  <point x="324" y="-45" type="line" smooth="yes"/>
	  <point x="362" y="21"/>
	  <point x="380" y="54"/>
	  <point x="385" y="89" type="curve" smooth="yes"/>
	  <point x="395" y="156"/>
	  <point x="352" y="207"/>
	  <point x="285" y="207" type="curve" smooth="yes"/>
	</contour>
  </outline>
</glyph>
<glyph name="period" format="1">
  <advance width="600"/>
  <unicode hex="002E"/>
  <outline>
	<contour>
	  <point x="156" y="38"/>
	  <point x="201" y="-17"/>
	  <point x="267" y="-17" type="curve" smooth="yes"/>
	  <point x="325" y="-17"/>
	  <point x="379" y="30"/>
	  <point x="387" y="86" type="curve" smooth="yes"/>
	  <point x="396" y="152"/>
	  <point x="351" y="207"/>
	  <point x="285" y="207" type="curve" smooth="yes"/>
	  <point x="227" y="207"/>
	  <point x="173" y="160"/>
	  <point x="165" y="104" type="curve" smooth="yes"/>
	</contour>
  </outline>
</glyph>
<glyph name="slash" format="2">
  <advance width="600"/>
  <unicode hex="002F"/>
  <outline>
    <contour>
      <point x="599" y="760" type="line"/>
      <point x="118" y="-112" type="line"/>
      <point x="-2" y="-55" type="line"/>
      <point x="481" y="817" type="line"/>
    </contour>
  </outline>
</glyph>
<glyph name="zero" format="1">
  <advance width="600"/>
  <unicode hex="0030"/>
  <outline>
	<contour>
	  <point x="193" y="711"/>
	  <point x="93" y="580"/>
	  <point x="62" y="357" type="curve" smooth="yes"/>
	  <point x="29" y="123"/>
	  <point x="96" y="-17"/>
	  <point x="267" y="-17" type="curve" smooth="yes"/>
	  <point x="429" y="-17"/>
	  <point x="530" y="115"/>
	  <point x="561" y="339" type="curve" smooth="yes"/>
	  <point x="594" y="572"/>
	  <point x="526" y="711"/>
	  <point x="356" y="711" type="curve" smooth="yes"/>
	</contour>
	<contour>
	  <point x="412" y="595"/>
	  <point x="433" y="536"/>
	  <point x="408" y="357" type="curve" smooth="yes"/>
	  <point x="381" y="167"/>
	  <point x="338" y="98"/>
	  <point x="269" y="98" type="curve" smooth="yes"/>
	  <point x="209" y="98"/>
	  <point x="189" y="156"/>
	  <point x="214" y="339" type="curve" smooth="yes"/>
	  <point x="240" y="523"/>
	  <point x="284" y="595"/>
	  <point x="353" y="595" type="curve" smooth="yes"/>
	</contour>
	<contour>
	  <point x="279" y="410"/>
	  <point x="251" y="385"/>
	  <point x="246" y="354" type="curve" smooth="yes"/>
	  <point x="241" y="312"/>
	  <point x="267" y="279"/>
	  <point x="308" y="279" type="curve" smooth="yes"/>
	  <point x="342" y="279"/>
	  <point x="370" y="304"/>
	  <point x="375" y="336" type="curve" smooth="yes"/>
	  <point x="381" y="377"/>
	  <point x="354" y="410"/>
	  <point x="312" y="410" type="curve" smooth="yes"/>
	</contour>
  </outline>
</glyph>
<glyph name="one" format="1">
  <advance width="600"/>
  <unicode hex="0031"/>
  <outline>
	<contour>
	  <point x="340" y="693" type="line"/>
	  <point x="98" y="557" type="line"/>
	  <point x="153" y="447" type="line"/>
	  <point x="306" y="536" type="line"/>
	  <point x="232" y="20" type="line"/>
	  <point x="388" y="20" type="line"/>
	  <point x="483" y="693" type="line"/>
	</contour>
	<contour>
	  <point x="80" y="121" type="line"/>
	  <point x="63" y="0" type="line"/>
	  <point x="515" y="0" type="line"/>
	  <point x="532" y="121" type="line"/>
	</contour>
  </outline>
</glyph>
<glyph name="two" format="1">
  <advance width="600"/>
  <unicode hex="0032"/>
  <outline>
	<contour>
	  <point x="224" y="711"/>
	  <point x="146" y="668"/>
	  <point x="83" y="596" type="curve"/>
	  <point x="175" y="514" type="line"/>
	  <point x="217" y="563"/>
	  <point x="257" y="588"/>
	  <point x="313" y="588" type="curve" smooth="yes"/>
	  <point x="368" y="588"/>
	  <point x="394" y="557"/>
	  <point x="387" y="507" type="curve" smooth="yes"/>
	  <point x="375" y="420"/>
	  <point x="288" y="336"/>
	  <point x="30" y="116" type="curve"/>
	  <point x="16" y="0" type="line"/>
	  <point x="478" y="0" type="line"/>
	  <point x="512" y="122" type="line"/>
	  <point x="218" y="119" type="line"/>
	  <point x="455" y="307"/>
	  <point x="534" y="396"/>
	  <point x="549" y="503" type="curve" smooth="yes"/>
	  <point x="565" y="614"/>
	  <point x="495" y="711"/>
	  <point x="332" y="711" type="curve" smooth="yes"/>
	</contour>
  </outline>
</glyph>
<glyph name="three" format="2">
  <advance width="600"/>
  <unicode hex="0033"/>
  <outline>
    <contour>
      <point x="88" y="620" type="line"/>
      <point x="159" y="681"/>
      <point x="242" y="711"/>
      <point x="334" y="711" type="curve" smooth="yes"/>
      <point x="488" y="711"/>
      <point x="566" y="626"/>
      <point x="551" y="524" type="curve" smooth="yes"/>
      <point x="540" y="441"/>
      <point x="480" y="391"/>
      <point x="387" y="365" type="curve"/>
      <point x="478" y="353"/>
      <point x="542" y="303"/>
      <point x="526" y="186" type="curve" smooth="yes"/>
      <point x="510" y="74"/>
      <point x="398" y="-17"/>
      <point x="235" y="-17" type="curve" smooth="yes"/>
      <point x="127" y="-17"/>
      <point x="49" y="24"/>
      <point x="-1" y="90" type="curve"/>
      <point x="97" y="168" type="line"/>
      <point x="131" y="122"/>
      <point x="177" y="105"/>
      <point x="227" y="105" type="curve" smooth="yes"/>
      <point x="299" y="105"/>
      <point x="356" y="145"/>
      <point x="366" y="215" type="curve" smooth="yes"/>
      <point x="375" y="283"/>
      <point x="339" y="309"/>
      <point x="265" y="309" type="curve" smooth="yes"/>
      <point x="199" y="309" type="line"/>
      <point x="232" y="419" type="line"/>
      <point x="275" y="419" type="line" smooth="yes"/>
      <point x="336" y="419"/>
      <point x="386" y="453"/>
      <point x="395" y="518" type="curve" smooth="yes"/>
      <point x="402" y="564"/>
      <point x="368" y="592"/>
      <point x="313" y="592" type="curve" smooth="yes"/>
      <point x="254" y="592"/>
      <point x="205" y="566"/>
      <point x="163" y="529" type="curve"/>
    </contour>
  </outline>
</glyph>
<glyph name="four" format="1">
  <advance width="600"/>
  <unicode hex="0034"/>
  <outline>
	<contour>
	  <point x="41" y="251" type="line"/>
	  <point x="27" y="145" type="line"/>
	  <point x="537" y="145" type="line"/>
	  <point x="554" y="265" type="line"/>
	  <point x="210" y="265" type="line"/>
	  <point x="429" y="661" type="line"/>
	  <point x="298" y="711" type="line"/>
	</contour>
	<contour>
	  <point x="373" y="431" type="line"/>
	  <point x="328" y="249" type="line"/>
	  <point x="295" y="0" type="line"/>
	  <point x="448" y="0" type="line"/>
	  <point x="508" y="431" type="line"/>
	</contour>
  </outline>
</glyph>
<glyph name="five" format="1">
  <advance width="600"/>
  <unicode hex="0035"/>
  <outline>
	<contour>
	  <point x="152" y="693" type="line"/>
	  <point x="100" y="320" type="line"/>
	  <point x="210" y="318" type="line"/>
	  <point x="243" y="335"/>
	  <point x="273" y="343"/>
	  <point x="302" y="343" type="curve" smooth="yes"/>
	  <point x="354" y="343"/>
	  <point x="384" y="314"/>
	  <point x="373" y="234" type="curve" smooth="yes"/>
	  <point x="362" y="158"/>
	  <point x="303" y="105"/>
	  <point x="226" y="105" type="curve" smooth="yes"/>
	  <point x="182" y="105"/>
	  <point x="141" y="124"/>
	  <point x="114" y="167" type="curve"/>
	  <point x="14" y="90" type="line"/>
	  <point x="57" y="27"/>
	  <point x="131" y="-17"/>
	  <point x="236" y="-17" type="curve" smooth="yes"/>
	  <point x="395" y="-17"/>
	  <point x="516" y="83"/>
	  <point x="535" y="219" type="curve" smooth="yes"/>
	  <point x="556" y="364"/>
	  <point x="477" y="453"/>
	  <point x="366" y="453" type="curve" smooth="yes"/>
	  <point x="340" y="453"/>
	  <point x="302" y="449"/>
	  <point x="266" y="433" type="curve"/>
	  <point x="289" y="579" type="line"/>
	  <point x="543" y="579" type="line"/>
	  <point x="576" y="693" type="line"/>
	</contour>
  </outline>
</glyph>
<glyph name="six" format="1">
  <advance width="600"/>
  <unicode hex="0036"/>
  <outline>
	<contour>
	  <point x="223" y="711"/>
	  <point x="89" y="551"/>
	  <point x="57" y="322" type="curve" smooth="yes"/>
	  <point x="31" y="139"/>
	  <point x="87" y="-17"/>
	  <point x="275" y="-17" type="curve" smooth="yes"/>
	  <point x="423" y="-17"/>
	  <point x="531" y="92"/>
	  <point x="549" y="226" type="curve" smooth="yes"/>
	  <point x="571" y="378"/>
	  <point x="494" y="465"/>
	  <point x="382" y="465" type="curve" smooth="yes"/>
	  <point x="332" y="465"/>
	  <point x="270" y="444"/>
	  <point x="220" y="393" type="curve"/>
	  <point x="210" y="285" type="line"/>
	  <point x="246" y="327"/>
	  <point x="294" y="355"/>
	  <point x="339" y="355" type="curve" smooth="yes"/>
	  <point x="383" y="355"/>
	  <point x="403" y="324"/>
	  <point x="391" y="235" type="curve" smooth="yes"/>
	  <point x="380" y="159"/>
	  <point x="342" y="97"/>
	  <point x="279" y="97" type="curve" smooth="yes"/>
	  <point x="209" y="97"/>
	  <point x="202" y="170"/>
	  <point x="225" y="326" type="curve"/>
	  <point x="230" y="375" type="line"/>
	  <point x="252" y="516"/>
	  <point x="325" y="597"/>
	  <point x="408" y="597" type="curve" smooth="yes"/>
	  <point x="433" y="597"/>
	  <point x="463" y="591"/>
	  <point x="487" y="572" type="curve"/>
	  <point x="557" y="664" type="line"/>
	  <point x="520" y="691"/>
	  <point x="472" y="711"/>
	  <point x="407" y="711" type="curve" smooth="yes"/>
	</contour>
  </outline>
</glyph>
<glyph name="seven" format="1">
  <advance width="600"/>
  <unicode hex="0037"/>
  <outline>
	<contour>
	  <point x="579" y="585" type="line"/>
	  <point x="593" y="693" type="line"/>
	  <point x="127" y="693" type="line"/>
	  <point x="110" y="573" type="line"/>
	  <point x="413" y="573" type="line"/>
	  <point x="79" y="31" type="line"/>
	  <point x="226" y="-16" type="line"/>
	</contour>
  </outline>
</glyph>
<glyph name="nine" format="1">
  <advance width="600"/>
  <unicode hex="0039"/>
  <outline>
	<contour>
	  <point x="212" y="711"/>
	  <point x="92" y="615"/>
	  <point x="72" y="470" type="curve" smooth="yes"/>
	  <point x="52" y="331"/>
	  <point x="129" y="239"/>
	  <point x="242" y="239" type="curve" smooth="yes"/>
	  <point x="307" y="239"/>
	  <point x="358" y="266"/>
	  <point x="414" y="316" type="curve"/>
	  <point x="425" y="411" type="line"/>
	  <point x="382" y="374"/>
	  <point x="343" y="351"/>
	  <point x="294" y="351" type="curve" smooth="yes"/>
	  <point x="251" y="351"/>
	  <point x="220" y="377"/>
	  <point x="231" y="457" type="curve" smooth="yes"/>
	  <point x="244" y="552"/>
	  <point x="289" y="597"/>
	  <point x="349" y="597" type="curve" smooth="yes"/>
	  <point x="426" y="597"/>
	  <point x="426" y="530"/>
	  <point x="404" y="384" type="curve"/>
	  <point x="395" y="330" type="line"/>
	  <point x="354" y="203"/>
	  <point x="251" y="128"/>
	  <point x="66" y="83" type="curve"/>
	  <point x="90" y="-31" type="line"/>
	  <point x="390" y="29"/>
	  <point x="538" y="165"/>
	  <point x="574" y="425" type="curve" smooth="yes"/>
	  <point x="598" y="594"/>
	  <point x="526" y="711"/>
	  <point x="352" y="711" type="curve" smooth="yes"/>
	</contour>
  </outline>
</glyph>
<glyph name="colon" format="1">
  <advance width="600"/>
  <unicode hex="003A"/>
  <outline>
	<contour>
	  <point x="162" y="35"/>
	  <point x="204" y="-17"/>
	  <point x="267" y="-17" type="curve" smooth="yes"/>
	  <point x="322" y="-17"/>
	  <point x="371" y="27"/>
	  <point x="379" y="80" type="curve" smooth="yes"/>
	  <point x="388" y="142"/>
	  <point x="346" y="193"/>
	  <point x="283" y="193" type="curve" smooth="yes"/>
	  <point x="228" y="193"/>
	  <point x="178" y="150"/>
	  <point x="170" y="98" type="curve" smooth="yes"/>
	</contour>
	<contour>
	  <point x="210" y="381"/>
	  <point x="253" y="329"/>
	  <point x="316" y="329" type="curve" smooth="yes"/>
	  <point x="371" y="329"/>
	  <point x="420" y="373"/>
	  <point x="427" y="425" type="curve" smooth="yes"/>
	  <point x="436" y="487"/>
	  <point x="395" y="540"/>
	  <point x="332" y="540" type="curve" smooth="yes"/>
	  <point x="277" y="540"/>
	  <point x="226" y="495"/>
	  <point x="219" y="443" type="curve" smooth="yes"/>
	</contour>
  </outline>
</glyph>
<glyph name="semicolon" format="1">
  <advance width="600"/>
  <unicode hex="003B"/>
  <outline>
	<contour>
	  <point x="228" y="198"/>
	  <point x="179" y="157"/>
	  <point x="171" y="103" type="curve" smooth="yes"/>
	  <point x="165" y="61"/>
	  <point x="181" y="28"/>
	  <point x="207" y="9" type="curve"/>
	  <point x="125" y="-198" type="line"/>
	  <point x="230" y="-198" type="line"/>
	  <point x="321" y="-45" type="line" smooth="yes"/>
	  <point x="356" y="17"/>
	  <point x="375" y="52"/>
	  <point x="379" y="84" type="curve" smooth="yes"/>
	  <point x="389" y="149"/>
	  <point x="348" y="198"/>
	  <point x="284" y="198" type="curve" smooth="yes"/>
	</contour>
	<contour>
	  <point x="277" y="540"/>
	  <point x="226" y="495"/>
	  <point x="219" y="443" type="curve" smooth="yes"/>
	  <point x="210" y="381"/>
	  <point x="253" y="329"/>
	  <point x="316" y="329" type="curve" smooth="yes"/>
	  <point x="371" y="329"/>
	  <point x="420" y="373"/>
	  <point x="427" y="425" type="curve" smooth="yes"/>
	  <point x="436" y="487"/>
	  <point x="395" y="540"/>
	  <point x="332" y="540" type="curve" smooth="yes"/>
	</contour>
  </outline>
</glyph>
<glyph name="less" format="1">
  <advance width="600"/>
  <unicode hex="003C"/>
  <outline>
	<contour>
	  <point x="83" y="370" type="line"/>
	  <point x="69" y="257" type="line"/>
	  <point x="426" y="15" type="line"/>
	  <point x="513" y="129" type="line"/>
	  <point x="214" y="314" type="line"/>
	  <point x="563" y="503" type="line"/>
	  <point x="508" y="613" type="line"/>
	</contour>
  </outline>
</glyph>
<glyph name="equal" format="1">
  <advance width="600"/>
  <unicode hex="003D"/>
  <outline>
	<contour>
	  <point x="102" y="479" type="line"/>
	  <point x="84" y="354" type="line"/>
	  <point x="540" y="354" type="line"/>
	  <point x="558" y="479" type="line"/>
	</contour>
	<contour>
	  <point x="72" y="268" type="line"/>
	  <point x="55" y="144" type="line"/>
	  <point x="511" y="144" type="line"/>
	  <point x="528" y="268" type="line"/>
	</contour>
  </outline>
</glyph>
<glyph name="greater" format="1">
  <advance width="600"/>
  <unicode hex="003E"/>
  <outline>
	<contour>
	  <point x="101" y="498" type="line"/>
	  <point x="400" y="314" type="line"/>
	  <point x="50" y="124" type="line"/>
	  <point x="108" y="15" type="line"/>
	  <point x="531" y="257" type="line"/>
	  <point x="545" y="371" type="line"/>
	  <point x="187" y="613" type="line"/>
	</contour>
  </outline>
</glyph>
<glyph name="question" format="1">
  <advance width="600"/>
  <unicode hex="003F"/>
  <outline>
	<contour>
	  <point x="251" y="711"/>
	  <point x="167" y="673"/>
	  <point x="101" y="606" type="curve"/>
	  <point x="195" y="521" type="line"/>
	  <point x="236" y="562"/>
	  <point x="284" y="585"/>
	  <point x="333" y="585" type="curve" smooth="yes"/>
	  <point x="375" y="585"/>
	  <point x="403" y="569"/>
	  <point x="398" y="538" type="curve" smooth="yes"/>
	  <point x="386" y="451"/>
	  <point x="222" y="457"/>
	  <point x="198" y="285" type="curve" smooth="yes"/>
	  <point x="194" y="256" type="line"/>
	  <point x="340" y="256" type="line"/>
	  <point x="342" y="272" type="line" smooth="yes"/>
	  <point x="358" y="388"/>
	  <point x="543" y="377"/>
	  <point x="565" y="534" type="curve" smooth="yes"/>
	  <point x="578" y="628"/>
	  <point x="509" y="711"/>
	  <point x="352" y="711" type="curve" smooth="yes"/>
	</contour>
	<contour>
	  <point x="202" y="165"/>
	  <point x="160" y="128"/>
	  <point x="153" y="83" type="curve" smooth="yes"/>
	  <point x="146" y="28"/>
	  <point x="182" y="-17"/>
	  <point x="237" y="-17" type="curve" smooth="yes"/>
	  <point x="283" y="-17"/>
	  <point x="326" y="20"/>
	  <point x="333" y="65" type="curve" smooth="yes"/>
	  <point x="341" y="120"/>
	  <point x="303" y="165"/>
	  <point x="249" y="165" type="curve" smooth="yes"/>
	</contour>
  </outline>
</glyph>
<glyph name="at" format="1">
  <advance width="600"/>
  <unicode hex="0040"/>
  <outline>
	<contour>
	  <point x="238" y="711"/>
	  <point x="145" y="678"/>
	  <point x="43" y="598" type="curve"/>
	  <point x="100" y="518" type="line"/>
	  <point x="185" y="585"/>
	  <point x="259" y="613"/>
	  <point x="335" y="613" type="curve" smooth="yes"/>
	  <point x="490" y="613"/>
	  <point x="510" y="501"/>
	  <point x="481" y="296" type="curve" smooth="yes"/>
	  <point x="451" y="84"/>
	  <point x="434" y="5"/>
	  <point x="392" y="5" type="curve" smooth="yes"/>
	  <point x="369" y="5"/>
	  <point x="363" y="27"/>
	  <point x="374" y="100" type="curve" smooth="yes"/>
	  <point x="413" y="402" type="line"/>
	  <point x="362" y="432"/>
	  <point x="304" y="448"/>
	  <point x="247" y="448" type="curve" smooth="yes"/>
	  <point x="105" y="448"/>
	  <point x="26" y="347"/>
	  <point x="4" y="188" type="curve" smooth="yes"/>
	  <point x="-15" y="54"/>
	  <point x="17" y="-49"/>
	  <point x="140" y="-49" type="curve" smooth="yes"/>
	  <point x="207" y="-49"/>
	  <point x="257" y="-11"/>
	  <point x="286" y="40" type="curve"/>
	  <point x="292" y="48" type="line"/>
	  <point x="289" y="-28"/>
	  <point x="317" y="-94"/>
	  <point x="397" y="-94" type="curve" smooth="yes"/>
	  <point x="521" y="-94"/>
	  <point x="567" y="40"/>
	  <point x="602" y="287" type="curve" smooth="yes"/>
	  <point x="638" y="543"/>
	  <point x="584" y="711"/>
	  <point x="343" y="711" type="curve" smooth="yes"/>
	</contour>
	<contour>
	  <point x="255" y="348"/>
	  <point x="264" y="347"/>
	  <point x="276" y="341" type="curve"/>
	  <point x="242" y="125" type="line"/>
	  <point x="234" y="94"/>
	  <point x="217" y="51"/>
	  <point x="169" y="51" type="curve" smooth="yes"/>
	  <point x="136" y="51"/>
	  <point x="132" y="84"/>
	  <point x="145" y="170" type="curve" smooth="yes"/>
	  <point x="163" y="303"/>
	  <point x="188" y="348"/>
	  <point x="244" y="348" type="curve" smooth="yes"/>
	</contour>
  </outline>
</glyph>
<glyph name="A" format="2">
  <advance width="600"/>
  <unicode hex="0041"/>
  <anchor x="323" y="693" name="Anchor-4"/>
  <anchor x="492" y="0" name="Anchor-2"/>
  <anchor x="444" y="693" name="Anchor-0"/>
  <outline>
    <contour>
      <point x="422" y="0" type="line"/>
      <point x="407" y="149" type="line"/>
      <point x="206" y="149" type="line"/>
      <point x="149" y="0" type="line"/>
      <point x="0" y="0" type="line"/>
      <point x="282" y="693" type="line"/>
      <point x="483" y="693" type="line"/>
      <point x="598" y="0" type="line"/>
    </contour>
    <contour>
      <point x="365" y="574" type="line"/>
      <point x="248" y="269" type="line"/>
      <point x="396" y="269" type="line"/>
    </contour>
  </outline>
</glyph>
<glyph name="B" format="1">
  <advance width="600"/>
  <unicode hex="0042"/>
  <outline>
	<contour>
	  <point x="383" y="139"/>
	  <point x="321" y="121"/>
	  <point x="257" y="121" type="curve" smooth="yes"/>
	  <point x="201" y="121" type="line"/>
	  <point x="227" y="306" type="line"/>
	  <point x="296" y="306" type="line" smooth="yes"/>
	  <point x="365" y="306"/>
	  <point x="404" y="286"/>
	  <point x="394" y="219" type="curve" smooth="yes"/>
	</contour>
	<contour>
	  <point x="400" y="445"/>
	  <point x="363" y="417"/>
	  <point x="293" y="417" type="curve" smooth="yes"/>
	  <point x="242" y="417" type="line"/>
	  <point x="265" y="576" type="line"/>
	  <point x="317" y="576" type="line" smooth="yes"/>
	  <point x="389" y="576"/>
	  <point x="416" y="557"/>
	  <point x="409" y="508" type="curve" smooth="yes"/>
	</contour>
	<contour>
	  <point x="578" y="310"/>
	  <point x="498" y="354"/>
	  <point x="429" y="365" type="curve"/>
	  <point x="503" y="383"/>
	  <point x="565" y="429"/>
	  <point x="576" y="507" type="curve" smooth="yes"/>
	  <point x="596" y="647"/>
	  <point x="476" y="693"/>
	  <point x="333" y="693" type="curve" smooth="yes"/>
	  <point x="115" y="693" type="line"/>
	  <point x="18" y="0" type="line"/>
	  <point x="252" y="0" type="line" smooth="yes"/>
	  <point x="403" y="0"/>
	  <point x="540" y="39"/>
	  <point x="562" y="194" type="curve" smooth="yes"/>
	</contour>
  </outline>
</glyph>
<glyph name="C" format="1">
  <advance width="600"/>
  <unicode hex="0043"/>
  <outline>
	<contour>
	  <point x="234" y="711"/>
	  <point x="78" y="584"/>
	  <point x="46" y="357" type="curve" smooth="yes"/>
	  <point x="12" y="114"/>
	  <point x="130" y="-17"/>
	  <point x="323" y="-17" type="curve" smooth="yes"/>
	  <point x="426" y="-17"/>
	  <point x="506" y="22"/>
	  <point x="565" y="74" type="curve"/>
	  <point x="498" y="176" type="line"/>
	  <point x="456" y="145"/>
	  <point x="409" y="111"/>
	  <point x="336" y="111" type="curve" smooth="yes"/>
	  <point x="246" y="111"/>
	  <point x="193" y="178"/>
	  <point x="215" y="339" type="curve" smooth="yes"/>
	  <point x="240" y="513"/>
	  <point x="323" y="588"/>
	  <point x="414" y="588" type="curve" smooth="yes"/>
	  <point x="464" y="588"/>
	  <point x="508" y="571"/>
	  <point x="542" y="540" type="curve"/>
	  <point x="632" y="632" type="line"/>
	  <point x="578" y="680"/>
	  <point x="518" y="711"/>
	  <point x="414" y="711" type="curve" smooth="yes"/>
	</contour>
	<contour>
	  <point x="481" y="693" type="move" name="top"/>
	</contour>
	<contour>
	  <point x="278" y="0" type="move" name="bottom"/>
	</contour>
  </outline>
</glyph>
<glyph name="D" format="1">
  <advance width="600"/>
  <unicode hex="0044"/>
  <outline>
	<contour>
	  <point x="390" y="173"/>
	  <point x="319" y="120"/>
	  <point x="228" y="120" type="curve" smooth="yes"/>
	  <point x="197" y="120" type="line"/>
	  <point x="260" y="573" type="line"/>
	  <point x="297" y="573" type="line" smooth="yes"/>
	  <point x="384" y="573"/>
	  <point x="441" y="539"/>
	  <point x="416" y="359" type="curve" smooth="yes"/>
	</contour>
	<contour>
	  <point x="627" y="632"/>
	  <point x="462" y="693"/>
	  <point x="284" y="693" type="curve" smooth="yes"/>
	  <point x="111" y="693" type="line"/>
	  <point x="14" y="0" type="line"/>
	  <point x="205" y="0" type="line" smooth="yes"/>
	  <point x="378" y="0"/>
	  <point x="547" y="64"/>
	  <point x="586" y="341" type="curve" smooth="yes"/>
	</contour>
	<contour>
	  <point x="322" y="347" type="move" name="center"/>
	</contour>
	<contour>
	  <point x="407" y="693" type="move" name="top"/>
	</contour>
  </outline>
</glyph>
<glyph name="E" format="2">
  <advance width="600"/>
  <unicode hex="0045"/>
  <anchor x="187" y="693" name="Anchor-4"/>
  <anchor x="396" y="0" name="Anchor-2"/>
  <anchor x="239" y="0" name="Anchor-1"/>
  <anchor x="433" y="693" name="Anchor-0"/>
  <outline>
    <contour>
      <point x="566" y="575" type="line"/>
      <point x="294" y="575" type="line"/>
      <point x="271" y="410" type="line"/>
      <point x="511" y="410" type="line"/>
      <point x="495" y="294" type="line"/>
      <point x="255" y="294" type="line"/>
      <point x="230" y="119" type="line"/>
      <point x="519" y="119" type="line"/>
      <point x="503" y="0" type="line"/>
      <point x="48" y="0" type="line"/>
      <point x="145" y="693" type="line"/>
      <point x="600" y="693" type="line"/>
    </contour>
  </outline>
</glyph>
<glyph name="F" format="1">
  <advance width="600"/>
  <unicode hex="0046"/>
  <outline>
	<contour>
	  <point x="590" y="575" type="line"/>
	  <point x="624" y="693" type="line"/>
	  <point x="167" y="693" type="line"/>
	  <point x="70" y="0" type="line"/>
	  <point x="237" y="0" type="line"/>
	  <point x="275" y="274" type="line"/>
	  <point x="517" y="274" type="line"/>
	  <point x="534" y="393" type="line"/>
	  <point x="292" y="393" type="line"/>
	  <point x="317" y="575" type="line"/>
	</contour>
  </outline>
</glyph>
<glyph name="G" format="1">
  <advance width="600"/>
  <unicode hex="0047"/>
  <outline>
	<contour>
	  <point x="383" y="-17"/>
	  <point x="466" y="8"/>
	  <point x="542" y="51" type="curve"/>
	  <point x="588" y="398" type="line"/>
	  <point x="329" y="398" type="line"/>
	  <point x="328" y="282" type="line"/>
	  <point x="414" y="282" type="line"/>
	  <point x="390" y="127" type="line"/>
	  <point x="364" y="114"/>
	  <point x="333" y="104"/>
	  <point x="297" y="104" type="curve" smooth="yes"/>
	  <point x="210" y="104"/>
	  <point x="178" y="162"/>
	  <point x="203" y="338" type="curve" smooth="yes"/>
	  <point x="228" y="516"/>
	  <point x="309" y="590"/>
	  <point x="406" y="590" type="curve" smooth="yes"/>
	  <point x="451" y="590"/>
	  <point x="482" y="575"/>
	  <point x="519" y="538" type="curve"/>
	  <point x="615" y="622" type="line"/>
	  <point x="567" y="673"/>
	  <point x="506" y="711"/>
	  <point x="401" y="711" type="curve" smooth="yes"/>
	  <point x="224" y="711"/>
	  <point x="67" y="588"/>
	  <point x="35" y="357" type="curve" smooth="yes"/>
	  <point x="1" y="114"/>
	  <point x="91" y="-17"/>
	  <point x="293" y="-17" type="curve" smooth="yes"/>
	</contour>
	<contour>
	  <point x="450" y="693" type="move" name="top"/>
	</contour>
	<contour>
	  <point x="253" y="0" type="move" name="bottom"/>
	</contour>
  </outline>
</glyph>
<glyph name="H" format="2">
  <advance width="600"/>
  <unicode hex="0048"/>
  <anchor x="410" y="693" name="Anchor-0"/>
  <outline>
    <contour>
      <point x="502" y="0" type="line"/>
      <point x="336" y="0" type="line"/>
      <point x="376" y="289" type="line"/>
      <point x="210" y="289" type="line"/>
      <point x="170" y="0" type="line"/>
      <point x="4" y="0" type="line"/>
      <point x="101" y="693" type="line"/>
      <point x="267" y="693" type="line"/>
      <point x="230" y="430" type="line"/>
      <point x="396" y="430" type="line"/>
      <point x="433" y="693" type="line"/>
      <point x="599" y="693" type="line"/>
    </contour>
  </outline>
</glyph>
<glyph name="I" format="1">
  <advance width="600"/>
  <unicode hex="0049"/>
  <outline>
	<contour>
	  <point x="134" y="693" type="line"/>
	  <point x="117" y="572" type="line"/>
	  <point x="260" y="572" type="line"/>
	  <point x="197" y="122" type="line"/>
	  <point x="54" y="122" type="line"/>
	  <point x="37" y="0" type="line"/>
	  <point x="489" y="0" type="line"/>
	  <point x="506" y="122" type="line"/>
	  <point x="363" y="122" type="line"/>
	  <point x="426" y="572" type="line"/>
	  <point x="569" y="572" type="line"/>
	  <point x="586" y="693" type="line"/>
	</contour>
	<contour>
	  <point x="319" y="0" type="move" name="ogonek"/>
	</contour>
	<contour>
	  <point x="420" y="693" type="move" name="top"/>
	</contour>
	<contour>
	  <point x="184" y="693" type="move" name="topleft"/>
	</contour>
  </outline>
</glyph>
<glyph name="J" format="1">
  <advance width="600"/>
  <unicode hex="004A"/>
  <outline>
	<contour>
	  <point x="209" y="693" type="line"/>
	  <point x="192" y="572" type="line"/>
	  <point x="405" y="572" type="line"/>
	  <point x="360" y="252" type="line" smooth="yes"/>
	  <point x="347" y="156"/>
	  <point x="283" y="108"/>
	  <point x="209" y="108" type="curve" smooth="yes"/>
	  <point x="160" y="108"/>
	  <point x="124" y="117"/>
	  <point x="82" y="149" type="curve"/>
	  <point x="9" y="52" type="line"/>
	  <point x="65" y="11"/>
	  <point x="122" y="-15"/>
	  <point x="216" y="-15" type="curve" smooth="yes"/>
	  <point x="389" y="-15"/>
	  <point x="502" y="83"/>
	  <point x="525" y="246" type="curve" smooth="yes"/>
	  <point x="588" y="693" type="line"/>
	</contour>
	<contour>
	  <point x="472" y="693" type="move" name="top"/>
	</contour>
  </outline>
</glyph>
<glyph name="K" format="2">
  <advance width="600"/>
  <unicode hex="004B"/>
  <anchor x="207" y="0" name="Anchor-1"/>
  <anchor x="401" y="693" name="Anchor-0"/>
  <outline>
    <contour>
      <point x="265" y="693" type="line"/>
      <point x="168" y="0" type="line"/>
      <point x="2" y="0" type="line"/>
      <point x="99" y="693" type="line"/>
    </contour>
    <contour>
      <point x="362" y="0" type="line"/>
      <point x="225" y="370" type="line"/>
      <point x="456" y="693" type="line"/>
      <point x="600" y="693" type="line"/>
      <point x="393" y="382" type="line"/>
      <point x="552" y="0" type="line"/>
    </contour>
  </outline>
</glyph>
<glyph name="L" format="1">
  <advance width="600"/>
  <unicode hex="004C"/>
  <outline>
	<contour>
	  <point x="504" y="0" type="line"/>
	  <point x="539" y="131" type="line"/>
	  <point x="239" y="131" type="line"/>
	  <point x="318" y="693" type="line"/>
	  <point x="152" y="693" type="line"/>
	  <point x="55" y="0" type="line"/>
	</contour>
	<contour>
	  <point x="243" y="0" type="move" name="bottom"/>
	</contour>
	<contour>
	  <point x="295" y="693" type="move" name="top"/>
	</contour>
	<contour>
	  <point x="428" y="693" type="move" name="topright"/>
	</contour>
	<contour>
	  <point x="500" y="385" type="move" name="center"/>
	</contour>
  </outline>
</glyph>
<glyph name="M" format="2">
  <advance width="600"/>
  <unicode hex="004D"/>
  <outline>
    <contour>
      <point x="600" y="693" type="move" smooth="yes"/>
    </contour>
    <contour>
      <point x="433" y="693" type="line"/>
      <point x="600" y="693" type="line"/>
      <point x="546" y="0" type="line"/>
      <point x="401" y="0" type="line"/>
      <point x="435" y="299" type="line" smooth="yes"/>
      <point x="447" y="409"/>
      <point x="460" y="462"/>
      <point x="478" y="541" type="curve"/>
      <point x="474" y="537" type="line"/>
      <point x="342" y="118" type="line"/>
      <point x="217" y="118" type="line"/>
      <point x="198" y="537" type="line"/>
      <point x="192" y="533" type="line"/>
      <point x="189" y="459"/>
      <point x="185" y="400"/>
      <point x="167" y="288" type="curve" smooth="yes"/>
      <point x="122" y="0" type="line"/>
      <point x="0" y="0" type="line"/>
      <point x="116" y="693" type="line"/>
      <point x="285" y="693" type="line"/>
      <point x="298" y="246" type="line"/>
    </contour>
  </outline>
</glyph>
<glyph name="N" format="1">
  <advance width="600"/>
  <unicode hex="004E"/>
  <outline>
	<contour>
	  <point x="512" y="0" type="line"/>
	  <point x="609" y="693" type="line"/>
	  <point x="468" y="693" type="line"/>
	  <point x="432" y="434" type="line" smooth="yes"/>
	  <point x="414" y="309"/>
	  <point x="415" y="208"/>
	  <point x="419" y="158" type="curve"/>
	  <point x="411" y="154" type="line"/>
	  <point x="317" y="693" type="line"/>
	  <point x="111" y="693" type="line"/>
	  <point x="14" y="0" type="line"/>
	  <point x="155" y="0" type="line"/>
	  <point x="191" y="255" type="line" smooth="yes"/>
	  <point x="208" y="377"/>
	  <point x="207" y="492"/>
	  <point x="204" y="534" type="curve"/>
	  <point x="211" y="538" type="line"/>
	  <point x="312" y="0" type="line"/>
	</contour>
	<contour>
	  <point x="430" y="693" type="move" name="top"/>
	</contour>
	<contour>
	  <point x="226" y="0" type="move" name="bottom"/>
	</contour>
  </outline>
</glyph>
<glyph name="O" format="1">
  <advance width="600"/>
  <unicode hex="004F"/>
  <outline>
	<contour>
	  <point x="621" y="568"/>
	  <point x="542" y="711"/>
	  <point x="356" y="711" type="curve" smooth="yes"/>
	  <point x="178" y="711"/>
	  <point x="65" y="571"/>
	  <point x="35" y="356" type="curve" smooth="yes"/>
	  <point x="2" y="126"/>
	  <point x="81" y="-17"/>
	  <point x="267" y="-17" type="curve" smooth="yes"/>
	  <point x="445" y="-17"/>
	  <point x="558" y="123"/>
	  <point x="588" y="338" type="curve" smooth="yes"/>
	</contour>
	<contour>
	  <point x="396" y="183"/>
	  <point x="353" y="104"/>
	  <point x="270" y="104" type="curve" smooth="yes"/>
	  <point x="198" y="104"/>
	  <point x="179" y="173"/>
	  <point x="202" y="338" type="curve" smooth="yes"/>
	  <point x="227" y="513"/>
	  <point x="272" y="590"/>
	  <point x="353" y="590" type="curve" smooth="yes"/>
	  <point x="426" y="590"/>
	  <point x="444" y="521"/>
	  <point x="421" y="356" type="curve" smooth="yes"/>
	</contour>
	<contour>
	  <point x="420" y="693" type="move" name="top"/>
	</contour>
  </outline>
</glyph>
<glyph name="P" format="2">
  <advance width="600"/>
  <unicode hex="0050"/>
  <outline>
    <contour>
      <point x="324" y="693" type="line" smooth="yes"/>
      <point x="513" y="693"/>
      <point x="613" y="615"/>
      <point x="591" y="458" type="curve" smooth="yes"/>
      <point x="569" y="302"/>
      <point x="451" y="230"/>
      <point x="287" y="230" type="curve" smooth="yes"/>
      <point x="209" y="230" type="line"/>
      <point x="177" y="0" type="line"/>
      <point x="11" y="0" type="line"/>
      <point x="108" y="693" type="line"/>
    </contour>
    <contour>
      <point x="287" y="350" type="line" smooth="yes"/>
      <point x="359" y="350"/>
      <point x="410" y="390"/>
      <point x="423" y="476" type="curve" smooth="yes"/>
      <point x="432" y="544"/>
      <point x="398" y="575"/>
      <point x="315" y="575" type="curve" smooth="yes"/>
      <point x="257" y="575" type="line"/>
      <point x="226" y="350" type="line"/>
    </contour>
  </outline>
</glyph>
<glyph name="Q" format="1">
  <advance width="600"/>
  <unicode hex="0051"/>
  <outline>
	<contour>
	  <point x="618" y="568"/>
	  <point x="545" y="711"/>
	  <point x="359" y="711" type="curve" smooth="yes"/>
	  <point x="181" y="711"/>
	  <point x="75" y="571"/>
	  <point x="45" y="356" type="curve" smooth="yes"/>
	  <point x="12" y="126"/>
	  <point x="80" y="-14"/>
	  <point x="258" y="-14" type="curve" smooth="yes"/>
	  <point x="375" y="-14"/>
	  <point x="411" y="-65"/>
	  <point x="440" y="-169" type="curve"/>
	  <point x="578" y="-131" type="line"/>
	  <point x="556" y="-19"/>
	  <point x="501" y="21"/>
	  <point x="400" y="37" type="curve"/>
	  <point x="518" y="94"/>
	  <point x="567" y="207"/>
	  <point x="585" y="338" type="curve" smooth="yes"/>
	</contour>
	<contour>
	  <point x="390" y="183"/>
	  <point x="356" y="104"/>
	  <point x="273" y="104" type="curve" smooth="yes"/>
	  <point x="201" y="104"/>
	  <point x="191" y="174"/>
	  <point x="214" y="338" type="curve" smooth="yes"/>
	  <point x="239" y="511"/>
	  <point x="274" y="589"/>
	  <point x="355" y="589" type="curve" smooth="yes"/>
	  <point x="429" y="589"/>
	  <point x="438" y="520"/>
	  <point x="415" y="356" type="curve" smooth="yes"/>
	</contour>
  </outline>
</glyph>
<glyph name="R" format="1">
  <advance width="600"/>
  <unicode hex="0052"/>
  <outline>
	<contour>
	  <point x="612" y="622"/>
	  <point x="522" y="693"/>
	  <point x="333" y="693" type="curve" smooth="yes"/>
	  <point x="117" y="693" type="line"/>
	  <point x="20" y="0" type="line"/>
	  <point x="186" y="0" type="line"/>
	  <point x="223" y="264" type="line"/>
	  <point x="269" y="264" type="line"/>
	  <point x="381" y="0" type="line"/>
	  <point x="567" y="0" type="line"/>
	  <point x="429" y="290" type="line"/>
	  <point x="512" y="321"/>
	  <point x="578" y="379"/>
	  <point x="591" y="473" type="curve" smooth="yes"/>
	</contour>
	<contour>
	  <point x="412" y="413"/>
	  <point x="366" y="378"/>
	  <point x="296" y="378" type="curve" smooth="yes"/>
	  <point x="239" y="378" type="line"/>
	  <point x="267" y="577" type="line"/>
	  <point x="323" y="577" type="line" smooth="yes"/>
	  <point x="399" y="577"/>
	  <point x="431" y="552"/>
	  <point x="423" y="491" type="curve" smooth="yes"/>
	</contour>
	<contour>
	  <point x="420" y="693" type="move" name="top"/>
	</contour>
	<contour>
	  <point x="236" y="0" type="move" name="bottom"/>
	</contour>
  </outline>
</glyph>
<glyph name="S" format="2">
  <advance width="600"/>
  <unicode hex="0053"/>
  <anchor x="226" y="0" name="Anchor-1"/>
  <anchor x="430" y="693" name="Anchor-0"/>
  <outline>
    <contour>
      <point x="376" y="424" type="curve"/>
      <point x="506" y="385"/>
      <point x="578" y="326"/>
      <point x="559" y="194" type="curve" smooth="yes"/>
      <point x="541" y="69"/>
      <point x="426" y="-17"/>
      <point x="253" y="-17" type="curve" smooth="yes"/>
      <point x="117" y="-17"/>
      <point x="51" y="30"/>
      <point x="0" y="87" type="curve"/>
      <point x="80" y="173" type="line"/>
      <point x="125" y="128"/>
      <point x="183" y="106"/>
      <point x="253" y="106" type="curve" smooth="yes"/>
      <point x="325" y="106"/>
      <point x="379" y="141"/>
      <point x="387" y="199" type="curve" smooth="yes"/>
      <point x="393" y="244"/>
      <point x="370" y="264"/>
      <point x="281" y="295" type="curve" smooth="yes"/>
      <point x="122" y="343"/>
      <point x="67" y="408"/>
      <point x="82" y="518" type="curve" smooth="yes"/>
      <point x="100" y="641"/>
      <point x="225" y="711"/>
      <point x="365" y="711" type="curve" smooth="yes"/>
      <point x="476" y="711"/>
      <point x="547" y="678"/>
      <point x="600" y="621" type="curve"/>
      <point x="521" y="534" type="line"/>
      <point x="479" y="573"/>
      <point x="426" y="589"/>
      <point x="374" y="589" type="curve" smooth="yes"/>
      <point x="308" y="589"/>
      <point x="261" y="562"/>
      <point x="254" y="513" type="curve" smooth="yes"/>
      <point x="248" y="474"/>
      <point x="274" y="460"/>
    </contour>
  </outline>
</glyph>
<glyph name="T" format="1">
  <advance width="600"/>
  <unicode hex="0054"/>
  <outline>
	<contour>
	  <point x="609" y="566" type="line"/>
	  <point x="644" y="693" type="line"/>
	  <point x="82" y="693" type="line"/>
	  <point x="64" y="566" type="line"/>
	  <point x="258" y="566" type="line"/>
	  <point x="179" y="0" type="line"/>
	  <point x="345" y="0" type="line"/>
	  <point x="424" y="566" type="line"/>
	</contour>
	<contour>
	  <point x="225" y="0" type="move" name="bottom"/>
	</contour>
	<contour>
	  <point x="419" y="693" type="move" name="top"/>
	</contour>
	<contour>
	  <point x="318" y="0" type="move" name="bottomright"/>
	</contour>
	<contour>
	  <point x="322" y="347" type="move" name="center"/>
	</contour>
  </outline>
</glyph>
<glyph name="U" format="1">
  <advance width="600"/>
  <unicode hex="0055"/>
  <outline>
	<contour>
	  <point x="452" y="693" type="line"/>
	  <point x="397" y="299" type="line" smooth="yes"/>
	  <point x="379" y="174"/>
	  <point x="354" y="106"/>
	  <point x="271" y="106" type="curve" smooth="yes"/>
	  <point x="196" y="106"/>
	  <point x="194" y="166"/>
	  <point x="212" y="291" type="curve" smooth="yes"/>
	  <point x="268" y="693" type="line"/>
	  <point x="101" y="693" type="line"/>
	  <point x="37" y="236" type="line" smooth="yes"/>
	  <point x="16" y="88"/>
	  <point x="89" y="-17"/>
	  <point x="267" y="-17" type="curve" smooth="yes"/>
	  <point x="436" y="-17"/>
	  <point x="534" y="86"/>
	  <point x="554" y="228" type="curve" smooth="yes"/>
	  <point x="619" y="693" type="line"/>
	</contour>
	<contour>
	  <point x="342" y="0" type="move" name="ogonek"/>
	</contour>
	<contour>
	  <point x="420" y="693" type="move" name="top"/>
	</contour>
  </outline>
</glyph>
<glyph name="V" format="2">
  <advance width="600"/>
  <unicode hex="0056"/>
  <outline>
    <contour>
      <point x="174" y="693" type="line"/>
      <point x="223" y="129" type="line"/>
      <point x="431" y="693" type="line"/>
      <point x="600" y="693" type="line"/>
      <point x="307" y="0" type="line"/>
      <point x="101" y="0" type="line"/>
      <point x="0" y="693" type="line"/>
    </contour>
  </outline>
</glyph>
<glyph name="W" format="1">
  <advance width="600"/>
  <unicode hex="0057"/>
  <outline>
	<contour>
	  <point x="519" y="693" type="line"/>
	  <point x="413" y="152" type="line"/>
	  <point x="409" y="152" type="line"/>
	  <point x="422" y="613" type="line"/>
	  <point x="280" y="613" type="line"/>
	  <point x="159" y="151" type="line"/>
	  <point x="155" y="151" type="line"/>
	  <point x="212" y="693" type="line"/>
	  <point x="57" y="693" type="line"/>
	  <point x="34" y="0" type="line"/>
	  <point x="209" y="0" type="line"/>
	  <point x="329" y="486" type="line"/>
	  <point x="333" y="486" type="line"/>
	  <point x="314" y="0" type="line"/>
	  <point x="486" y="0" type="line"/>
	  <point x="663" y="693" type="line"/>
	</contour>
	<contour>
	  <point x="420" y="693" type="move" name="top"/>
	</contour>
  </outline>
</glyph>
<glyph name="X" format="1">
  <advance width="600"/>
  <unicode hex="0058"/>
  <outline>
	<contour>
	  <point x="213" y="368" type="line"/>
	  <point x="-35" y="0" type="line"/>
	  <point x="143" y="0" type="line"/>
	  <point x="300" y="263" type="line"/>
	  <point x="383" y="0" type="line"/>
	  <point x="560" y="0" type="line"/>
	  <point x="412" y="375" type="line"/>
	  <point x="642" y="693" type="line"/>
	  <point x="465" y="693" type="line"/>
	  <point x="327" y="472" type="line"/>
	  <point x="256" y="693" type="line"/>
	  <point x="79" y="693" type="line"/>
	</contour>
	<contour>
	  <point x="486" y="0" type="move" name="bottomright"/>
	</contour>
  </outline>
</glyph>
<glyph name="Y" format="1">
  <advance width="600"/>
  <unicode hex="0059"/>
  <outline>
	<contour>
	  <point x="670" y="693" type="line"/>
	  <point x="493" y="693" type="line"/>
	  <point x="319" y="396" type="line"/>
	  <point x="232" y="693" type="line"/>
	  <point x="52" y="693" type="line"/>
	  <point x="217" y="259" type="line"/>
	  <point x="180" y="0" type="line"/>
	  <point x="346" y="0" type="line"/>
	  <point x="383" y="260" type="line"/>
	</contour>
	<contour>
	  <point x="420" y="693" type="move" name="top"/>
	</contour>
	<contour>
	  <point x="101" y="693" type="move" name="topleft"/>
	</contour>
  </outline>
</glyph>
<glyph name="Z" format="1">
  <advance width="600"/>
  <unicode hex="005A"/>
  <outline>
	<contour>
	  <point x="599" y="568" type="line"/>
	  <point x="615" y="693" type="line"/>
	  <point x="134" y="693" type="line"/>
	  <point x="116" y="565" type="line"/>
	  <point x="407" y="565" type="line"/>
	  <point x="17" y="124" type="line"/>
	  <point x="1" y="0" type="line"/>
	  <point x="509" y="0" type="line"/>
	  <point x="544" y="132" type="line"/>
	  <point x="216" y="132" type="line"/>
	</contour>
	<contour>
	  <point x="433" y="693" type="move" name="top"/>
	</contour>
  </outline>
</glyph>
<glyph name="bracketleft" format="1">
  <advance width="600"/>
  <unicode hex="005B"/>
  <outline>
	<contour>
	  <point x="410" y="-123" type="line"/>
	  <point x="427" y="-5" type="line"/>
	  <point x="268" y="-5" type="line"/>
	  <point x="368" y="704" type="line"/>
	  <point x="527" y="704" type="line"/>
	  <point x="543" y="823" type="line"/>
	  <point x="233" y="823" type="line"/>
	  <point x="100" y="-123" type="line"/>
	</contour>
  </outline>
</glyph>
<glyph name="bracketright" format="1">
  <advance width="600"/>
  <unicode hex="005D"/>
  <outline>
	<contour>
	  <point x="213" y="823" type="line"/>
	  <point x="197" y="704" type="line"/>
	  <point x="356" y="704" type="line"/>
	  <point x="256" y="-4" type="line"/>
	  <point x="97" y="-4" type="line"/>
	  <point x="80" y="-123" type="line"/>
	  <point x="390" y="-123" type="line"/>
	  <point x="523" y="823" type="line"/>
	</contour>
  </outline>
</glyph>
<glyph name="asciicircum" format="1">
  <advance width="600"/>
  <unicode hex="005E"/>
  <outline>
	<contour>
	  <point x="307" y="844" type="line"/>
	  <point x="74" y="527" type="line"/>
	  <point x="234" y="527" type="line"/>
	  <point x="366" y="725" type="line"/>
	  <point x="444" y="527" type="line"/>
	  <point x="598" y="527" type="line"/>
	  <point x="453" y="844" type="line"/>
	</contour>
  </outline>
</glyph>
<glyph name="underscore" format="2">
  <advance width="600"/>
  <unicode hex="005F"/>
  <outline>
    <contour>
      <point x="544" y="-186" type="line"/>
      <point x="0" y="-186" type="line"/>
      <point x="17" y="-61" type="line"/>
      <point x="561" y="-61" type="line"/>
    </contour>
  </outline>
</glyph>
<glyph name="grave" format="1">
  <advance width="600"/>
  <unicode hex="0060"/>
  <outline>
	<contour>
	  <point x="503" y="689" type="line"/>
	  <point x="305" y="833" type="line"/>
	  <point x="219" y="714" type="line"/>
	  <point x="445" y="608" type="line"/>
	</contour>
	<contour>
	  <point x="374" y="531" type="move" name="_top"/>
	</contour>
  </outline>
</glyph>
<glyph name="a" format="2">
  <advance width="600"/>
  <unicode hex="0061"/>
  <anchor x="6" y="0" name="Anchor-18"/>
  <anchor x="6" y="0" name="Anchor-17"/>
  <anchor x="350" y="531" name="Anchor-16"/>
  <anchor x="493" y="-14" name="Anchor-15"/>
  <anchor x="283" y="0" name="Anchor-14"/>
  <outline>
    <contour>
      <point x="336" y="548" type="curve" smooth="yes"/>
      <point x="409" y="548"/>
      <point x="484" y="530"/>
      <point x="553" y="492" type="curve"/>
      <point x="504" y="152" type="line" smooth="yes"/>
      <point x="500" y="117"/>
      <point x="501" y="99"/>
      <point x="530" y="88" type="curve"/>
      <point x="485" y="-14" type="line"/>
      <point x="427" y="-9"/>
      <point x="378" y="17"/>
      <point x="362" y="74" type="curve"/>
      <point x="325" y="21"/>
      <point x="275" y="-17"/>
      <point x="204" y="-17" type="curve" smooth="yes"/>
      <point x="92" y="-17"/>
      <point x="32" y="66"/>
      <point x="32" y="194" type="curve" smooth="yes"/>
      <point x="32" y="346"/>
      <point x="112" y="548"/>
    </contour>
    <contour>
      <point x="332" y="436" type="curve" smooth="yes"/>
      <point x="229" y="436"/>
      <point x="193" y="298"/>
      <point x="193" y="195" type="curve" smooth="yes"/>
      <point x="193" y="120"/>
      <point x="218" y="99"/>
      <point x="253" y="99" type="curve" smooth="yes"/>
      <point x="291" y="99"/>
      <point x="324" y="127"/>
      <point x="354" y="173" type="curve"/>
      <point x="391" y="426" type="line"/>
      <point x="371" y="433"/>
      <point x="355" y="436"/>
    </contour>
  </outline>
</glyph>
<glyph name="b" format="1">
  <advance width="600"/>
  <unicode hex="0062"/>
  <outline>
	<contour>
	  <point x="298" y="759" type="line"/>
	  <point x="136" y="742" type="line"/>
	  <point x="32" y="0" type="line"/>
	  <point x="174" y="0" type="line"/>
	  <point x="189" y="52" type="line"/>
	  <point x="214" y="10"/>
	  <point x="258" y="-17"/>
	  <point x="315" y="-17" type="curve" smooth="yes"/>
	  <point x="449" y="-17"/>
	  <point x="538" y="99"/>
	  <point x="560" y="258" type="curve" smooth="yes"/>
	  <point x="585" y="436"/>
	  <point x="538" y="549"/>
	  <point x="398" y="549" type="curve" smooth="yes"/>
	  <point x="348" y="549"/>
	  <point x="296" y="525"/>
	  <point x="257" y="481" type="curve"/>
	</contour>
	<contour>
	  <point x="246" y="99"/>
	  <point x="225" y="112"/>
	  <point x="210" y="143" type="curve"/>
	  <point x="245" y="366" type="line"/>
	  <point x="273" y="404"/>
	  <point x="305" y="431"/>
	  <point x="344" y="431" type="curve" smooth="yes"/>
	  <point x="389" y="431"/>
	  <point x="415" y="401"/>
	  <point x="397" y="274" type="curve" smooth="yes"/>
	  <point x="380" y="150"/>
	  <point x="335" y="99"/>
	  <point x="276" y="99" type="curve" smooth="yes"/>
	</contour>
  </outline>
</glyph>
<glyph name="c" format="1">
  <advance width="600"/>
  <unicode hex="0063"/>
  <outline>
	<contour>
	  <point x="260" y="109"/>
	  <point x="218" y="141"/>
	  <point x="233" y="253" type="curve" smooth="yes"/>
	  <point x="251" y="377"/>
	  <point x="308" y="426"/>
	  <point x="383" y="426" type="curve" smooth="yes"/>
	  <point x="422" y="426"/>
	  <point x="460" y="414"/>
	  <point x="492" y="389" type="curve"/>
	  <point x="570" y="479" type="line"/>
	  <point x="521" y="523"/>
	  <point x="464" y="549"/>
	  <point x="379" y="549" type="curve" smooth="yes"/>
	  <point x="212" y="549"/>
	  <point x="91" y="432"/>
	  <point x="69" y="271" type="curve" smooth="yes"/>
	  <point x="45" y="100"/>
	  <point x="134" y="-17"/>
	  <point x="310" y="-17" type="curve" smooth="yes"/>
	  <point x="389" y="-17"/>
	  <point x="461" y="10"/>
	  <point x="514" y="50" type="curve"/>
	  <point x="451" y="157" type="line"/>
	  <point x="410" y="131"/>
	  <point x="370" y="109"/>
	  <point x="323" y="109" type="curve" smooth="yes"/>
	</contour>
	<contour>
	  <point x="414" y="518" type="move" name="top"/>
	</contour>
	<contour>
	  <point x="265" y="0" type="move" name="bottom"/>
	</contour>
	<contour>
	  <point x="265" y="0" type="move" name="bottomAttach"/>
	</contour>
  </outline>
</glyph>
<glyph name="d" format="1">
  <advance width="600"/>
  <unicode hex="0064"/>
  <outline>
	<contour>
	  <point x="402" y="497" type="line"/>
	  <point x="374" y="529"/>
	  <point x="335" y="549"/>
	  <point x="284" y="549" type="curve" smooth="yes"/>
	  <point x="157" y="549"/>
	  <point x="63" y="435"/>
	  <point x="40" y="276" type="curve" smooth="yes"/>
	  <point x="16" y="100"/>
	  <point x="65" y="-17"/>
	  <point x="201" y="-17" type="curve" smooth="yes"/>
	  <point x="267" y="-17"/>
	  <point x="319" y="13"/>
	  <point x="353" y="54" type="curve"/>
	  <point x="352" y="0" type="line"/>
	  <point x="494" y="0" type="line"/>
	  <point x="598" y="742" type="line"/>
	  <point x="440" y="759" type="line"/>
	</contour>
	<contour>
	  <point x="352" y="432"/>
	  <point x="373" y="419"/>
	  <point x="391" y="392" type="curve"/>
	  <point x="355" y="165" type="line"/>
	  <point x="327" y="127"/>
	  <point x="294" y="100"/>
	  <point x="255" y="100" type="curve" smooth="yes"/>
	  <point x="212" y="100"/>
	  <point x="185" y="131"/>
	  <point x="203" y="257" type="curve" smooth="yes"/>
	  <point x="220" y="381"/>
	  <point x="266" y="432"/>
	  <point x="324" y="432" type="curve" smooth="yes"/>
	</contour>
	<contour>
	  <point x="300" y="266" type="move" name="center"/>
	</contour>
	<contour>
	  <point x="685" y="742" type="move" name="topright"/>
	</contour>
  </outline>
</glyph>
<glyph name="e" format="2">
  <advance width="600"/>
  <unicode hex="0065"/>
  <anchor x="1220.59" y="0" name="Anchor-18"/>
  <anchor x="1220.59" y="0" name="Anchor-17"/>
  <anchor x="2834.52" y="531" name="Anchor-16"/>
  <anchor x="3229.05" y="9" name="Anchor-15"/>
  <anchor x="2511.75" y="0" name="Anchor-14"/>
  <outline>
    <contour>
      <point x="573.2" y="403" type="curve" smooth="yes"/>
      <point x="573.2" y="254"/>
      <point x="388.76" y="210"/>
      <point x="211.74" y="193" type="curve"/>
      <point x="215.98" y="122"/>
      <point x="257.32" y="99"/>
      <point x="312.44" y="99" type="curve" smooth="yes"/>
      <point x="360.14" y="99"/>
      <point x="403.6" y="115"/>
      <point x="455.54" y="148" type="curve"/>
      <point x="514.9" y="54" type="line"/>
      <point x="453.42" y="12"/>
      <point x="378.16" y="-17"/>
      <point x="291.24" y="-17" type="curve" smooth="yes"/>
      <point x="126.94" y="-17"/>
      <point x="46.3799" y="73"/>
      <point x="46.3799" y="208" type="curve" smooth="yes"/>
      <point x="46.3799" y="352"/>
      <point x="129.06" y="548"/>
      <point x="365.44" y="548" type="curve" smooth="yes"/>
      <point x="502.18" y="548"/>
      <point x="573.2" y="483"/>
    </contour>
    <contour>
      <point x="219.16" y="289" type="curve"/>
      <point x="360.14" y="298"/>
      <point x="406.78" y="346"/>
      <point x="406.78" y="396" type="curve" smooth="yes"/>
      <point x="406.78" y="418"/>
      <point x="394.06" y="443"/>
      <point x="352.72" y="443" type="curve" smooth="yes"/>
      <point x="272.16" y="443"/>
      <point x="234" y="365"/>
    </contour>
  </outline>
</glyph>
<glyph name="f" format="1">
  <advance width="600"/>
  <unicode hex="0066"/>
  <outline>
	<contour>
	  <point x="329" y="759"/>
	  <point x="246" y="683"/>
	  <point x="231" y="578" type="curve" smooth="yes"/>
	  <point x="220" y="498" type="line"/>
	  <point x="109" y="498" type="line"/>
	  <point x="93" y="387" type="line"/>
	  <point x="204" y="387" type="line"/>
	  <point x="150" y="0" type="line"/>
	  <point x="309" y="0" type="line"/>
	  <point x="363" y="387" type="line"/>
	  <point x="519" y="387" type="line"/>
	  <point x="552" y="498" type="line"/>
	  <point x="379" y="498" type="line"/>
	  <point x="388" y="564" type="line" smooth="yes"/>
	  <point x="395" y="616"/>
	  <point x="427" y="641"/>
	  <point x="493" y="641" type="curve" smooth="yes"/>
	  <point x="527" y="641"/>
	  <point x="565" y="637"/>
	  <point x="600" y="623" type="curve"/>
	  <point x="653" y="723" type="line"/>
	  <point x="608" y="743"/>
	  <point x="552" y="759"/>
	  <point x="470" y="759" type="curve" smooth="yes"/>
	</contour>
  </outline>
</glyph>
<glyph name="f" format="2">
  <advance width="600"/>
  <unicode hex="0066"/>
  <outline>
    <contour>
      <point x="178" y="578" type="line" smooth="yes"/>
      <point x="193" y="683"/>
      <point x="276" y="759"/>
      <point x="417" y="759" type="curve" smooth="yes"/>
      <point x="499" y="759"/>
      <point x="555" y="743"/>
      <point x="600" y="723" type="curve"/>
      <point x="547" y="623" type="line"/>
      <point x="512" y="637"/>
      <point x="474" y="641"/>
      <point x="440" y="641" type="curve" smooth="yes"/>
      <point x="374" y="641"/>
      <point x="342" y="616"/>
      <point x="335" y="564" type="curve" smooth="yes"/>
      <point x="326" y="498" type="line"/>
      <point x="499" y="498" type="line"/>
      <point x="466" y="387" type="line"/>
      <point x="310" y="387" type="line"/>
      <point x="256" y="0" type="line"/>
      <point x="97" y="0" type="line"/>
      <point x="151" y="387" type="line"/>
      <point x="40" y="387" type="line"/>
      <point x="56" y="498" type="line"/>
      <point x="167" y="498" type="line"/>
    </contour>
  </outline>
</glyph>
<glyph name="g" format="2">
  <advance width="600"/>
  <unicode hex="0067"/>
  <anchor x="6481.83" y="230.547" name="Anchor-18"/>
  <anchor x="434" y="742" name="Anchor-17"/>
  <anchor x="13036.9" y="301.321" name="Anchor-16"/>
  <anchor x="6481.83" y="230.547" name="Anchor-15"/>
  <anchor x="10564" y="202.556" name="Anchor-14"/>
  <outline>
    <contour>
      <point x="356.39" y="548" type="curve" smooth="yes"/>
      <point x="430.01" y="548"/>
      <point x="507.72" y="530"/>
      <point x="578.272" y="492" type="curve"/>
      <point x="510.787" y="41" type="line" smooth="yes"/>
      <point x="483.18" y="-146"/>
      <point x="396.268" y="-223"/>
      <point x="225.51" y="-223" type="curve" smooth="yes"/>
      <point x="158.025" y="-223"/>
      <point x="80.3154" y="-200"/>
      <point x="21.0098" y="-164" type="curve"/>
      <point x="75.2021" y="-61" type="line"/>
      <point x="125.305" y="-88"/>
      <point x="176.43" y="-103"/>
      <point x="222.442" y="-103" type="curve" smooth="yes"/>
      <point x="281.747" y="-103"/>
      <point x="339.008" y="-86"/>
      <point x="354.345" y="18" type="curve" smooth="yes"/>
      <point x="361.503" y="69" type="line"/>
      <point x="325.715" y="29"/>
      <point x="276.635" y="0"/>
      <point x="218.353" y="0" type="curve" smooth="yes"/>
      <point x="101.787" y="0"/>
      <point x="40.4375" y="84"/>
      <point x="40.4375" y="206" type="curve" smooth="yes"/>
      <point x="40.4375" y="353"/>
      <point x="123.26" y="548"/>
    </contour>
    <contour>
      <point x="351.277" y="436" type="curve" smooth="yes"/>
      <point x="242.893" y="436"/>
      <point x="205.06" y="304"/>
      <point x="205.06" y="210" type="curve" smooth="yes"/>
      <point x="205.06" y="138"/>
      <point x="233.69" y="117"/>
      <point x="268.455" y="117" type="curve" smooth="yes"/>
      <point x="309.355" y="117"/>
      <point x="344.12" y="147"/>
      <point x="374.795" y="191" type="curve"/>
      <point x="412.628" y="426" type="line"/>
      <point x="391.155" y="433"/>
      <point x="374.795" y="436"/>
    </contour>
  </outline>
</glyph>
<glyph name="h" format="1">
  <advance width="600"/>
  <unicode hex="0068"/>
  <outline>
	<contour>
	  <point x="136" y="742" type="line"/>
	  <point x="32" y="0" type="line"/>
	  <point x="192" y="0" type="line"/>
	  <point x="245" y="363" type="line"/>
	  <point x="280" y="403"/>
	  <point x="314" y="431"/>
	  <point x="351" y="431" type="curve" smooth="yes"/>
	  <point x="385" y="431"/>
	  <point x="392" y="413"/>
	  <point x="383" y="349" type="curve" smooth="yes"/>
	  <point x="334" y="0" type="line"/>
	  <point x="494" y="0" type="line"/>
	  <point x="548" y="386" type="line" smooth="yes"/>
	  <point x="562" y="487"/>
	  <point x="516" y="549"/>
	  <point x="418" y="549" type="curve" smooth="yes"/>
	  <point x="363" y="549"/>
	  <point x="309" y="529"/>
	  <point x="257" y="482" type="curve"/>
	  <point x="298" y="758" type="line"/>
	</contour>
	<contour>
	  <point x="300" y="266" type="move" name="center"/>
	</contour>
	<contour>
	  <point x="434" y="742" type="move" name="top"/>
	</contour>
  </outline>
</glyph>
<glyph name="i" format="1">
  <advance width="600"/>
  <unicode hex="0069"/>
  <outline>
	<contour>
	  <point x="127" y="531" type="line"/>
	  <point x="112" y="422" type="line"/>
	  <point x="257" y="422" type="line"/>
	  <point x="213" y="109" type="line"/>
	  <point x="63" y="109" type="line"/>
	  <point x="48" y="0" type="line"/>
	  <point x="493" y="0" type="line"/>
	  <point x="508" y="109" type="line"/>
	  <point x="373" y="109" type="line"/>
	  <point x="432" y="531" type="line"/>
	</contour>
	<contour>
	  <point x="317" y="810"/>
	  <point x="276" y="775"/>
	  <point x="269" y="729" type="curve" smooth="yes"/>
	  <point x="261" y="673"/>
	  <point x="297" y="630"/>
	  <point x="357" y="630" type="curve" smooth="yes"/>
	  <point x="408" y="630"/>
	  <point x="449" y="665"/>
	  <point x="456" y="711" type="curve" smooth="yes"/>
	  <point x="463" y="767"/>
	  <point x="428" y="810"/>
	  <point x="369" y="810" type="curve" smooth="yes"/>
	</contour>
  </outline>
</glyph>
<glyph name="j" format="1">
  <advance width="600"/>
  <unicode hex="006A"/>
  <outline>
	<contour>
	  <point x="160" y="531" type="line"/>
	  <point x="145" y="422" type="line"/>
	  <point x="335" y="422" type="line"/>
	  <point x="297" y="150" type="line" smooth="yes"/>
	  <point x="275" y="-5"/>
	  <point x="181" y="-62"/>
	  <point x="15" y="-99" type="curve"/>
	  <point x="29" y="-223" type="line"/>
	  <point x="284" y="-174"/>
	  <point x="424" y="-80"/>
	  <point x="457" y="152" type="curve" smooth="yes"/>
	  <point x="510" y="531" type="line"/>
	</contour>
	<contour>
	  <point x="388" y="810"/>
	  <point x="347" y="775"/>
	  <point x="340" y="729" type="curve" smooth="yes"/>
	  <point x="332" y="673"/>
	  <point x="368" y="630"/>
	  <point x="428" y="630" type="curve" smooth="yes"/>
	  <point x="479" y="630"/>
	  <point x="520" y="665"/>
	  <point x="527" y="711" type="curve" smooth="yes"/>
	  <point x="534" y="767"/>
	  <point x="499" y="810"/>
	  <point x="440" y="810" type="curve" smooth="yes"/>
	</contour>
	<contour>
	  <point x="444" y="531" type="move" name="top"/>
	</contour>
  </outline>
</glyph>
<glyph name="k" format="2">
  <advance width="600"/>
  <unicode hex="006B"/>
  <anchor x="-19968.9" y="22.6777" name="Anchor-18"/>
  <anchor x="-9650.23" y="712.697" name="Anchor-17"/>
  <anchor x="-11362.2" y="712.697" name="Anchor-16"/>
  <anchor x="-19968.9" y="22.6777" name="Anchor-15"/>
  <anchor x="-13976.6" y="22.6777" name="Anchor-14"/>
  <outline>
    <contour>
      <point x="288.73" y="755.895" type="line"/>
      <point x="242.848" y="460.38" type="line"/>
      <point x="300.749" y="521.075"/>
      <point x="365.206" y="545.95"/>
      <point x="435.124" y="545.95" type="curve" smooth="yes"/>
      <point x="531.264" y="545.95"/>
      <point x="591.351" y="494.21"/>
      <point x="591.351" y="419.585" type="curve" smooth="yes"/>
      <point x="591.351" y="337.995"/>
      <point x="540.004" y="274.315"/>
      <point x="432.94" y="235.51" type="curve"/>
      <point x="541.096" y="0.69043" type="line"/>
      <point x="355.373" y="0.69043" type="line"/>
      <point x="249.401" y="255.41" type="line"/>
      <point x="377.223" y="293.22"/>
      <point x="417.645" y="337"/>
      <point x="417.645" y="392.72" type="curve" smooth="yes"/>
      <point x="417.645" y="421.575"/>
      <point x="400.165" y="436.5"/>
      <point x="368.483" y="436.5" type="curve" smooth="yes"/>
      <point x="323.691" y="436.5"/>
      <point x="270.159" y="404.66"/>
      <point x="222.09" y="328.045" type="curve"/>
      <point x="172.927" y="0.69043" type="line"/>
      <point x="2.5" y="0.69043" type="line"/>
      <point x="116.118" y="738.98" type="line"/>
    </contour>
  </outline>
</glyph>
<glyph name="l" format="1">
  <advance width="600"/>
  <unicode hex="006C"/>
  <outline>
	<contour>
	  <point x="99" y="742" type="line"/>
	  <point x="84" y="633" type="line"/>
	  <point x="240" y="633" type="line"/>
	  <point x="178" y="192" type="line" smooth="yes"/>
	  <point x="160" y="67"/>
	  <point x="209" y="-17"/>
	  <point x="342" y="-17" type="curve" smooth="yes"/>
	  <point x="406" y="-17"/>
	  <point x="458" y="-3"/>
	  <point x="497" y="16" type="curve"/>
	  <point x="468" y="127" type="line"/>
	  <point x="445" y="118"/>
	  <point x="418" y="109"/>
	  <point x="387" y="109" type="curve" smooth="yes"/>
	  <point x="349" y="109"/>
	  <point x="328" y="121"/>
	  <point x="334" y="164" type="curve" smooth="yes"/>
	  <point x="415" y="742" type="line"/>
	</contour>
	<contour>
	  <point x="281" y="0" type="move" name="bottom"/>
	</contour>
	<contour>
	  <point x="390" y="742" type="move" name="top"/>
	</contour>
	<contour>
	  <point x="512" y="742" type="move" name="topright"/>
	</contour>
	<contour>
	  <point x="602" y="383" type="move" name="center"/>
	</contour>
  </outline>
</glyph>
<glyph name="m" format="2">
  <advance width="600"/>
  <unicode hex="006D"/>
  <outline>
    <contour>
      <point x="374" y="485" type="curve"/>
      <point x="413" y="526"/>
      <point x="453" y="549"/>
      <point x="496" y="549" type="curve" smooth="yes"/>
      <point x="576" y="549"/>
      <point x="607" y="498"/>
      <point x="591" y="389" type="curve" smooth="yes"/>
      <point x="537" y="0" type="line"/>
      <point x="400" y="0" type="line"/>
      <point x="453" y="379" type="line" smooth="yes"/>
      <point x="458" y="415"/>
      <point x="457" y="425"/>
      <point x="440" y="425" type="curve" smooth="yes"/>
      <point x="420" y="425"/>
      <point x="401" y="414"/>
      <point x="376" y="388" type="curve"/>
      <point x="320" y="0" type="line"/>
      <point x="208" y="0" type="line"/>
      <point x="261" y="379" type="line" smooth="yes"/>
      <point x="266" y="415"/>
      <point x="265" y="425"/>
      <point x="248" y="425" type="curve" smooth="yes"/>
      <point x="228" y="425"/>
      <point x="209" y="414"/>
      <point x="184" y="388" type="curve"/>
      <point x="128" y="0" type="line"/>
      <point x="0" y="0" type="line"/>
      <point x="77" y="534" type="line"/>
      <point x="179" y="531" type="line"/>
      <point x="183" y="484" type="line"/>
      <point x="222" y="529"/>
      <point x="255" y="549"/>
      <point x="298" y="549" type="curve" smooth="yes"/>
      <point x="342" y="549"/>
      <point x="369" y="525"/>
    </contour>
  </outline>
</glyph>
<glyph name="n" format="1">
  <advance width="600"/>
  <unicode hex="006E"/>
  <outline>
	<contour>
	  <point x="192" y="0" type="line"/>
	  <point x="245" y="363" type="line"/>
	  <point x="280" y="403"/>
	  <point x="314" y="431"/>
	  <point x="351" y="431" type="curve" smooth="yes"/>
	  <point x="385" y="431"/>
	  <point x="392" y="413"/>
	  <point x="383" y="349" type="curve" smooth="yes"/>
	  <point x="334" y="0" type="line"/>
	  <point x="494" y="0" type="line"/>
	  <point x="548" y="386" type="line" smooth="yes"/>
	  <point x="562" y="487"/>
	  <point x="516" y="549"/>
	  <point x="418" y="549" type="curve" smooth="yes"/>
	  <point x="359" y="549"/>
	  <point x="302" y="526"/>
	  <point x="247" y="473" type="curve"/>
	  <point x="246" y="531" type="line"/>
	  <point x="106" y="531" type="line"/>
	  <point x="32" y="0" type="line"/>
	</contour>
	<contour>
	  <point x="371" y="518" type="move" name="top"/>
	</contour>
	<contour>
	  <point x="227" y="0" type="move" name="bottom"/>
	</contour>
	<contour>
	  <point x="227" y="0" type="move" name="bottomAttach"/>
	</contour>
  </outline>
</glyph>
<glyph name="o" format="1">
  <advance width="600"/>
  <unicode hex="006F"/>
  <outline>
	<contour>
	  <point x="174" y="549"/>
	  <point x="65" y="439"/>
	  <point x="42" y="275" type="curve" smooth="yes"/>
	  <point x="16" y="91"/>
	  <point x="100" y="-17"/>
	  <point x="267" y="-17" type="curve" smooth="yes"/>
	  <point x="426" y="-17"/>
	  <point x="534" y="85"/>
	  <point x="558" y="258" type="curve" smooth="yes"/>
	  <point x="583" y="433"/>
	  <point x="501" y="549"/>
	  <point x="333" y="549" type="curve" smooth="yes"/>
	</contour>
	<contour>
	  <point x="390" y="431"/>
	  <point x="411" y="385"/>
	  <point x="395" y="276" type="curve" smooth="yes"/>
	  <point x="378" y="153"/>
	  <point x="338" y="100"/>
	  <point x="270" y="100" type="curve" smooth="yes"/>
	  <point x="210" y="100"/>
	  <point x="189" y="145"/>
	  <point x="205" y="257" type="curve" smooth="yes"/>
	  <point x="222" y="377"/>
	  <point x="262" y="431"/>
	  <point x="330" y="431" type="curve" smooth="yes"/>
	</contour>
	<contour>
	  <point x="374" y="531" type="move" name="top"/>
	</contour>
  </outline>
</glyph>
<glyph name="p" format="1">
  <advance width="600"/>
  <unicode hex="0070"/>
  <outline>
	<contour>
	  <point x="352" y="549"/>
	  <point x="296" y="531"/>
	  <point x="246" y="476" type="curve"/>
	  <point x="248" y="531" type="line"/>
	  <point x="106" y="531" type="line"/>
	  <point x="0" y="-222" type="line"/>
	  <point x="163" y="-205" type="line"/>
	  <point x="199" y="41" type="line"/>
	  <point x="226" y="5"/>
	  <point x="266" y="-17"/>
	  <point x="322" y="-17" type="curve" smooth="yes"/>
	  <point x="447" y="-17"/>
	  <point x="536" y="99"/>
	  <point x="558" y="258" type="curve" smooth="yes"/>
	  <point x="583" y="436"/>
	  <point x="540" y="549"/>
	  <point x="398" y="549" type="curve" smooth="yes"/>
	</contour>
	<contour>
	  <point x="390" y="431"/>
	  <point x="413" y="401"/>
	  <point x="395" y="274" type="curve" smooth="yes"/>
	  <point x="378" y="150"/>
	  <point x="335" y="100"/>
	  <point x="276" y="100" type="curve" smooth="yes"/>
	  <point x="247" y="100"/>
	  <point x="227" y="111"/>
	  <point x="210" y="143" type="curve"/>
	  <point x="245" y="366" type="line"/>
	  <point x="273" y="404"/>
	  <point x="305" y="431"/>
	  <point x="345" y="431" type="curve" smooth="yes"/>
	</contour>
  </outline>
</glyph>
<glyph name="q" format="2">
  <advance width="600"/>
  <unicode hex="0071"/>
  <anchor x="50.9434" y="0" name="Anchor-18"/>
  <anchor x="510.801" y="742" name="Anchor-17"/>
  <anchor x="406.822" y="531" name="Anchor-16"/>
  <anchor x="50.9434" y="0" name="Anchor-15"/>
  <anchor x="269.617" y="-210" name="Anchor-14"/>
  <outline>
    <contour>
      <point x="313.92" y="-223" type="line"/>
      <point x="352.68" y="47" type="line"/>
      <point x="331.26" y="19"/>
      <point x="278.22" y="-17"/>
      <point x="212.94" y="-17" type="curve" smooth="yes"/>
      <point x="99.7197" y="-17"/>
      <point x="38.5195" y="66"/>
      <point x="38.5195" y="194" type="curve" smooth="yes"/>
      <point x="38.5195" y="352"/>
      <point x="122.16" y="548"/>
      <point x="350.64" y="548" type="curve" smooth="yes"/>
      <point x="423.06" y="548"/>
      <point x="499.56" y="532"/>
      <point x="573" y="492" type="curve"/>
      <point x="473.04" y="-206" type="line"/>
    </contour>
    <contour>
      <point x="265.98" y="99" type="curve" smooth="yes"/>
      <point x="305.76" y="99"/>
      <point x="338.4" y="127"/>
      <point x="369" y="173" type="curve"/>
      <point x="406.74" y="426" type="line"/>
      <point x="386.34" y="433"/>
      <point x="370.02" y="436"/>
      <point x="346.56" y="436" type="curve" smooth="yes"/>
      <point x="240.48" y="436"/>
      <point x="202.74" y="298"/>
      <point x="202.74" y="195" type="curve" smooth="yes"/>
      <point x="202.74" y="120"/>
      <point x="229.26" y="99"/>
    </contour>
  </outline>
</glyph>
<glyph name="r" format="1">
  <advance width="600"/>
  <unicode hex="0072"/>
  <outline>
	<contour>
	  <point x="457" y="109" type="line"/>
	  <point x="322" y="109" type="line"/>
	  <point x="345" y="263" type="line"/>
	  <point x="372" y="334"/>
	  <point x="419" y="391"/>
	  <point x="489" y="391" type="curve" smooth="yes"/>
	  <point x="509" y="391"/>
	  <point x="526" y="389"/>
	  <point x="545" y="384" type="curve"/>
	  <point x="586" y="537" type="line"/>
	  <point x="564" y="543"/>
	  <point x="549" y="547"/>
	  <point x="518" y="547" type="curve" smooth="yes"/>
	  <point x="457" y="547"/>
	  <point x="396" y="507"/>
	  <point x="362" y="436" type="curve"/>
	  <point x="363" y="531" type="line"/>
	  <point x="111" y="531" type="line"/>
	  <point x="96" y="422" type="line"/>
	  <point x="206" y="422" type="line"/>
	  <point x="162" y="109" type="line"/>
	  <point x="52" y="109" type="line"/>
	  <point x="37" y="0" type="line"/>
	  <point x="442" y="0" type="line"/>
	</contour>
	<contour>
	  <point x="389" y="531" type="move" name="top"/>
	</contour>
	<contour>
	  <point x="190" y="0" type="move" name="bottom"/>
	</contour>
  </outline>
</glyph>
<glyph name="s" format="1">
  <advance width="600"/>
  <unicode hex="0073"/>
  <outline>
	<contour>
	  <point x="194" y="97"/>
	  <point x="144" y="118"/>
	  <point x="108" y="150" type="curve"/>
	  <point x="20" y="66" type="line"/>
	  <point x="70" y="18"/>
	  <point x="144" y="-17"/>
	  <point x="251" y="-17" type="curve" smooth="yes"/>
	  <point x="383" y="-17"/>
	  <point x="504" y="38"/>
	  <point x="520" y="150" type="curve" smooth="yes"/>
	  <point x="535" y="259"/>
	  <point x="470" y="297"/>
	  <point x="368" y="324" type="curve" smooth="yes"/>
	  <point x="272" y="356"/>
	  <point x="255" y="364"/>
	  <point x="258" y="386" type="curve" smooth="yes"/>
	  <point x="262" y="418"/>
	  <point x="292" y="435"/>
	  <point x="347" y="435" type="curve" smooth="yes"/>
	  <point x="394" y="435"/>
	  <point x="444" y="419"/>
	  <point x="484" y="392" type="curve"/>
	  <point x="556" y="481" type="line"/>
	  <point x="508" y="519"/>
	  <point x="443" y="549"/>
	  <point x="344" y="549" type="curve" smooth="yes"/>
	  <point x="198" y="549"/>
	  <point x="111" y="483"/>
	  <point x="98" y="393" type="curve" smooth="yes"/>
	  <point x="84" y="294"/>
	  <point x="148" y="248"/>
	  <point x="244" y="223" type="curve" smooth="yes"/>
	  <point x="343" y="193"/>
	  <point x="359" y="184"/>
	  <point x="354" y="155" type="curve" smooth="yes"/>
	  <point x="349" y="117"/>
	  <point x="308" y="97"/>
	  <point x="252" y="97" type="curve" smooth="yes"/>
	</contour>
	<contour>
	  <point x="387" y="531" type="move" name="top"/>
	</contour>
	<contour>
	  <point x="227" y="0" type="move" name="bottom"/>
	</contour>
  </outline>
</glyph>
<glyph name="t" format="1">
  <advance width="600"/>
  <unicode hex="0074"/>
  <outline>
	<contour>
	  <point x="474" y="135" type="line"/>
	  <point x="448" y="121"/>
	  <point x="415" y="109"/>
	  <point x="374" y="109" type="curve" smooth="yes"/>
	  <point x="326" y="109"/>
	  <point x="308" y="125"/>
	  <point x="316" y="178" type="curve" smooth="yes"/>
	  <point x="350" y="421" type="line"/>
	  <point x="505" y="421" type="line"/>
	  <point x="536" y="531" type="line"/>
	  <point x="365" y="531" type="line"/>
	  <point x="384" y="665" type="line"/>
	  <point x="221" y="646" type="line"/>
	  <point x="205" y="531" type="line"/>
	  <point x="94" y="531" type="line"/>
	  <point x="79" y="421" type="line"/>
	  <point x="190" y="421" type="line"/>
	  <point x="157" y="186" type="line" smooth="yes"/>
	  <point x="140" y="63"/>
	  <point x="197" y="-17"/>
	  <point x="341" y="-17" type="curve" smooth="yes"/>
	  <point x="411" y="-17"/>
	  <point x="473" y="2"/>
	  <point x="519" y="29" type="curve"/>
	</contour>
	<contour>
	  <point x="300" y="266" type="move" name="center"/>
	</contour>
	<contour>
	  <point x="286" y="0" type="move" name="bottom"/>
	</contour>
	<contour>
	  <point x="489" y="742" type="move" name="topright"/>
	</contour>
  </outline>
</glyph>
<glyph name="u" format="1">
  <advance width="600"/>
  <unicode hex="0075"/>
  <outline>
	<contour>
	  <point x="106" y="531" type="line"/>
	  <point x="53" y="152" type="line" smooth="yes"/>
	  <point x="39" y="51"/>
	  <point x="81" y="-17"/>
	  <point x="188" y="-17" type="curve" smooth="yes"/>
	  <point x="248" y="-17"/>
	  <point x="314" y="6"/>
	  <point x="357" y="58" type="curve"/>
	  <point x="354" y="0" type="line"/>
	  <point x="494" y="0" type="line"/>
	  <point x="568" y="531" type="line"/>
	  <point x="408" y="531" type="line"/>
	  <point x="354" y="162" type="line"/>
	  <point x="328" y="127"/>
	  <point x="288" y="101"/>
	  <point x="252" y="101" type="curve" smooth="yes"/>
	  <point x="223" y="101"/>
	  <point x="208" y="113"/>
	  <point x="215" y="164" type="curve" smooth="yes"/>
	  <point x="266" y="531" type="line"/>
	</contour>
	<contour>
	  <point x="467" y="0" type="move" name="ogonek"/>
	</contour>
	<contour>
	  <point x="374" y="531" type="move" name="top"/>
	</contour>
  </outline>
</glyph>
<glyph name="v" format="1">
  <advance width="600"/>
  <unicode hex="0076"/>
  <outline>
	<contour>
	  <point x="446" y="531" type="line"/>
	  <point x="281" y="122" type="line"/>
	  <point x="237" y="531" type="line"/>
	  <point x="66" y="531" type="line"/>
	  <point x="171" y="0" type="line"/>
	  <point x="359" y="0" type="line"/>
	  <point x="610" y="531" type="line"/>
	</contour>
  </outline>
</glyph>
<glyph name="w" format="2">
  <advance width="600"/>
  <unicode hex="0077"/>
  <anchor x="339" y="531" name="Anchor-0"/>
  <outline>
    <contour>
      <point x="599" y="531" type="line"/>
      <point x="450" y="0" type="line"/>
      <point x="274" y="0" type="line"/>
      <point x="278" y="338" type="line"/>
      <point x="274" y="338" type="line"/>
      <point x="182" y="0" type="line"/>
      <point x="9" y="0" type="line"/>
      <point x="5" y="531" type="line"/>
      <point x="151" y="531" type="line"/>
      <point x="124" y="117" type="line"/>
      <point x="128" y="117" type="line"/>
      <point x="231" y="464" type="line"/>
      <point x="365" y="464" type="line"/>
      <point x="363" y="119" type="line"/>
      <point x="367" y="119" type="line"/>
      <point x="458" y="531" type="line"/>
    </contour>
  </outline>
</glyph>
<glyph name="x" format="2">
  <advance width="600"/>
  <unicode hex="0078"/>
  <outline>
    <contour>
      <point x="294" y="198" type="line"/>
      <point x="165" y="0" type="line"/>
      <point x="0" y="0" type="line"/>
      <point x="212" y="279" type="line"/>
      <point x="83" y="531" type="line"/>
      <point x="260" y="531" type="line"/>
      <point x="320" y="362" type="line"/>
      <point x="425" y="531" type="line"/>
      <point x="597" y="531" type="line"/>
      <point x="406" y="285" type="line"/>
      <point x="548" y="0" type="line"/>
      <point x="369" y="0" type="line"/>
    </contour>
  </outline>
</glyph>
<glyph name="y" format="1">
  <advance width="600"/>
  <unicode hex="0079"/>
  <outline>
	<contour>
	  <point x="445" y="531" type="line"/>
	  <point x="274" y="102" type="line"/>
	  <point x="232" y="531" type="line"/>
	  <point x="65" y="531" type="line"/>
	  <point x="159" y="0" type="line"/>
	  <point x="212" y="4" type="line"/>
	  <point x="174" y="-64"/>
	  <point x="129" y="-96"/>
	  <point x="23" y="-109" type="curve"/>
	  <point x="32" y="-223" type="line"/>
	  <point x="195" y="-214"/>
	  <point x="292" y="-146"/>
	  <point x="359" y="-4" type="curve" smooth="yes"/>
	  <point x="611" y="531" type="line"/>
	</contour>
	<contour>
	  <point x="374" y="531" type="move" name="top"/>
	</contour>
  </outline>
</glyph>
<glyph name="z" format="1">
  <advance width="600"/>
  <unicode hex="007A"/>
  <outline>
	<contour>
	  <point x="543" y="419" type="line"/>
	  <point x="557" y="531" type="line"/>
	  <point x="130" y="531" type="line"/>
	  <point x="113" y="411" type="line"/>
	  <point x="353" y="411" type="line"/>
	  <point x="49" y="113" type="line"/>
	  <point x="34" y="0" type="line"/>
	  <point x="473" y="0" type="line"/>
	  <point x="505" y="121" type="line"/>
	  <point x="241" y="121" type="line"/>
	</contour>
	<contour>
	  <point x="381" y="531" type="move" name="top"/>
	</contour>
  </outline>
</glyph>
<glyph name="braceleft" format="1">
  <advance width="600"/>
  <unicode hex="007B"/>
  <outline>
	<contour>
	  <point x="359" y="840"/>
	  <point x="286" y="795"/>
	  <point x="282" y="658" type="curve" smooth="yes"/>
	  <point x="278" y="517" type="line" smooth="yes"/>
	  <point x="275" y="441"/>
	  <point x="206" y="415"/>
	  <point x="123" y="415" type="curve"/>
	  <point x="111" y="285" type="line"/>
	  <point x="195" y="285"/>
	  <point x="250" y="267"/>
	  <point x="232" y="191" type="curve" smooth="yes"/>
	  <point x="196" y="49" type="line" smooth="yes"/>
	  <point x="164" y="-86"/>
	  <point x="227" y="-140"/>
	  <point x="413" y="-140" type="curve"/>
	  <point x="423" y="-29" type="line"/>
	  <point x="363" y="-29"/>
	  <point x="330" y="-20"/>
	  <point x="342" y="30" type="curve" smooth="yes"/>
	  <point x="378" y="176" type="line" smooth="yes"/>
	  <point x="405" y="290"/>
	  <point x="347" y="333"/>
	  <point x="245" y="349" type="curve"/>
	  <point x="352" y="364"/>
	  <point x="421" y="403"/>
	  <point x="425" y="516" type="curve" smooth="yes"/>
	  <point x="430" y="662" type="line" smooth="yes"/>
	  <point x="433" y="712"/>
	  <point x="474" y="729"/>
	  <point x="535" y="729" type="curve"/>
	  <point x="545" y="840" type="line"/>
	</contour>
  </outline>
</glyph>
<glyph name="bar" format="1">
  <advance width="600"/>
  <unicode hex="007C"/>
  <outline>
	<contour>
	  <point x="302" y="810" type="line"/>
	  <point x="173" y="-105" type="line"/>
	  <point x="322" y="-105" type="line"/>
	  <point x="451" y="810" type="line"/>
	</contour>
  </outline>
</glyph>
<glyph name="braceright" format="1">
  <advance width="600"/>
  <unicode hex="007D"/>
  <outline>
	<contour>
	  <point x="201" y="729" type="line"/>
	  <point x="261" y="729"/>
	  <point x="294" y="720"/>
	  <point x="282" y="670" type="curve" smooth="yes"/>
	  <point x="245" y="524" type="line" smooth="yes"/>
	  <point x="218" y="410"/>
	  <point x="276" y="367"/>
	  <point x="379" y="351" type="curve"/>
	  <point x="272" y="336"/>
	  <point x="202" y="297"/>
	  <point x="199" y="184" type="curve" smooth="yes"/>
	  <point x="194" y="38" type="line" smooth="yes"/>
	  <point x="191" y="-12"/>
	  <point x="150" y="-29"/>
	  <point x="89" y="-29" type="curve"/>
	  <point x="79" y="-140" type="line"/>
	  <point x="265" y="-140"/>
	  <point x="337" y="-95"/>
	  <point x="342" y="42" type="curve" smooth="yes"/>
	  <point x="345" y="183" type="line" smooth="yes"/>
	  <point x="349" y="259"/>
	  <point x="418" y="285"/>
	  <point x="501" y="285" type="curve"/>
	  <point x="513" y="415" type="line"/>
	  <point x="429" y="415"/>
	  <point x="374" y="433"/>
	  <point x="392" y="509" type="curve" smooth="yes"/>
	  <point x="428" y="651" type="line" smooth="yes"/>
	  <point x="460" y="786"/>
	  <point x="397" y="840"/>
	  <point x="211" y="840" type="curve"/>
	</contour>
  </outline>
</glyph>
<glyph name="asciitilde" format="1">
  <advance width="600"/>
  <unicode hex="007E"/>
  <outline>
	<contour>
	  <point x="133" y="431"/>
	  <point x="74" y="360"/>
	  <point x="21" y="276" type="curve"/>
	  <point x="107" y="228" type="line"/>
	  <point x="139" y="276"/>
	  <point x="169" y="310"/>
	  <point x="212" y="310" type="curve" smooth="yes"/>
	  <point x="268" y="310"/>
	  <point x="296" y="210"/>
	  <point x="396" y="210" type="curve" smooth="yes"/>
	  <point x="481" y="210"/>
	  <point x="538" y="271"/>
	  <point x="594" y="365" type="curve"/>
	  <point x="509" y="413" type="line"/>
	  <point x="476" y="362"/>
	  <point x="445" y="331"/>
	  <point x="403" y="331" type="curve" smooth="yes"/>
	  <point x="347" y="331"/>
	  <point x="321" y="431"/>
	  <point x="219" y="431" type="curve" smooth="yes"/>
	</contour>
  </outline>
</glyph>
<glyph name="exclamdown" format="1">
  <advance width="600"/>
  <unicode hex="00A1"/>
  <outline>
	<contour>
	  <point x="232" y="239" type="line"/>
	  <point x="149" y="-205" type="line"/>
	  <point x="320" y="-205" type="line"/>
	  <point x="360" y="239" type="line"/>
	</contour>
	<contour>
	  <point x="282" y="512"/>
	  <point x="238" y="474"/>
	  <point x="232" y="429" type="curve" smooth="yes"/>
	  <point x="224" y="375"/>
	  <point x="262" y="330"/>
	  <point x="316" y="330" type="curve" smooth="yes"/>
	  <point x="363" y="330"/>
	  <point x="405" y="367"/>
	  <point x="411" y="411" type="curve" smooth="yes"/>
	  <point x="419" y="466"/>
	  <point x="383" y="512"/>
	  <point x="328" y="512" type="curve" smooth="yes"/>
	</contour>
  </outline>
</glyph>
<glyph name="cent" format="1">
  <advance width="600"/>
  <unicode hex="00A2"/>
  <outline>
	<contour>
	  <point x="339" y="692" type="line"/>
	  <point x="315" y="542" type="line"/>
	  <point x="184" y="516"/>
	  <point x="98" y="410"/>
	  <point x="79" y="271" type="curve" smooth="yes"/>
	  <point x="58" y="123"/>
	  <point x="118" y="17"/>
	  <point x="243" y="-8" type="curve"/>
	  <point x="218" y="-161" type="line"/>
	  <point x="333" y="-161" type="line"/>
	  <point x="357" y="-13" type="line"/>
	  <point x="406" y="-5"/>
	  <point x="450" y="12"/>
	  <point x="494" y="43" type="curve"/>
	  <point x="430" y="151" type="line"/>
	  <point x="389" y="123"/>
	  <point x="361" y="109"/>
	  <point x="322" y="109" type="curve" smooth="yes"/>
	  <point x="262" y="109"/>
	  <point x="227" y="140"/>
	  <point x="243" y="253" type="curve" smooth="yes"/>
	  <point x="261" y="377"/>
	  <point x="310" y="426"/>
	  <point x="382" y="426" type="curve" smooth="yes"/>
	  <point x="412" y="426"/>
	  <point x="442" y="419"/>
	  <point x="473" y="390" type="curve"/>
	  <point x="551" y="480" type="line"/>
	  <point x="516" y="512"/>
	  <point x="476" y="534"/>
	  <point x="429" y="542" type="curve"/>
	  <point x="453" y="692" type="line"/>
	</contour>
	<contour>
	  <point x="260" y="0" type="move" name="bottomAttach"/>
	</contour>
  </outline>
</glyph>
<glyph name="sterling" format="1">
  <advance width="600"/>
  <unicode hex="00A3"/>
  <outline>
	<contour>
	  <point x="264" y="711"/>
	  <point x="175" y="626"/>
	  <point x="158" y="506" type="curve" smooth="yes"/>
	  <point x="143" y="402" type="line"/>
	  <point x="70" y="402" type="line"/>
	  <point x="59" y="319" type="line"/>
	  <point x="132" y="319" type="line"/>
	  <point x="122" y="253" type="line" smooth="yes"/>
	  <point x="112" y="178"/>
	  <point x="96" y="140"/>
	  <point x="17" y="116" type="curve"/>
	  <point x="4" y="0" type="line"/>
	  <point x="487" y="0" type="line"/>
	  <point x="523" y="121" type="line"/>
	  <point x="200" y="119" type="line"/>
	  <point x="256" y="148"/>
	  <point x="271" y="189"/>
	  <point x="278" y="240" type="curve" smooth="yes"/>
	  <point x="290" y="319" type="line"/>
	  <point x="472" y="319" type="line"/>
	  <point x="483" y="402" type="line"/>
	  <point x="301" y="402" type="line"/>
	  <point x="314" y="494" type="line" smooth="yes"/>
	  <point x="323" y="559"/>
	  <point x="362" y="591"/>
	  <point x="419" y="591" type="curve" smooth="yes"/>
	  <point x="455" y="591"/>
	  <point x="480" y="581"/>
	  <point x="502" y="542" type="curve"/>
	  <point x="606" y="605" type="line"/>
	  <point x="565" y="674"/>
	  <point x="504" y="711"/>
	  <point x="409" y="711" type="curve" smooth="yes"/>
	</contour>
  </outline>
</glyph>
<glyph name="currency" format="1">
  <advance width="600"/>
  <unicode hex="00A4"/>
  <outline>
	<contour>
	  <point x="70" y="541" type="line"/>
	  <point x="137" y="465" type="line"/>
	  <point x="111" y="432"/>
	  <point x="98" y="391"/>
	  <point x="92" y="351" type="curve" smooth="yes"/>
	  <point x="85" y="299"/>
	  <point x="92" y="259"/>
	  <point x="108" y="227" type="curve"/>
	  <point x="14" y="142" type="line"/>
	  <point x="77" y="71" type="line"/>
	  <point x="170" y="153" type="line"/>
	  <point x="201" y="134"/>
	  <point x="240" y="123"/>
	  <point x="288" y="123" type="curve" smooth="yes"/>
	  <point x="327" y="123"/>
	  <point x="369" y="130"/>
	  <point x="405" y="149" type="curve"/>
	  <point x="473" y="73" type="line"/>
	  <point x="552" y="143" type="line"/>
	  <point x="484" y="218" type="line"/>
	  <point x="510" y="250"/>
	  <point x="527" y="291"/>
	  <point x="532" y="333" type="curve" smooth="yes"/>
	  <point x="540" y="384"/>
	  <point x="531" y="424"/>
	  <point x="516" y="457" type="curve"/>
	  <point x="608" y="540" type="line"/>
	  <point x="545" y="611" type="line"/>
	  <point x="451" y="529" type="line"/>
	  <point x="421" y="549"/>
	  <point x="382" y="560"/>
	  <point x="335" y="560" type="curve" smooth="yes"/>
	  <point x="294" y="560"/>
	  <point x="253" y="553"/>
	  <point x="218" y="533" type="curve"/>
	  <point x="149" y="612" type="line"/>
	</contour>
	<contour>
	  <point x="394" y="452"/>
	  <point x="418" y="415"/>
	  <point x="409" y="351" type="curve" smooth="yes"/>
	  <point x="398" y="276"/>
	  <point x="357" y="231"/>
	  <point x="289" y="231" type="curve" smooth="yes"/>
	  <point x="228" y="231"/>
	  <point x="203" y="268"/>
	  <point x="212" y="333" type="curve" smooth="yes"/>
	  <point x="223" y="407"/>
	  <point x="265" y="452"/>
	  <point x="334" y="452" type="curve" smooth="yes"/>
	</contour>
  </outline>
</glyph>
<glyph name="yen" format="1">
  <advance width="600"/>
  <unicode hex="00A5"/>
  <outline>
	<contour>
	  <point x="487" y="693" type="line"/>
	  <point x="325" y="409" type="line"/>
	  <point x="321" y="409" type="line"/>
	  <point x="236" y="693" type="line"/>
	  <point x="68" y="693" type="line"/>
	  <point x="198" y="352" type="line"/>
	  <point x="101" y="352" type="line"/>
	  <point x="90" y="270" type="line"/>
	  <point x="222" y="270" type="line"/>
	  <point x="212" y="202" type="line"/>
	  <point x="80" y="202" type="line"/>
	  <point x="68" y="119" type="line"/>
	  <point x="200" y="119" type="line"/>
	  <point x="184" y="0" type="line"/>
	  <point x="344" y="0" type="line"/>
	  <point x="360" y="119" type="line"/>
	  <point x="494" y="119" type="line"/>
	  <point x="506" y="202" type="line"/>
	  <point x="372" y="202" type="line"/>
	  <point x="382" y="270" type="line"/>
	  <point x="516" y="270" type="line"/>
	  <point x="527" y="352" type="line"/>
	  <point x="429" y="352" type="line"/>
	  <point x="654" y="693" type="line"/>
	</contour>
	<contour>
	  <point x="300" y="0" type="move" name="bottom"/>
	</contour>
  </outline>
</glyph>
<glyph name="brokenbar" format="1">
  <advance width="600"/>
  <unicode hex="00A6"/>
  <outline>
	<contour>
	  <point x="302" y="810" type="line"/>
	  <point x="250" y="446" type="line"/>
	  <point x="399" y="446" type="line"/>
	  <point x="451" y="810" type="line"/>
	</contour>
	<contour>
	  <point x="224" y="259" type="line"/>
	  <point x="173" y="-105" type="line"/>
	  <point x="322" y="-105" type="line"/>
	  <point x="373" y="259" type="line"/>
	</contour>
  </outline>
</glyph>
<glyph name="section" format="1">
  <advance width="600"/>
  <unicode hex="00A7"/>
  <outline>
	<contour>
	  <point x="246" y="711"/>
	  <point x="154" y="646"/>
	  <point x="142" y="557" type="curve" smooth="yes"/>
	  <point x="135" y="506"/>
	  <point x="152" y="467"/>
	  <point x="183" y="439" type="curve"/>
	  <point x="131" y="408"/>
	  <point x="91" y="368"/>
	  <point x="84" y="316" type="curve" smooth="yes"/>
	  <point x="71" y="225"/>
	  <point x="124" y="182"/>
	  <point x="218" y="155" type="curve" smooth="yes"/>
	  <point x="317" y="120"/>
	  <point x="325" y="108"/>
	  <point x="321" y="82" type="curve" smooth="yes"/>
	  <point x="317" y="50"/>
	  <point x="281" y="27"/>
	  <point x="228" y="27" type="curve" smooth="yes"/>
	  <point x="185" y="27"/>
	  <point x="145" y="41"/>
	  <point x="106" y="68" type="curve"/>
	  <point x="44" y="-25" type="line"/>
	  <point x="89" y="-59"/>
	  <point x="151" y="-84"/>
	  <point x="235" y="-84" type="curve" smooth="yes"/>
	  <point x="367" y="-84"/>
	  <point x="460" y="-21"/>
	  <point x="472" y="69" type="curve" smooth="yes"/>
	  <point x="480" y="123"/>
	  <point x="462" y="161"/>
	  <point x="433" y="187" type="curve"/>
	  <point x="484" y="218"/>
	  <point x="522" y="259"/>
	  <point x="530" y="312" type="curve" smooth="yes"/>
	  <point x="542" y="404"/>
	  <point x="489" y="447"/>
	  <point x="394" y="474" type="curve" smooth="yes"/>
	  <point x="301" y="507"/>
	  <point x="290" y="518"/>
	  <point x="294" y="545" type="curve" smooth="yes"/>
	  <point x="299" y="577"/>
	  <point x="329" y="600"/>
	  <point x="380" y="600" type="curve" smooth="yes"/>
	  <point x="421" y="600"/>
	  <point x="463" y="590"/>
	  <point x="501" y="564" type="curve"/>
	  <point x="564" y="653" type="line"/>
	  <point x="516" y="687"/>
	  <point x="452" y="711"/>
	  <point x="375" y="711" type="curve" smooth="yes"/>
	</contour>
	<contour>
	  <point x="374" y="355"/>
	  <point x="394" y="344"/>
	  <point x="389" y="309" type="curve" smooth="yes"/>
	  <point x="386" y="285"/>
	  <point x="371" y="261"/>
	  <point x="348" y="237" type="curve"/>
	  <point x="240" y="273"/>
	  <point x="219" y="283"/>
	  <point x="225" y="321" type="curve" smooth="yes"/>
	  <point x="228" y="345"/>
	  <point x="241" y="369"/>
	  <point x="265" y="391" type="curve"/>
	</contour>
  </outline>
</glyph>
<glyph name="dieresis" format="1">
  <advance width="600"/>
  <unicode hex="00A8"/>
  <outline>
	<contour>
	  <point x="286" y="637"/>
	  <point x="324" y="668"/>
	  <point x="329" y="709" type="curve" smooth="yes"/>
	  <point x="336" y="759"/>
	  <point x="303" y="798"/>
	  <point x="252" y="798" type="curve" smooth="yes"/>
	  <point x="210" y="798"/>
	  <point x="171" y="767"/>
	  <point x="166" y="727" type="curve" smooth="yes"/>
	  <point x="159" y="676"/>
	  <point x="193" y="637"/>
	  <point x="243" y="637" type="curve" smooth="yes"/>
	</contour>
	<contour>
	  <point x="518" y="637"/>
	  <point x="556" y="668"/>
	  <point x="561" y="709" type="curve" smooth="yes"/>
	  <point x="568" y="759"/>
	  <point x="535" y="798"/>
	  <point x="484" y="798" type="curve" smooth="yes"/>
	  <point x="443" y="798"/>
	  <point x="403" y="767"/>
	  <point x="398" y="727" type="curve" smooth="yes"/>
	  <point x="391" y="676"/>
	  <point x="426" y="637"/>
	  <point x="475" y="637" type="curve" smooth="yes"/>
	</contour>
	<contour>
	  <point x="428" y="718" type="move" name="top"/>
	</contour>
	<contour>
	  <point x="374" y="531" type="move" name="_top"/>
	</contour>
  </outline>
</glyph>
<glyph name="copyright" format="1">
  <advance width="600"/>
  <unicode hex="00A9"/>
  <outline>
	<contour>
	  <point x="182" y="759"/>
	  <point x="57" y="615"/>
	  <point x="32" y="433" type="curve" smooth="yes"/>
	  <point x="5" y="242"/>
	  <point x="88" y="91"/>
	  <point x="283" y="91" type="curve" smooth="yes"/>
	  <point x="464" y="91"/>
	  <point x="588" y="234"/>
	  <point x="613" y="415" type="curve" smooth="yes"/>
	  <point x="640" y="607"/>
	  <point x="552" y="759"/>
	  <point x="363" y="759" type="curve" smooth="yes"/>
	</contour>
	<contour>
	  <point x="258" y="622"/>
	  <point x="181" y="552"/>
	  <point x="165" y="434" type="curve" smooth="yes"/>
	  <point x="146" y="302"/>
	  <point x="204" y="227"/>
	  <point x="313" y="227" type="curve" smooth="yes"/>
	  <point x="359" y="227"/>
	  <point x="399" y="245"/>
	  <point x="434" y="274" type="curve"/>
	  <point x="393" y="346" type="line"/>
	  <point x="376" y="331"/>
	  <point x="352" y="316"/>
	  <point x="321" y="316" type="curve" smooth="yes"/>
	  <point x="285" y="316"/>
	  <point x="266" y="342"/>
	  <point x="276" y="416" type="curve" smooth="yes"/>
	  <point x="288" y="501"/>
	  <point x="324" y="535"/>
	  <point x="366" y="535" type="curve" smooth="yes"/>
	  <point x="384" y="535"/>
	  <point x="399" y="530"/>
	  <point x="415" y="516" type="curve"/>
	  <point x="468" y="571" type="line"/>
	  <point x="440" y="604"/>
	  <point x="406" y="622"/>
	  <point x="353" y="622" type="curve" smooth="yes"/>
	</contour>
	<contour>
	  <point x="509" y="689"/>
	  <point x="552" y="574"/>
	  <point x="533" y="433" type="curve" smooth="yes"/>
	  <point x="511" y="283"/>
	  <point x="427" y="161"/>
	  <point x="279" y="161" type="curve" smooth="yes"/>
	  <point x="138" y="161"/>
	  <point x="93" y="275"/>
	  <point x="113" y="415" type="curve" smooth="yes"/>
	  <point x="134" y="566"/>
	  <point x="219" y="689"/>
	  <point x="368" y="689" type="curve" smooth="yes"/>
	</contour>
  </outline>
</glyph>
<glyph name="ordfeminine" format="1">
  <advance width="600"/>
  <unicode hex="00AA"/>
  <outline>
	<contour>
	  <point x="311" y="759"/>
	  <point x="247" y="750"/>
	  <point x="183" y="729" type="curve"/>
	  <point x="210" y="636" type="line"/>
	  <point x="258" y="652"/>
	  <point x="304" y="660"/>
	  <point x="333" y="660" type="curve" smooth="yes"/>
	  <point x="388" y="660"/>
	  <point x="407" y="653"/>
	  <point x="401" y="606" type="curve" smooth="yes"/>
	  <point x="399" y="590" type="line"/>
	  <point x="343" y="590" type="line" smooth="yes"/>
	  <point x="204" y="590"/>
	  <point x="121" y="538"/>
	  <point x="109" y="452" type="curve" smooth="yes"/>
	  <point x="97" y="365"/>
	  <point x="152" y="304"/>
	  <point x="248" y="304" type="curve" smooth="yes"/>
	  <point x="297" y="304"/>
	  <point x="347" y="322"/>
	  <point x="388" y="365" type="curve"/>
	  <point x="401" y="332"/>
	  <point x="434" y="312"/>
	  <point x="491" y="306" type="curve"/>
	  <point x="529" y="394" type="line"/>
	  <point x="508" y="401"/>
	  <point x="503" y="410"/>
	  <point x="507" y="439" type="curve" smooth="yes"/>
	  <point x="530" y="602" type="line" smooth="yes"/>
	  <point x="544" y="701"/>
	  <point x="496" y="759"/>
	  <point x="353" y="759" type="curve" smooth="yes"/>
	</contour>
	<contour>
	  <point x="78" y="109" type="line"/>
	  <point x="63" y="0" type="line"/>
	  <point x="477" y="0" type="line"/>
	  <point x="492" y="109" type="line"/>
	</contour>
	<contour>
	  <point x="377" y="449" type="line"/>
	  <point x="354" y="420"/>
	  <point x="321" y="398"/>
	  <point x="288" y="398" type="curve" smooth="yes"/>
	  <point x="260" y="398"/>
	  <point x="247" y="411"/>
	  <point x="251" y="439" type="curve" smooth="yes"/>
	  <point x="258" y="484"/>
	  <point x="290" y="507"/>
	  <point x="359" y="507" type="curve" smooth="yes"/>
	  <point x="387" y="507" type="line"/>
	</contour>
  </outline>
</glyph>
<glyph name="guillemotleft" format="1">
  <advance width="600"/>
  <unicode hex="00AB"/>
  <outline>
	<contour>
	  <point x="201" y="287" type="line"/>
	  <point x="346" y="499" type="line"/>
	  <point x="260" y="557" type="line"/>
	  <point x="60" y="337" type="line"/>
	  <point x="48" y="236" type="line"/>
	  <point x="188" y="16" type="line"/>
	  <point x="286" y="74" type="line"/>
	</contour>
	<contour>
	  <point x="437" y="287" type="line"/>
	  <point x="582" y="499" type="line"/>
	  <point x="496" y="557" type="line"/>
	  <point x="295" y="337" type="line"/>
	  <point x="283" y="236" type="line"/>
	  <point x="424" y="16" type="line"/>
	  <point x="522" y="74" type="line"/>
	</contour>
  </outline>
</glyph>
<glyph name="logicalnot" format="1">
  <advance width="600"/>
  <unicode hex="00AC"/>
  <outline>
	<contour>
	  <point x="98" y="380" type="line"/>
	  <point x="81" y="257" type="line"/>
	  <point x="385" y="257" type="line"/>
	  <point x="363" y="103" type="line"/>
	  <point x="495" y="103" type="line"/>
	  <point x="534" y="380" type="line"/>
	</contour>
  </outline>
</glyph>
<glyph name="softhyphen" format="1">
  <advance width="600"/>
  <unicode hex="00AD"/>
  <outline>
	<contour>
	  <point x="463" y="251" type="line"/>
	  <point x="480" y="375" type="line"/>
	  <point x="150" y="375" type="line"/>
	  <point x="133" y="251" type="line"/>
	</contour>
  </outline>
</glyph>
<glyph name="registered" format="1">
  <advance width="600"/>
  <unicode hex="00AE"/>
  <outline>
	<contour>
	  <point x="209" y="759"/>
	  <point x="77" y="644"/>
	  <point x="56" y="493" type="curve" smooth="yes"/>
	  <point x="33" y="333"/>
	  <point x="138" y="211"/>
	  <point x="300" y="211" type="curve" smooth="yes"/>
	  <point x="452" y="211"/>
	  <point x="583" y="325"/>
	  <point x="604" y="475" type="curve" smooth="yes"/>
	  <point x="627" y="636"/>
	  <point x="523" y="759"/>
	  <point x="363" y="759" type="curve" smooth="yes"/>
	</contour>
	<contour>
	  <point x="478" y="692"/>
	  <point x="545" y="606"/>
	  <point x="529" y="493" type="curve" smooth="yes"/>
	  <point x="512" y="371"/>
	  <point x="414" y="279"/>
	  <point x="296" y="279" type="curve" smooth="yes"/>
	  <point x="185" y="279"/>
	  <point x="116" y="363"/>
	  <point x="131" y="475" type="curve" smooth="yes"/>
	  <point x="149" y="598"/>
	  <point x="249" y="692"/>
	  <point x="368" y="692" type="curve" smooth="yes"/>
	</contour>
	<contour>
	  <point x="245" y="635" type="line"/>
	  <point x="205" y="351" type="line"/>
	  <point x="277" y="351" type="line"/>
	  <point x="291" y="454" type="line"/>
	  <point x="315" y="454" type="line"/>
	  <point x="363" y="351" type="line"/>
	  <point x="444" y="351" type="line"/>
	  <point x="386" y="467" type="line"/>
	  <point x="423" y="480"/>
	  <point x="448" y="505"/>
	  <point x="452" y="538" type="curve" smooth="yes"/>
	  <point x="461" y="603"/>
	  <point x="418" y="635"/>
	  <point x="329" y="635" type="curve" smooth="yes"/>
	</contour>
	<contour>
	  <point x="371" y="581"/>
	  <point x="383" y="574"/>
	  <point x="381" y="558" type="curve" smooth="yes"/>
	  <point x="377" y="527"/>
	  <point x="353" y="512"/>
	  <point x="320" y="512" type="curve" smooth="yes"/>
	  <point x="300" y="512" type="line"/>
	  <point x="309" y="581" type="line"/>
	  <point x="334" y="581" type="line" smooth="yes"/>
	</contour>
  </outline>
</glyph>
<glyph name="degree" format="1">
  <advance width="600"/>
  <unicode hex="00B0"/>
  <outline>
	<contour>
	  <point x="228" y="759"/>
	  <point x="132" y="701"/>
	  <point x="118" y="599" type="curve" smooth="yes"/>
	  <point x="102" y="487"/>
	  <point x="187" y="419"/>
	  <point x="279" y="419" type="curve" smooth="yes"/>
	  <point x="363" y="419"/>
	  <point x="459" y="479"/>
	  <point x="473" y="581" type="curve" smooth="yes"/>
	  <point x="489" y="693"/>
	  <point x="404" y="759"/>
	  <point x="312" y="759" type="curve" smooth="yes"/>
	</contour>
	<contour>
	  <point x="351" y="667"/>
	  <point x="372" y="641"/>
	  <point x="366" y="599" type="curve" smooth="yes"/>
	  <point x="359" y="547"/>
	  <point x="324" y="512"/>
	  <point x="278" y="512" type="curve" smooth="yes"/>
	  <point x="240" y="512"/>
	  <point x="219" y="539"/>
	  <point x="225" y="581" type="curve" smooth="yes"/>
	  <point x="233" y="633"/>
	  <point x="267" y="667"/>
	  <point x="313" y="667" type="curve" smooth="yes"/>
	</contour>
  </outline>
</glyph>
<glyph name="plusminus" format="1">
  <advance width="600"/>
  <unicode hex="00B1"/>
  <outline>
	<contour>
	  <point x="274" y="559" type="line"/>
	  <point x="252" y="402" type="line"/>
	  <point x="101" y="402" type="line"/>
	  <point x="84" y="281" type="line"/>
	  <point x="235" y="281" type="line"/>
	  <point x="220" y="175" type="line"/>
	  <point x="354" y="175" type="line"/>
	  <point x="369" y="281" type="line"/>
	  <point x="520" y="281" type="line"/>
	  <point x="537" y="402" type="line"/>
	  <point x="386" y="402" type="line"/>
	  <point x="408" y="559" type="line"/>
	</contour>
	<contour>
	  <point x="62" y="121" type="line"/>
	  <point x="45" y="0" type="line"/>
	  <point x="481" y="0" type="line"/>
	  <point x="498" y="121" type="line"/>
	</contour>
  </outline>
</glyph>
<glyph name="uni00B5" format="1">
  <advance width="600"/>
  <unicode hex="00B5"/>
  <outline>
	<contour>
	  <point x="402" y="531" type="line"/>
	  <point x="349" y="163" type="line"/>
	  <point x="322" y="129"/>
	  <point x="287" y="103"/>
	  <point x="249" y="103" type="curve" smooth="yes"/>
	  <point x="202" y="103"/>
	  <point x="208" y="141"/>
	  <point x="219" y="225" type="curve" smooth="yes"/>
	  <point x="262" y="531" type="line"/>
	  <point x="103" y="531" type="line"/>
	  <point x="-2" y="-221" type="line"/>
	  <point x="151" y="-205" type="line"/>
	  <point x="163" y="-121" type="line" smooth="yes"/>
	  <point x="172" y="-55"/>
	  <point x="163" y="-19"/>
	  <point x="148" y="32" type="curve"/>
	  <point x="174" y="-1"/>
	  <point x="193" y="-15"/>
	  <point x="234" y="-15" type="curve" smooth="yes"/>
	  <point x="277" y="-15"/>
	  <point x="317" y="12"/>
	  <point x="354" y="64" type="curve"/>
	  <point x="351" y="36"/>
	  <point x="353" y="9"/>
	  <point x="355" y="-10" type="curve"/>
	  <point x="499" y="-4" type="line"/>
	  <point x="500" y="54"/>
	  <point x="504" y="117"/>
	  <point x="514" y="185" type="curve" smooth="yes"/>
	  <point x="562" y="531" type="line"/>
	</contour>
  </outline>
</glyph>
<glyph name="paragraph" format="1">
  <advance width="600"/>
  <unicode hex="00B6"/>
  <outline>
	<contour>
	  <point x="327" y="693" type="line" smooth="yes"/>
	  <point x="160" y="693"/>
	  <point x="66" y="607"/>
	  <point x="49" y="487" type="curve" smooth="yes"/>
	  <point x="31" y="359"/>
	  <point x="95" y="277"/>
	  <point x="235" y="264" type="curve"/>
	  <point x="164" y="-221" type="line"/>
	  <point x="299" y="-210" type="line"/>
	  <point x="411" y="585" type="line"/>
	  <point x="493" y="585" type="line"/>
	  <point x="380" y="-221" type="line"/>
	  <point x="515" y="-210" type="line"/>
	  <point x="642" y="693" type="line"/>
	</contour>
  </outline>
</glyph>
<glyph name="cedilla" format="1">
  <advance width="600"/>
  <unicode hex="00B8"/>
  <outline>
	<contour>
	  <point x="259" y="-164"/>
	  <point x="234" y="-176"/>
	  <point x="198" y="-176" type="curve" smooth="yes"/>
	  <point x="180" y="-176"/>
	  <point x="159" y="-171"/>
	  <point x="140" y="-161" type="curve"/>
	  <point x="98" y="-230" type="line"/>
	  <point x="124" y="-246"/>
	  <point x="165" y="-263"/>
	  <point x="217" y="-263" type="curve" smooth="yes"/>
	  <point x="304" y="-263"/>
	  <point x="366" y="-219"/>
	  <point x="375" y="-156" type="curve" smooth="yes"/>
	  <point x="383" y="-97"/>
	  <point x="352" y="-57"/>
	  <point x="283" y="-49" type="curve"/>
	  <point x="295" y="16" type="line"/>
	  <point x="206" y="16" type="line"/>
	  <point x="177" y="-112" type="line"/>
	  <point x="238" y="-112"/>
	  <point x="266" y="-115"/>
	  <point x="263" y="-136" type="curve" smooth="yes"/>
	</contour>
	<contour>
	  <point x="226" y="0" type="move" name="_bottom"/>
	</contour>
  </outline>
</glyph>
<glyph name="ordmasculine" format="1">
  <advance width="600"/>
  <unicode hex="00BA"/>
  <outline>
	<contour>
	  <point x="228" y="759"/>
	  <point x="134" y="665"/>
	  <point x="117" y="541" type="curve" smooth="yes"/>
	  <point x="97" y="400"/>
	  <point x="169" y="304"/>
	  <point x="312" y="304" type="curve" smooth="yes"/>
	  <point x="446" y="304"/>
	  <point x="540" y="393"/>
	  <point x="558" y="523" type="curve" smooth="yes"/>
	  <point x="577" y="658"/>
	  <point x="504" y="759"/>
	  <point x="362" y="759" type="curve" smooth="yes"/>
	</contour>
	<contour>
	  <point x="71" y="109" type="line"/>
	  <point x="56" y="0" type="line"/>
	  <point x="470" y="0" type="line"/>
	  <point x="485" y="109" type="line"/>
	</contour>
	<contour>
	  <point x="409" y="660"/>
	  <point x="433" y="628"/>
	  <point x="421" y="541" type="curve" smooth="yes"/>
	  <point x="407" y="443"/>
	  <point x="367" y="404"/>
	  <point x="312" y="404" type="curve" smooth="yes"/>
	  <point x="265" y="404"/>
	  <point x="242" y="435"/>
	  <point x="254" y="523" type="curve" smooth="yes"/>
	  <point x="268" y="620"/>
	  <point x="307" y="660"/>
	  <point x="362" y="660" type="curve" smooth="yes"/>
	</contour>
  </outline>
</glyph>
<glyph name="guillemotright" format="1">
  <advance width="600"/>
  <unicode hex="00BB"/>
  <outline>
	<contour>
	  <point x="259" y="74" type="line"/>
	  <point x="345" y="16" type="line"/>
	  <point x="546" y="236" type="line"/>
	  <point x="558" y="337" type="line"/>
	  <point x="417" y="557" type="line"/>
	  <point x="319" y="499" type="line"/>
	  <point x="404" y="287" type="line"/>
	</contour>
	<contour>
	  <point x="24" y="74" type="line"/>
	  <point x="110" y="16" type="line"/>
	  <point x="310" y="236" type="line"/>
	  <point x="322" y="337" type="line"/>
	  <point x="182" y="557" type="line"/>
	  <point x="84" y="499" type="line"/>
	  <point x="169" y="287" type="line"/>
	</contour>
  </outline>
</glyph>
<glyph name="questiondown" format="1">
  <advance width="600"/>
  <unicode hex="00BF"/>
  <outline>
	<contour>
	  <point x="242" y="239" type="line"/>
	  <point x="240" y="223" type="line" smooth="yes"/>
	  <point x="223" y="100"/>
	  <point x="38" y="112"/>
	  <point x="16" y="-45" type="curve" smooth="yes"/>
	  <point x="3" y="-139"/>
	  <point x="72" y="-222"/>
	  <point x="228" y="-222" type="curve" smooth="yes"/>
	  <point x="330" y="-222"/>
	  <point x="414" y="-184"/>
	  <point x="480" y="-117" type="curve"/>
	  <point x="385" y="-33" type="line"/>
	  <point x="344" y="-73"/>
	  <point x="297" y="-96"/>
	  <point x="248" y="-96" type="curve" smooth="yes"/>
	  <point x="205" y="-96"/>
	  <point x="178" y="-80"/>
	  <point x="183" y="-49" type="curve" smooth="yes"/>
	  <point x="195" y="38"/>
	  <point x="358" y="32"/>
	  <point x="382" y="203" type="curve" smooth="yes"/>
	  <point x="387" y="239" type="line"/>
	</contour>
	<contour>
	  <point x="298" y="512"/>
	  <point x="255" y="474"/>
	  <point x="249" y="429" type="curve" smooth="yes"/>
	  <point x="241" y="375"/>
	  <point x="278" y="330"/>
	  <point x="333" y="330" type="curve" smooth="yes"/>
	  <point x="379" y="330"/>
	  <point x="422" y="367"/>
	  <point x="428" y="411" type="curve" smooth="yes"/>
	  <point x="436" y="466"/>
	  <point x="399" y="512"/>
	  <point x="345" y="512" type="curve" smooth="yes"/>
	</contour>
  </outline>
</glyph>
<glyph name="AE" format="1">
  <advance width="600"/>
  <unicode hex="00C6"/>
  <outline>
	<contour>
	  <point x="301" y="0" type="line"/>
	  <point x="566" y="0" type="line"/>
	  <point x="581" y="112" type="line"/>
	  <point x="432" y="112" type="line"/>
	  <point x="423" y="295" type="line"/>
	  <point x="560" y="295" type="line"/>
	  <point x="576" y="407" type="line"/>
	  <point x="419" y="407" type="line"/>
	  <point x="410" y="581" type="line"/>
	  <point x="592" y="581" type="line"/>
	  <point x="625" y="693" type="line"/>
	  <point x="221" y="693" type="line"/>
	  <point x="-50" y="0" type="line"/>
	  <point x="111" y="0" type="line"/>
	  <point x="159" y="152" type="line"/>
	  <point x="298" y="152" type="line"/>
	</contour>
	<contour>
	  <point x="290" y="582" type="line"/>
	  <point x="297" y="265" type="line"/>
	  <point x="193" y="265" type="line"/>
	</contour>
	<contour>
	  <point x="470" y="693" type="move" name="top"/>
	</contour>
  </outline>
</glyph>
<glyph name="Eth" format="1">
  <advance width="600"/>
  <unicode hex="00D0"/>
  <outline>
	<contour>
	  <point x="83" y="403" type="line"/>
	  <point x="28" y="403" type="line"/>
	  <point x="14" y="303" type="line"/>
	  <point x="235" y="303" type="line"/>
	  <point x="354" y="303" type="line"/>
	  <point x="368" y="403" type="line"/>
	</contour>
	<component base="D" xOffset="-24"/>
  </outline>
</glyph>
<glyph name="multiply" format="1">
  <advance width="600"/>
  <unicode hex="00D7"/>
  <outline>
	<contour>
	  <point x="316" y="393" type="line"/>
	  <point x="217" y="510" type="line"/>
	  <point x="119" y="422" type="line"/>
	  <point x="220" y="307" type="line"/>
	  <point x="87" y="192" type="line"/>
	  <point x="164" y="104" type="line"/>
	  <point x="296" y="221" type="line"/>
	  <point x="394" y="104" type="line"/>
	  <point x="493" y="192" type="line"/>
	  <point x="392" y="307" type="line"/>
	  <point x="525" y="422" type="line"/>
	  <point x="447" y="510" type="line"/>
	</contour>
  </outline>
</glyph>
<glyph name="Oslash" format="1">
  <advance width="600"/>
  <unicode hex="00D8"/>
  <outline>
	<contour>
	  <point x="178" y="711"/>
	  <point x="65" y="571"/>
	  <point x="35" y="356" type="curve" smooth="yes"/>
	  <point x="2" y="126"/>
	  <point x="91" y="-17"/>
	  <point x="267" y="-17" type="curve" smooth="yes"/>
	  <point x="445" y="-17"/>
	  <point x="558" y="123"/>
	  <point x="588" y="338" type="curve" smooth="yes"/>
	  <point x="621" y="568"/>
	  <point x="532" y="711"/>
	  <point x="356" y="711" type="curve" smooth="yes"/>
	</contour>
	<contour>
	  <point x="406" y="693" type="line"/>
	  <point x="388" y="617" type="line"/>
	  <point x="191" y="164" type="line"/>
	  <point x="121" y="63" type="line"/>
	  <point x="59" y="-76" type="line"/>
	  <point x="168" y="-109" type="line"/>
	  <point x="217" y="4" type="line"/>
	  <point x="248" y="103" type="line"/>
	  <point x="439" y="542" type="line"/>
	  <point x="510" y="650" type="line"/>
	  <point x="564" y="770" type="line"/>
	  <point x="455" y="803" type="line"/>
	</contour>
	<contour>
	  <point x="432" y="593"/>
	  <point x="450" y="524"/>
	  <point x="427" y="356" type="curve" smooth="yes"/>
	  <point x="402" y="180"/>
	  <point x="357" y="101"/>
	  <point x="270" y="101" type="curve" smooth="yes"/>
	  <point x="192" y="101"/>
	  <point x="173" y="170"/>
	  <point x="196" y="338" type="curve" smooth="yes"/>
	  <point x="221" y="516"/>
	  <point x="268" y="593"/>
	  <point x="353" y="593" type="curve" smooth="yes"/>
	</contour>
	<contour>
	  <point x="420" y="693" type="move" name="top"/>
	</contour>
  </outline>
</glyph>
<glyph name="Thorn" format="1">
  <advance width="600"/>
  <unicode hex="00DE"/>
  <outline>
	<contour>
	  <point x="118" y="693" type="line"/>
	  <point x="21" y="0" type="line"/>
	  <point x="188" y="0" type="line"/>
	  <point x="204" y="116" type="line"/>
	  <point x="283" y="116" type="line" smooth="yes"/>
	  <point x="455" y="116"/>
	  <point x="566" y="187"/>
	  <point x="588" y="345" type="curve" smooth="yes"/>
	  <point x="610" y="503"/>
	  <point x="508" y="581"/>
	  <point x="320" y="581" type="curve" smooth="yes"/>
	  <point x="269" y="581" type="line"/>
	  <point x="285" y="693" type="line"/>
	</contour>
	<contour>
	  <point x="393" y="463"/>
	  <point x="428" y="434"/>
	  <point x="418" y="362" type="curve" smooth="yes"/>
	  <point x="405" y="271"/>
	  <point x="354" y="236"/>
	  <point x="283" y="236" type="curve" smooth="yes"/>
	  <point x="221" y="236" type="line"/>
	  <point x="253" y="463" type="line"/>
	  <point x="314" y="463" type="line" smooth="yes"/>
	</contour>
  </outline>
</glyph>
<glyph name="germandbls" format="1">
  <advance width="600"/>
  <unicode hex="00DF"/>
  <outline>
	<contour>
	  <point x="204" y="759"/>
	  <point x="117" y="678"/>
	  <point x="97" y="535" type="curve" smooth="yes"/>
	  <point x="22" y="0" type="line"/>
	  <point x="182" y="0" type="line"/>
	  <point x="257" y="534" type="line" smooth="yes"/>
	  <point x="267" y="607"/>
	  <point x="295" y="647"/>
	  <point x="348" y="647" type="curve" smooth="yes"/>
	  <point x="376" y="647"/>
	  <point x="391" y="633"/>
	  <point x="387" y="605" type="curve" smooth="yes"/>
	  <point x="376" y="528"/>
	  <point x="298" y="498"/>
	  <point x="286" y="413" type="curve" smooth="yes"/>
	  <point x="267" y="277"/>
	  <point x="415" y="280"/>
	  <point x="400" y="176" type="curve" smooth="yes"/>
	  <point x="394" y="132"/>
	  <point x="369" y="106"/>
	  <point x="327" y="106" type="curve" smooth="yes"/>
	  <point x="313" y="106"/>
	  <point x="295" y="109"/>
	  <point x="276" y="119" type="curve"/>
	  <point x="216" y="16" type="line"/>
	  <point x="249" y="-3"/>
	  <point x="288" y="-17"/>
	  <point x="343" y="-17" type="curve" smooth="yes"/>
	  <point x="455" y="-17"/>
	  <point x="547" y="46"/>
	  <point x="563" y="159" type="curve" smooth="yes"/>
	  <point x="588" y="338"/>
	  <point x="416" y="352"/>
	  <point x="426" y="423" type="curve" smooth="yes"/>
	  <point x="435" y="489"/>
	  <point x="528" y="508"/>
	  <point x="540" y="594" type="curve" smooth="yes"/>
	  <point x="553" y="686"/>
	  <point x="487" y="759"/>
	  <point x="353" y="759" type="curve" smooth="yes"/>
	</contour>
  </outline>
</glyph>
<glyph name="ae" format="1">
  <advance width="600"/>
  <unicode hex="00E6"/>
  <outline>
	<contour>
	  <point x="405" y="549"/>
	  <point x="360" y="525"/>
	  <point x="329" y="479" type="curve"/>
	  <point x="310" y="517"/>
	  <point x="274" y="549"/>
	  <point x="197" y="549" type="curve" smooth="yes"/>
	  <point x="148" y="549"/>
	  <point x="106" y="538"/>
	  <point x="51" y="515" type="curve"/>
	  <point x="81" y="424" type="line"/>
	  <point x="123" y="443"/>
	  <point x="145" y="451"/>
	  <point x="181" y="451" type="curve" smooth="yes"/>
	  <point x="234" y="451"/>
	  <point x="259" y="422"/>
	  <point x="249" y="354" type="curve" smooth="yes"/>
	  <point x="246" y="327" type="line"/>
	  <point x="202" y="327" type="line" smooth="yes"/>
	  <point x="65" y="327"/>
	  <point x="-6" y="269"/>
	  <point x="-21" y="161" type="curve" smooth="yes"/>
	  <point x="-35" y="57"/>
	  <point x="13" y="-17"/>
	  <point x="110" y="-17" type="curve" smooth="yes"/>
	  <point x="174" y="-17"/>
	  <point x="212" y="6"/>
	  <point x="260" y="67" type="curve"/>
	  <point x="285" y="18"/>
	  <point x="333" y="-17"/>
	  <point x="411" y="-17" type="curve" smooth="yes"/>
	  <point x="474" y="-17"/>
	  <point x="527" y="4"/>
	  <point x="571" y="37" type="curve"/>
	  <point x="516" y="123" type="line"/>
	  <point x="485" y="102"/>
	  <point x="457" y="88"/>
	  <point x="421" y="88" type="curve" smooth="yes"/>
	  <point x="369" y="88"/>
	  <point x="347" y="128"/>
	  <point x="351" y="222" type="curve"/>
	  <point x="591" y="222" type="line"/>
	  <point x="595" y="238"/>
	  <point x="598" y="254"/>
	  <point x="600" y="267" type="curve" smooth="yes"/>
	  <point x="626" y="448"/>
	  <point x="590" y="549"/>
	  <point x="461" y="549" type="curve" smooth="yes"/>
	</contour>
	<contour>
	  <point x="230" y="215"/>
	  <point x="226" y="182"/>
	  <point x="225" y="157" type="curve"/>
	  <point x="198" y="112"/>
	  <point x="172" y="87"/>
	  <point x="140" y="87" type="curve" smooth="yes"/>
	  <point x="115" y="87"/>
	  <point x="105" y="110"/>
	  <point x="111" y="150" type="curve" smooth="yes"/>
	  <point x="119" y="207"/>
	  <point x="151" y="241"/>
	  <point x="216" y="241" type="curve" smooth="yes"/>
	  <point x="234" y="245" type="line"/>
	</contour>
	<contour>
	  <point x="497" y="449"/>
	  <point x="499" y="410"/>
	  <point x="487" y="316" type="curve"/>
	  <point x="363" y="308" type="line"/>
	  <point x="382" y="412"/>
	  <point x="410" y="449"/>
	  <point x="455" y="449" type="curve" smooth="yes"/>
	</contour>
	<contour>
	  <point x="376" y="531" type="move" name="top"/>
	</contour>
  </outline>
</glyph>
<glyph name="eth" format="1">
  <advance width="600"/>
  <unicode hex="00F0"/>
  <outline>
	<contour>
	  <point x="264" y="525" type="line"/>
	  <point x="330" y="584" type="line"/>
	  <point x="371" y="550"/>
	  <point x="399" y="504"/>
	  <point x="409" y="433" type="curve"/>
	  <point x="376" y="462"/>
	  <point x="340" y="482"/>
	  <point x="277" y="482" type="curve" smooth="yes"/>
	  <point x="166" y="482"/>
	  <point x="56" y="386"/>
	  <point x="36" y="243" type="curve" smooth="yes"/>
	  <point x="13" y="79"/>
	  <point x="113" y="-17"/>
	  <point x="261" y="-17" type="curve" smooth="yes"/>
	  <point x="427" y="-17"/>
	  <point x="535" y="109"/>
	  <point x="557" y="268" type="curve" smooth="yes"/>
	  <point x="583" y="452"/>
	  <point x="543" y="588"/>
	  <point x="425" y="671" type="curve"/>
	  <point x="489" y="727" type="line"/>
	  <point x="415" y="798" type="line"/>
	  <point x="329" y="720" type="line"/>
	  <point x="290" y="736"/>
	  <point x="243" y="749"/>
	  <point x="189" y="757" type="curve"/>
	  <point x="149" y="655" type="line"/>
	  <point x="182" y="649"/>
	  <point x="211" y="641"/>
	  <point x="237" y="632" type="curve"/>
	  <point x="167" y="571" type="line"/>
	</contour>
	<contour>
	  <point x="379" y="154"/>
	  <point x="339" y="99"/>
	  <point x="267" y="99" type="curve" smooth="yes"/>
	  <point x="213" y="99"/>
	  <point x="184" y="135"/>
	  <point x="197" y="227" type="curve" smooth="yes"/>
	  <point x="210" y="323"/>
	  <point x="257" y="370"/>
	  <point x="318" y="370" type="curve" smooth="yes"/>
	  <point x="353" y="370"/>
	  <point x="384" y="358"/>
	  <point x="406" y="336" type="curve"/>
	  <point x="401" y="309"/>
	  <point x="398" y="285"/>
	  <point x="395" y="265" type="curve" smooth="yes"/>
	</contour>
  </outline>
</glyph>
<glyph name="divide" format="1">
  <advance width="600"/>
  <unicode hex="00F7"/>
  <outline>
	<contour>
	  <point x="98" y="380" type="line"/>
	  <point x="81" y="257" type="line"/>
	  <point x="517" y="257" type="line"/>
	  <point x="534" y="380" type="line"/>
	</contour>
	<contour>
	  <point x="236" y="195"/>
	  <point x="194" y="158"/>
	  <point x="188" y="113" type="curve" smooth="yes"/>
	  <point x="180" y="58"/>
	  <point x="217" y="13"/>
	  <point x="272" y="13" type="curve" smooth="yes"/>
	  <point x="319" y="13"/>
	  <point x="361" y="50"/>
	  <point x="367" y="95" type="curve" smooth="yes"/>
	  <point x="375" y="150"/>
	  <point x="338" y="195"/>
	  <point x="283" y="195" type="curve" smooth="yes"/>
	</contour>
	<contour>
	  <point x="296" y="624"/>
	  <point x="254" y="587"/>
	  <point x="248" y="542" type="curve" smooth="yes"/>
	  <point x="240" y="488"/>
	  <point x="277" y="443"/>
	  <point x="332" y="443" type="curve" smooth="yes"/>
	  <point x="379" y="443"/>
	  <point x="421" y="480"/>
	  <point x="427" y="524" type="curve" smooth="yes"/>
	  <point x="435" y="579"/>
	  <point x="398" y="624"/>
	  <point x="343" y="624" type="curve" smooth="yes"/>
	</contour>
  </outline>
</glyph>
<glyph name="oslash" format="1">
  <advance width="600"/>
  <unicode hex="00F8"/>
  <outline>
	<contour>
	  <point x="174" y="549"/>
	  <point x="65" y="439"/>
	  <point x="42" y="275" type="curve" smooth="yes"/>
	  <point x="16" y="91"/>
	  <point x="100" y="-17"/>
	  <point x="267" y="-17" type="curve" smooth="yes"/>
	  <point x="426" y="-17"/>
	  <point x="534" y="85"/>
	  <point x="558" y="258" type="curve" smooth="yes"/>
	  <point x="583" y="433"/>
	  <point x="501" y="549"/>
	  <point x="333" y="549" type="curve" smooth="yes"/>
	</contour>
	<contour>
	  <point x="365" y="539" type="line"/>
	  <point x="346" y="451" type="line"/>
	  <point x="194" y="123" type="line"/>
	  <point x="125" y="33" type="line"/>
	  <point x="62" y="-103" type="line"/>
	  <point x="176" y="-137" type="line"/>
	  <point x="235" y="-7" type="line"/>
	  <point x="256" y="79" type="line"/>
	  <point x="405" y="401" type="line"/>
	  <point x="477" y="499" type="line"/>
	  <point x="537" y="629" type="line"/>
	  <point x="424" y="663" type="line"/>
	</contour>
	<contour>
	  <point x="404" y="434"/>
	  <point x="416" y="398"/>
	  <point x="398" y="276" type="curve" smooth="yes"/>
	  <point x="381" y="150"/>
	  <point x="340" y="97"/>
	  <point x="269" y="97" type="curve" smooth="yes"/>
	  <point x="196" y="97"/>
	  <point x="184" y="132"/>
	  <point x="202" y="257" type="curve" smooth="yes"/>
	  <point x="219" y="380"/>
	  <point x="260" y="434"/>
	  <point x="331" y="434" type="curve" smooth="yes"/>
	</contour>
	<contour>
	  <point x="374" y="531" type="move" name="top"/>
	</contour>
  </outline>
</glyph>
<glyph name="thorn" format="1">
  <advance width="600"/>
  <unicode hex="00FE"/>
  <outline>
	<contour>
	  <point x="136" y="742" type="line"/>
	  <point x="0" y="-222" type="line"/>
	  <point x="163" y="-205" type="line"/>
	  <point x="199" y="41" type="line"/>
	  <point x="226" y="5"/>
	  <point x="266" y="-17"/>
	  <point x="322" y="-17" type="curve" smooth="yes"/>
	  <point x="447" y="-17"/>
	  <point x="536" y="99"/>
	  <point x="558" y="258" type="curve" smooth="yes"/>
	  <point x="583" y="436"/>
	  <point x="540" y="549"/>
	  <point x="398" y="549" type="curve" smooth="yes"/>
	  <point x="346" y="549"/>
	  <point x="296" y="527"/>
	  <point x="257" y="482" type="curve"/>
	  <point x="298" y="759" type="line"/>
	</contour>
	<contour>
	  <point x="390" y="431"/>
	  <point x="413" y="401"/>
	  <point x="395" y="274" type="curve" smooth="yes"/>
	  <point x="378" y="150"/>
	  <point x="335" y="100"/>
	  <point x="276" y="100" type="curve" smooth="yes"/>
	  <point x="247" y="100"/>
	  <point x="227" y="111"/>
	  <point x="210" y="143" type="curve"/>
	  <point x="245" y="366" type="line"/>
	  <point x="273" y="404"/>
	  <point x="305" y="431"/>
	  <point x="345" y="431" type="curve" smooth="yes"/>
	</contour>
  </outline>
</glyph>
<glyph name="dcroat" format="1">
  <advance width="600"/>
  <unicode hex="0111"/>
  <outline>
	<contour>
	  <point x="290" y="686" type="line"/>
	  <point x="277" y="593" type="line"/>
	  <point x="398" y="593" type="line"/>
	  <point x="638" y="593" type="line"/>
	  <point x="651" y="686" type="line"/>
	  <point x="571" y="686" type="line"/>
	</contour>
	<component base="d" xOffset="-56"/>
  </outline>
</glyph>
<glyph name="Hbar" format="1">
  <advance width="600"/>
  <unicode hex="0126"/>
  <outline>
	<contour>
	  <point x="438" y="693" type="line"/>
	  <point x="400" y="425" type="line"/>
	  <point x="244" y="425" type="line"/>
	  <point x="282" y="693" type="line"/>
	  <point x="116" y="693" type="line"/>
	  <point x="19" y="0" type="line"/>
	  <point x="185" y="0" type="line"/>
	  <point x="226" y="296" type="line"/>
	  <point x="382" y="296" type="line"/>
	  <point x="341" y="0" type="line"/>
	  <point x="507" y="0" type="line"/>
	  <point x="604" y="693" type="line"/>
	</contour>
	<contour>
	  <point x="590" y="592" type="line"/>
	  <point x="102" y="592" type="line"/>
	  <point x="48" y="592" type="line"/>
	  <point x="35" y="500" type="line"/>
	  <point x="631" y="500" type="line"/>
	  <point x="644" y="592" type="line"/>
	</contour>
	<contour>
	  <point x="322" y="347" type="move" name="center"/>
	</contour>
	<contour>
	  <point x="420" y="693" type="move" name="top"/>
	</contour>
  </outline>
</glyph>
<glyph name="hbar" format="1">
  <advance width="600"/>
  <unicode hex="0127"/>
  <outline>
	<contour>
	  <point x="128" y="686" type="line"/>
	  <point x="67" y="686" type="line"/>
	  <point x="54" y="593" type="line"/>
	  <point x="275" y="593" type="line"/>
	  <point x="415" y="593" type="line"/>
	  <point x="428" y="686" type="line"/>
	</contour>
	<component base="h" xOffset="-37"/>
  </outline>
</glyph>
<glyph name="dotlessi" format="1">
  <advance width="600"/>
  <unicode hex="0131"/>
  <outline>
	<contour>
	  <point x="127" y="531" type="line"/>
	  <point x="112" y="422" type="line"/>
	  <point x="257" y="422" type="line"/>
	  <point x="213" y="109" type="line"/>
	  <point x="63" y="109" type="line"/>
	  <point x="48" y="0" type="line"/>
	  <point x="493" y="0" type="line"/>
	  <point x="508" y="109" type="line"/>
	  <point x="373" y="109" type="line"/>
	  <point x="432" y="531" type="line"/>
	</contour>
	<contour>
	  <point x="331" y="0" type="move" name="ogonek"/>
	</contour>
	<contour>
	  <point x="373" y="531" type="move" name="top"/>
	</contour>
  </outline>
</glyph>
<glyph name="IJ" format="1">
  <advance width="600"/>
  <unicode hex="0132"/>
  <outline>
	<contour>
	  <point x="141" y="-185" type="line"/>
	  <point x="409" y="-142"/>
	  <point x="516" y="-23"/>
	  <point x="543" y="166" type="curve" smooth="yes"/>
	  <point x="617" y="693" type="line"/>
	  <point x="68" y="693" type="line"/>
	  <point x="54" y="591" type="line"/>
	  <point x="126" y="591" type="line"/>
	  <point x="57" y="103" type="line"/>
	  <point x="-15" y="103" type="line"/>
	  <point x="-29" y="0" type="line"/>
	  <point x="248" y="0" type="line"/>
	  <point x="262" y="103" type="line"/>
	  <point x="210" y="103" type="line"/>
	  <point x="279" y="591" type="line"/>
	  <point x="443" y="591" type="line"/>
	  <point x="383" y="167" type="line" smooth="yes"/>
	  <point x="364" y="33"/>
	  <point x="318" y="-39"/>
	  <point x="131" y="-71" type="curve"/>
	</contour>
  </outline>
</glyph>
<glyph name="ij" format="1">
  <advance width="600"/>
  <unicode hex="0133"/>
  <outline>
	<contour>
	  <point x="77" y="531" type="line"/>
	  <point x="62" y="423" type="line"/>
	  <point x="125" y="423" type="line"/>
	  <point x="81" y="109" type="line"/>
	  <point x="13" y="109" type="line"/>
	  <point x="-2" y="0" type="line"/>
	  <point x="275" y="0" type="line"/>
	  <point x="290" y="109" type="line"/>
	  <point x="239" y="109" type="line"/>
	  <point x="283" y="423" type="line"/>
	  <point x="409" y="423" type="line"/>
	  <point x="366" y="114" type="line" smooth="yes"/>
	  <point x="347" y="-19"/>
	  <point x="274" y="-63"/>
	  <point x="137" y="-103" type="curve"/>
	  <point x="180" y="-223" type="line"/>
	  <point x="379" y="-165"/>
	  <point x="496" y="-90"/>
	  <point x="526" y="120" type="curve" smooth="yes"/>
	  <point x="583" y="531" type="line"/>
	</contour>
	<contour>
	  <point x="201" y="810"/>
	  <point x="160" y="775"/>
	  <point x="153" y="729" type="curve" smooth="yes"/>
	  <point x="145" y="673"/>
	  <point x="181" y="630"/>
	  <point x="240" y="630" type="curve" smooth="yes"/>
	  <point x="292" y="630"/>
	  <point x="334" y="665"/>
	  <point x="341" y="711" type="curve" smooth="yes"/>
	  <point x="348" y="767"/>
	  <point x="312" y="810"/>
	  <point x="252" y="810" type="curve" smooth="yes"/>
	</contour>
	<contour>
	  <point x="475" y="810"/>
	  <point x="433" y="775"/>
	  <point x="426" y="729" type="curve" smooth="yes"/>
	  <point x="418" y="673"/>
	  <point x="455" y="630"/>
	  <point x="514" y="630" type="curve" smooth="yes"/>
	  <point x="565" y="630"/>
	  <point x="607" y="665"/>
	  <point x="614" y="711" type="curve" smooth="yes"/>
	  <point x="621" y="767"/>
	  <point x="585" y="810"/>
	  <point x="526" y="810" type="curve" smooth="yes"/>
	</contour>
  </outline>
</glyph>
<glyph name="Lslash" format="1">
  <advance width="600"/>
  <unicode hex="0141"/>
  <outline>
	<contour>
	  <point x="476" y="442" type="line"/>
	  <point x="431" y="528" type="line"/>
	  <point x="117" y="349" type="line"/>
	  <point x="11" y="288" type="line"/>
	  <point x="55" y="200" type="line"/>
	</contour>
	<component base="L" xOffset="-22"/>
  </outline>
</glyph>
<glyph name="lslash" format="1">
  <advance width="600"/>
  <unicode hex="0142"/>
  <outline>
	<contour>
	  <point x="96" y="319" type="line"/>
	  <point x="141" y="230" type="line"/>
	  <point x="362" y="354" type="line"/>
	  <point x="492" y="428" type="line"/>
	  <point x="445" y="518" type="line"/>
	  <point x="202" y="380" type="line"/>
	</contour>
	<component base="l" xOffset="-37"/>
  </outline>
</glyph>
<glyph name="Eng" format="1">
  <advance width="600"/>
  <unicode hex="014A"/>
  <outline>
	<contour>
	  <point x="609" y="693" type="line"/>
	  <point x="468" y="693" type="line"/>
	  <point x="432" y="434" type="line" smooth="yes"/>
	  <point x="414" y="309"/>
	  <point x="415" y="208"/>
	  <point x="419" y="158" type="curve"/>
	  <point x="411" y="154" type="line"/>
	  <point x="317" y="693" type="line"/>
	  <point x="111" y="693" type="line"/>
	  <point x="14" y="0" type="line"/>
	  <point x="155" y="0" type="line"/>
	  <point x="191" y="255" type="line" smooth="yes"/>
	  <point x="208" y="377"/>
	  <point x="207" y="492"/>
	  <point x="204" y="534" type="curve"/>
	  <point x="211" y="538" type="line"/>
	  <point x="312" y="0" type="line"/>
	  <point x="369" y="4" type="line"/>
	  <point x="354" y="-52"/>
	  <point x="318" y="-82"/>
	  <point x="235" y="-114" type="curve"/>
	  <point x="261" y="-223" type="line"/>
	  <point x="383" y="-184"/>
	  <point x="495" y="-122"/>
	  <point x="518" y="43" type="curve"/>
	</contour>
  </outline>
</glyph>
<glyph name="eng" format="1">
  <advance width="600"/>
  <unicode hex="014B"/>
  <outline>
	<contour>
	  <point x="548" y="386" type="line" smooth="yes"/>
	  <point x="562" y="487"/>
	  <point x="516" y="549"/>
	  <point x="418" y="549" type="curve" smooth="yes"/>
	  <point x="359" y="549"/>
	  <point x="302" y="526"/>
	  <point x="247" y="473" type="curve"/>
	  <point x="246" y="531" type="line"/>
	  <point x="106" y="531" type="line"/>
	  <point x="32" y="0" type="line"/>
	  <point x="192" y="0" type="line"/>
	  <point x="245" y="363" type="line"/>
	  <point x="280" y="403"/>
	  <point x="314" y="431"/>
	  <point x="351" y="431" type="curve" smooth="yes"/>
	  <point x="386" y="431"/>
	  <point x="392" y="413"/>
	  <point x="383" y="349" type="curve" smooth="yes"/>
	  <point x="341" y="55" type="line" smooth="yes"/>
	  <point x="328" y="-41"/>
	  <point x="280" y="-73"/>
	  <point x="207" y="-103" type="curve"/>
	  <point x="253" y="-224" type="line"/>
	  <point x="388" y="-172"/>
	  <point x="477" y="-118"/>
	  <point x="502" y="57" type="curve" smooth="yes"/>
	</contour>
  </outline>
</glyph>
<glyph name="OE" format="1">
  <advance width="600"/>
  <unicode hex="0152"/>
  <outline>
	<contour>
	  <point x="132" y="711"/>
	  <point x="54" y="578"/>
	  <point x="23" y="356" type="curve" smooth="yes"/>
	  <point x="-11" y="119"/>
	  <point x="35" y="-17"/>
	  <point x="192" y="-17" type="curve" smooth="yes"/>
	  <point x="225" y="-17"/>
	  <point x="252" y="-10"/>
	  <point x="283" y="-1" type="curve"/>
	  <point x="559" y="0" type="line"/>
	  <point x="574" y="112" type="line"/>
	  <point x="374" y="108" type="line"/>
	  <point x="404" y="153"/>
	  <point x="427" y="214"/>
	  <point x="442" y="291" type="curve"/>
	  <point x="562" y="295" type="line"/>
	  <point x="578" y="407" type="line"/>
	  <point x="456" y="403" type="line"/>
	  <point x="463" y="477"/>
	  <point x="457" y="535"/>
	  <point x="442" y="577" type="curve"/>
	  <point x="623" y="581" type="line"/>
	  <point x="656" y="693" type="line"/>
	  <point x="378" y="692" type="line"/>
	  <point x="346" y="703"/>
	  <point x="322" y="711"/>
	  <point x="281" y="711" type="curve" smooth="yes"/>
	</contour>
	<contour>
	  <point x="336" y="598"/>
	  <point x="341" y="538"/>
	  <point x="316" y="356" type="curve" smooth="yes"/>
	  <point x="289" y="169"/>
	  <point x="256" y="95"/>
	  <point x="195" y="95" type="curve" smooth="yes"/>
	  <point x="144" y="95"/>
	  <point x="136" y="161"/>
	  <point x="161" y="338" type="curve" smooth="yes"/>
	  <point x="187" y="525"/>
	  <point x="217" y="598"/>
	  <point x="280" y="598" type="curve" smooth="yes"/>
	</contour>
  </outline>
</glyph>
<glyph name="oe" format="1">
  <advance width="600"/>
  <unicode hex="0153"/>
  <outline>
	<contour>
	  <point x="409" y="549"/>
	  <point x="365" y="519"/>
	  <point x="330" y="466" type="curve"/>
	  <point x="315" y="514"/>
	  <point x="281" y="549"/>
	  <point x="209" y="549" type="curve" smooth="yes"/>
	  <point x="85" y="549"/>
	  <point x="16" y="439"/>
	  <point x="-7" y="275" type="curve" smooth="yes"/>
	  <point x="-33" y="91"/>
	  <point x="12" y="-17"/>
	  <point x="143" y="-17" type="curve" smooth="yes"/>
	  <point x="204" y="-17"/>
	  <point x="243" y="9"/>
	  <point x="276" y="62" type="curve"/>
	  <point x="301" y="16"/>
	  <point x="347" y="-17"/>
	  <point x="421" y="-17" type="curve" smooth="yes"/>
	  <point x="482" y="-17"/>
	  <point x="533" y="4"/>
	  <point x="577" y="37" type="curve"/>
	  <point x="522" y="123" type="line"/>
	  <point x="491" y="102"/>
	  <point x="465" y="88"/>
	  <point x="430" y="88" type="curve" smooth="yes"/>
	  <point x="379" y="88"/>
	  <point x="357" y="126"/>
	  <point x="363" y="222" type="curve"/>
	  <point x="597" y="222" type="line"/>
	  <point x="601" y="238"/>
	  <point x="604" y="254"/>
	  <point x="606" y="267" type="curve" smooth="yes"/>
	  <point x="632" y="448"/>
	  <point x="598" y="549"/>
	  <point x="471" y="549" type="curve" smooth="yes"/>
	</contour>
	<contour>
	  <point x="250" y="431"/>
	  <point x="258" y="391"/>
	  <point x="241" y="276" type="curve" smooth="yes"/>
	  <point x="223" y="143"/>
	  <point x="198" y="100"/>
	  <point x="152" y="100" type="curve" smooth="yes"/>
	  <point x="113" y="100"/>
	  <point x="106" y="137"/>
	  <point x="123" y="257" type="curve" smooth="yes"/>
	  <point x="141" y="383"/>
	  <point x="165" y="431"/>
	  <point x="212" y="431" type="curve" smooth="yes"/>
	</contour>
	<contour>
	  <point x="504" y="449"/>
	  <point x="505" y="410"/>
	  <point x="493" y="316" type="curve"/>
	  <point x="374" y="308" type="line"/>
	  <point x="394" y="412"/>
	  <point x="422" y="449"/>
	  <point x="465" y="449" type="curve" smooth="yes"/>
	</contour>
  </outline>
</glyph>
<glyph name="Tbar" format="1">
  <advance width="600"/>
  <unicode hex="0166"/>
  <outline>
	<contour>
	  <point x="506" y="313" type="line"/>
	  <point x="519" y="406" type="line"/>
	  <point x="236" y="406" type="line"/>
	  <point x="120" y="406" type="line"/>
	  <point x="107" y="313" type="line"/>
	  <point x="389" y="313" type="line"/>
	</contour>
	<component base="T" xOffset="-37"/>
  </outline>
</glyph>
<glyph name="tbar" format="1">
  <advance width="600"/>
  <unicode hex="0167"/>
  <outline>
	<contour>
	  <point x="181" y="361" type="line"/>
	  <point x="82" y="361" type="line"/>
	  <point x="68" y="261" type="line"/>
	  <point x="327" y="261" type="line"/>
	  <point x="481" y="261" type="line"/>
	  <point x="495" y="361" type="line"/>
	</contour>
	<component base="t" xOffset="-37"/>
  </outline>
</glyph>
<glyph name="florin" format="1">
  <advance width="600"/>
  <unicode hex="0192"/>
  <outline>
	<contour>
	  <point x="307" y="759"/>
	  <point x="233" y="683"/>
	  <point x="218" y="581" type="curve" smooth="yes"/>
	  <point x="211" y="531" type="line"/>
	  <point x="129" y="531" type="line"/>
	  <point x="114" y="420" type="line"/>
	  <point x="196" y="420" type="line"/>
	  <point x="144" y="55" type="line" smooth="yes"/>
	  <point x="131" y="-41"/>
	  <point x="83" y="-72"/>
	  <point x="10" y="-104" type="curve"/>
	  <point x="56" y="-224" type="line"/>
	  <point x="186" y="-179"/>
	  <point x="279" y="-117"/>
	  <point x="304" y="60" type="curve" smooth="yes"/>
	  <point x="355" y="420" type="line"/>
	  <point x="464" y="420" type="line"/>
	  <point x="496" y="531" type="line"/>
	  <point x="370" y="531" type="line"/>
	  <point x="375" y="567" type="line" smooth="yes"/>
	  <point x="383" y="618"/>
	  <point x="405" y="641"/>
	  <point x="463" y="641" type="curve" smooth="yes"/>
	  <point x="485" y="641"/>
	  <point x="511" y="638"/>
	  <point x="543" y="623" type="curve"/>
	  <point x="596" y="723" type="line"/>
	  <point x="555" y="743"/>
	  <point x="505" y="759"/>
	  <point x="440" y="759" type="curve" smooth="yes"/>
	</contour>
  </outline>
</glyph>
<glyph name="dotlessj" format="1">
  <advance width="600"/>
  <unicode hex="0237"/>
  <outline>
	<contour>
	  <point x="160" y="531" type="line"/>
	  <point x="145" y="422" type="line"/>
	  <point x="335" y="422" type="line"/>
	  <point x="297" y="150" type="line" smooth="yes"/>
	  <point x="275" y="-5"/>
	  <point x="181" y="-62"/>
	  <point x="15" y="-99" type="curve"/>
	  <point x="29" y="-223" type="line"/>
	  <point x="284" y="-174"/>
	  <point x="424" y="-80"/>
	  <point x="457" y="152" type="curve" smooth="yes"/>
	  <point x="510" y="531" type="line"/>
	</contour>
	<contour>
	  <point x="444" y="531" type="move" name="top"/>
	</contour>
  </outline>
</glyph>
<glyph name="uni02BC" format="1">
  <advance width="600"/>
  <unicode hex="02BC"/>
  <outline>
	<contour>
	  <point x="311" y="758"/>
	  <point x="276" y="727"/>
	  <point x="271" y="689" type="curve" smooth="yes"/>
	  <point x="266" y="655"/>
	  <point x="280" y="633"/>
	  <point x="297" y="618" type="curve"/>
	  <point x="263" y="537" type="line"/>
	  <point x="345" y="537" type="line"/>
	  <point x="392" y="600" type="line" smooth="yes"/>
	  <point x="410" y="630"/>
	  <point x="425" y="656"/>
	  <point x="428" y="675" type="curve" smooth="yes"/>
	  <point x="434" y="721"/>
	  <point x="402" y="758"/>
	  <point x="353" y="758" type="curve" smooth="yes"/>
	</contour>
  </outline>
</glyph>
<glyph name="caron" format="1">
  <advance width="600"/>
  <unicode hex="02C7"/>
  <outline>
	<contour>
	  <point x="362" y="722" type="line"/>
	  <point x="242" y="816" type="line"/>
	  <point x="177" y="751" type="line"/>
	  <point x="301" y="611" type="line"/>
	  <point x="399" y="611" type="line"/>
	  <point x="558" y="751" type="line"/>
	  <point x="508" y="816" type="line"/>
	</contour>
	<contour>
	  <point x="374" y="531" type="move" name="_top"/>
	</contour>
  </outline>
</glyph>
<glyph name="breve" format="1">
  <advance width="600"/>
  <unicode hex="02D8"/>
  <outline>
	<contour>
	  <point x="462" y="611"/>
	  <point x="525" y="694"/>
	  <point x="546" y="783" type="curve"/>
	  <point x="460" y="806" type="line"/>
	  <point x="441" y="758"/>
	  <point x="407" y="721"/>
	  <point x="357" y="721" type="curve" smooth="yes"/>
	  <point x="315" y="721"/>
	  <point x="294" y="750"/>
	  <point x="289" y="798" type="curve"/>
	  <point x="201" y="791" type="line"/>
	  <point x="196" y="702"/>
	  <point x="241" y="611"/>
	  <point x="356" y="611" type="curve" smooth="yes"/>
	</contour>
	<contour>
	  <point x="374" y="531" type="move" name="_top"/>
	</contour>
  </outline>
</glyph>
<glyph name="dotaccent" format="1">
  <advance width="600"/>
  <unicode hex="02D9"/>
  <outline>
	<contour>
	  <point x="318" y="810"/>
	  <point x="277" y="775"/>
	  <point x="270" y="729" type="curve" smooth="yes"/>
	  <point x="262" y="673"/>
	  <point x="298" y="630"/>
	  <point x="358" y="630" type="curve" smooth="yes"/>
	  <point x="409" y="630"/>
	  <point x="450" y="665"/>
	  <point x="457" y="711" type="curve" smooth="yes"/>
	  <point x="464" y="767"/>
	  <point x="429" y="810"/>
	  <point x="370" y="810" type="curve" smooth="yes"/>
	</contour>
	<contour>
	  <point x="428" y="720" type="move" name="_center"/>
	</contour>
	<contour>
	  <point x="374" y="531" type="move" name="_top"/>
	</contour>
  </outline>
</glyph>
<glyph name="ring" format="1">
  <advance width="600"/>
  <unicode hex="02DA"/>
  <outline>
	<contour>
	  <point x="294" y="866"/>
	  <point x="236" y="809"/>
	  <point x="227" y="743" type="curve" smooth="yes"/>
	  <point x="216" y="667"/>
	  <point x="263" y="601"/>
	  <point x="353" y="601" type="curve" smooth="yes"/>
	  <point x="436" y="601"/>
	  <point x="494" y="659"/>
	  <point x="504" y="725" type="curve" smooth="yes"/>
	  <point x="514" y="801"/>
	  <point x="467" y="866"/>
	  <point x="376" y="866" type="curve" smooth="yes"/>
	</contour>
	<contour>
	  <point x="402" y="783"/>
	  <point x="415" y="771"/>
	  <point x="411" y="743" type="curve" smooth="yes"/>
	  <point x="406" y="704"/>
	  <point x="382" y="684"/>
	  <point x="351" y="684" type="curve" smooth="yes"/>
	  <point x="329" y="684"/>
	  <point x="316" y="696"/>
	  <point x="320" y="725" type="curve" smooth="yes"/>
	  <point x="325" y="763"/>
	  <point x="349" y="783"/>
	  <point x="379" y="783" type="curve" smooth="yes"/>
	</contour>
	<contour>
	  <point x="374" y="531" type="move" name="_top"/>
	</contour>
  </outline>
</glyph>
<glyph name="ogonek" format="1">
  <advance width="600"/>
  <unicode hex="02DB"/>
  <outline>
	<contour>
	  <point x="223" y="18"/>
	  <point x="129" y="-20"/>
	  <point x="115" y="-121" type="curve" smooth="yes"/>
	  <point x="103" y="-206"/>
	  <point x="166" y="-254"/>
	  <point x="255" y="-254" type="curve" smooth="yes"/>
	  <point x="274" y="-254"/>
	  <point x="292" y="-252"/>
	  <point x="311" y="-247" type="curve"/>
	  <point x="330" y="-151" type="line"/>
	  <point x="313" y="-155"/>
	  <point x="296" y="-159"/>
	  <point x="271" y="-159" type="curve" smooth="yes"/>
	  <point x="240" y="-159"/>
	  <point x="222" y="-147"/>
	  <point x="226" y="-119" type="curve" smooth="yes"/>
	  <point x="232" y="-73"/>
	  <point x="263" y="-33"/>
	  <point x="361" y="-1" type="curve"/>
	  <point x="343" y="53" type="line"/>
	</contour>
	<contour>
	  <point x="331" y="0" type="move" name="_ogonek"/>
	</contour>
  </outline>
</glyph>
<glyph name="tilde" format="1">
  <advance width="600"/>
  <unicode hex="02DC"/>
  <outline>
	<contour>
	  <point x="475" y="632"/>
	  <point x="524" y="684"/>
	  <point x="557" y="747" type="curve"/>
	  <point x="480" y="793" type="line"/>
	  <point x="460" y="765"/>
	  <point x="445" y="746"/>
	  <point x="417" y="746" type="curve" smooth="yes"/>
	  <point x="390" y="746"/>
	  <point x="379" y="790"/>
	  <point x="310" y="790" type="curve" smooth="yes"/>
	  <point x="251" y="790"/>
	  <point x="201" y="739"/>
	  <point x="169" y="676" type="curve"/>
	  <point x="245" y="630" type="line"/>
	  <point x="265" y="658"/>
	  <point x="281" y="677"/>
	  <point x="308" y="677" type="curve" smooth="yes"/>
	  <point x="335" y="677"/>
	  <point x="348" y="632"/>
	  <point x="415" y="632" type="curve" smooth="yes"/>
	</contour>
	<contour>
	  <point x="374" y="531" type="move" name="_top"/>
	</contour>
  </outline>
</glyph>
<glyph name="hungarumlaut" format="1">
  <advance width="600"/>
  <unicode hex="02DD"/>
  <outline>
	<contour>
	  <point x="250" y="625" type="line"/>
	  <point x="399" y="808" type="line"/>
	  <point x="295" y="858" type="line"/>
	  <point x="169" y="661" type="line"/>
	</contour>
	<contour>
	  <point x="411" y="624" type="line"/>
	  <point x="562" y="806" type="line"/>
	  <point x="459" y="858" type="line"/>
	  <point x="332" y="663" type="line"/>
	</contour>
	<contour>
	  <point x="329" y="531" type="move" name="_top"/>
	</contour>
  </outline>
</glyph>
<glyph name="acutecomb" format="1">
  <advance width="600"/>
  <unicode hex="0301"/>
  <outline>
	<contour>
	  <point x="224" y="706" type="line"/>
	  <point x="252" y="625" type="line"/>
	  <point x="499" y="709" type="line"/>
	  <point x="455" y="828" type="line"/>
	</contour>
	<contour>
	  <point x="374" y="531" type="move" name="_top"/>
	</contour>
  </outline>
</glyph>
<glyph name="uni0302" format="1">
  <advance width="600"/>
  <unicode hex="0302"/>
  <outline>
	<contour>
	  <point x="324" y="782" type="line"/>
	  <point x="164" y="651" type="line"/>
	  <point x="215" y="586" type="line"/>
	  <point x="360" y="671" type="line"/>
	  <point x="481" y="586" type="line"/>
	  <point x="545" y="651" type="line"/>
	  <point x="422" y="782" type="line"/>
	</contour>
	<contour>
	  <point x="375" y="531" type="move" name="_top"/>
	</contour>
  </outline>
</glyph>
<glyph name="uni0306" format="1">
  <advance width="600"/>
  <unicode hex="0306"/>
  <outline>
	<contour>
	  <point x="459" y="589"/>
	  <point x="519" y="654"/>
	  <point x="540" y="740" type="curve"/>
	  <point x="454" y="764" type="line"/>
	  <point x="435" y="722"/>
	  <point x="404" y="700"/>
	  <point x="354" y="700" type="curve" smooth="yes"/>
	  <point x="312" y="700"/>
	  <point x="290" y="714"/>
	  <point x="283" y="756" type="curve"/>
	  <point x="195" y="748" type="line"/>
	  <point x="193" y="662"/>
	  <point x="237" y="589"/>
	  <point x="352" y="589" type="curve" smooth="yes"/>
	</contour>
	<contour>
	  <point x="374" y="531" type="move" name="_top"/>
	</contour>
  </outline>
</glyph>
<glyph name="uni030C" format="1">
  <advance width="600"/>
  <unicode hex="030C"/>
  <outline>
	<contour>
	  <point x="360" y="700" type="line"/>
	  <point x="239" y="785" type="line"/>
	  <point x="174" y="720" type="line"/>
	  <point x="298" y="589" type="line"/>
	  <point x="396" y="589" type="line"/>
	  <point x="555" y="720" type="line"/>
	  <point x="505" y="785" type="line"/>
	</contour>
	<contour>
	  <point x="375" y="531" type="move" name="_top"/>
	</contour>
  </outline>
</glyph>
<glyph name="uni0326" format="1">
  <advance width="600"/>
  <unicode hex="0326"/>
  <outline>
	<contour>
	  <point x="206" y="-65"/>
	  <point x="170" y="-96"/>
	  <point x="165" y="-134" type="curve" smooth="yes"/>
	  <point x="160" y="-168"/>
	  <point x="174" y="-190"/>
	  <point x="191" y="-205" type="curve"/>
	  <point x="143" y="-323" type="line"/>
	  <point x="225" y="-323" type="line"/>
	  <point x="289" y="-230" type="line" smooth="yes"/>
	  <point x="307" y="-200"/>
	  <point x="319" y="-171"/>
	  <point x="321" y="-152" type="curve" smooth="yes"/>
	  <point x="328" y="-102"/>
	  <point x="297" y="-65"/>
	  <point x="248" y="-65" type="curve" smooth="yes"/>
	</contour>
	<contour>
	  <point x="227" y="0" type="move" name="_bottom"/>
	</contour>
  </outline>
</glyph>
<glyph name="strokeshortoverlay" format="1">
  <advance width="600"/>
  <unicode hex="0335"/>
  <outline>
	<contour>
	  <point x="515" y="376" type="line"/>
	  <point x="118" y="376" type="line"/>
	  <point x="104" y="282" type="line"/>
	  <point x="501" y="282" type="line"/>
	</contour>
  </outline>
</glyph>
<glyph name="strokelongoverlay" format="1">
  <advance width="600"/>
  <unicode hex="0336"/>
  <outline>
	<contour>
	  <point x="650" y="376" type="line"/>
	  <point x="-18" y="376" type="line"/>
	  <point x="-32" y="282" type="line"/>
	  <point x="636" y="282" type="line"/>
	</contour>
  </outline>
</glyph>
<glyph name="dieresistonos" format="1">
  <advance width="600"/>
  <unicode hex="0385"/>
  <outline>
	<contour>
	  <point x="321" y="750" type="line"/>
	  <point x="410" y="736" type="line"/>
	  <point x="510" y="927" type="line"/>
	  <point x="377" y="950" type="line"/>
	</contour>
	<contour>
	  <point x="189" y="763"/>
	  <point x="152" y="733"/>
	  <point x="146" y="695" type="curve" smooth="yes"/>
	  <point x="139" y="646"/>
	  <point x="173" y="608"/>
	  <point x="222" y="608" type="curve" smooth="yes"/>
	  <point x="262" y="608"/>
	  <point x="298" y="638"/>
	  <point x="304" y="677" type="curve" smooth="yes"/>
	  <point x="311" y="725"/>
	  <point x="278" y="763"/>
	  <point x="230" y="763" type="curve" smooth="yes"/>
	</contour>
	<contour>
	  <point x="457" y="763"/>
	  <point x="421" y="733"/>
	  <point x="415" y="695" type="curve" smooth="yes"/>
	  <point x="408" y="646"/>
	  <point x="441" y="608"/>
	  <point x="489" y="608" type="curve" smooth="yes"/>
	  <point x="531" y="608"/>
	  <point x="566" y="638"/>
	  <point x="572" y="677" type="curve" smooth="yes"/>
	  <point x="579" y="725"/>
	  <point x="547" y="763"/>
	  <point x="497" y="763" type="curve" smooth="yes"/>
	</contour>
  </outline>
</glyph>
<glyph name="Delta" format="1">
  <advance width="600"/>
  <unicode hex="0394"/>
  <outline>
	<contour>
	  <point x="259" y="693" type="line"/>
	  <point x="-50" y="0" type="line"/>
	  <point x="575" y="0" type="line"/>
	  <point x="460" y="693" type="line"/>
	</contour>
	<contour>
	  <point x="386" y="135" type="line"/>
	  <point x="177" y="135" type="line"/>
	  <point x="342" y="574" type="line"/>
	</contour>
  </outline>
</glyph>
<glyph name="Theta" format="1">
  <advance width="600"/>
  <unicode hex="0398"/>
  <outline>
	<contour>
	  <point x="393" y="398" type="line"/>
	  <point x="244" y="398" type="line"/>
	  <point x="231" y="307" type="line"/>
	  <point x="380" y="307" type="line"/>
	</contour>
	<contour>
	  <point x="621" y="568"/>
	  <point x="542" y="711"/>
	  <point x="356" y="711" type="curve" smooth="yes"/>
	  <point x="178" y="711"/>
	  <point x="65" y="571"/>
	  <point x="35" y="356" type="curve" smooth="yes"/>
	  <point x="2" y="126"/>
	  <point x="81" y="-17"/>
	  <point x="267" y="-17" type="curve" smooth="yes"/>
	  <point x="445" y="-17"/>
	  <point x="558" y="123"/>
	  <point x="588" y="338" type="curve" smooth="yes"/>
	</contour>
	<contour>
	  <point x="402" y="179"/>
	  <point x="353" y="104"/>
	  <point x="270" y="104" type="curve" smooth="yes"/>
	  <point x="198" y="104"/>
	  <point x="173" y="170"/>
	  <point x="196" y="338" type="curve" smooth="yes"/>
	  <point x="221" y="517"/>
	  <point x="272" y="590"/>
	  <point x="353" y="590" type="curve" smooth="yes"/>
	  <point x="426" y="590"/>
	  <point x="450" y="524"/>
	  <point x="427" y="356" type="curve" smooth="yes"/>
	</contour>
  </outline>
</glyph>
<glyph name="Lambda" format="1">
  <advance width="600"/>
  <unicode hex="039B"/>
  <outline>
	<contour>
	  <point x="259" y="693" type="line"/>
	  <point x="-46" y="0" type="line"/>
	  <point x="131" y="0" type="line"/>
	  <point x="343" y="570" type="line"/>
	  <point x="394" y="0" type="line"/>
	  <point x="570" y="0" type="line"/>
	  <point x="460" y="693" type="line"/>
	</contour>
  </outline>
</glyph>
<glyph name="Xi" format="1">
  <advance width="600"/>
  <unicode hex="039E"/>
  <outline>
	<contour>
	  <point x="34" y="136" type="line"/>
	  <point x="15" y="0" type="line"/>
	  <point x="511" y="0" type="line"/>
	  <point x="530" y="136" type="line"/>
	</contour>
	<contour>
	  <point x="133" y="414" type="line"/>
	  <point x="115" y="290" type="line"/>
	  <point x="488" y="290" type="line"/>
	  <point x="506" y="414" type="line"/>
	</contour>
	<contour>
	  <point x="112" y="693" type="line"/>
	  <point x="94" y="562" type="line"/>
	  <point x="571" y="562" type="line"/>
	  <point x="608" y="693" type="line"/>
	</contour>
  </outline>
</glyph>
<glyph name="Sigma" format="1">
  <advance width="600"/>
  <unicode hex="03A3"/>
  <outline>
	<contour>
	  <point x="438" y="376" type="line"/>
	  <point x="280" y="573" type="line"/>
	  <point x="589" y="573" type="line"/>
	  <point x="606" y="693" type="line"/>
	  <point x="114" y="693" type="line"/>
	  <point x="98" y="573" type="line"/>
	  <point x="276" y="341" type="line"/>
	  <point x="33" y="120" type="line"/>
	  <point x="17" y="0" type="line"/>
	  <point x="509" y="0" type="line"/>
	  <point x="526" y="123" type="line"/>
	  <point x="217" y="123" type="line"/>
	  <point x="430" y="311" type="line"/>
	</contour>
  </outline>
</glyph>
<glyph name="Phi" format="1">
  <advance width="600"/>
  <unicode hex="03A6"/>
  <outline>
	<contour>
	  <point x="303" y="693" type="line"/>
	  <point x="289" y="614" type="line"/>
	  <point x="125" y="608"/>
	  <point x="42" y="535"/>
	  <point x="17" y="359" type="curve" smooth="yes"/>
	  <point x="-9" y="175"/>
	  <point x="58" y="85"/>
	  <point x="220" y="80" type="curve"/>
	  <point x="206" y="0" type="line"/>
	  <point x="320" y="0" type="line"/>
	  <point x="334" y="80" type="line"/>
	  <point x="492" y="85"/>
	  <point x="582" y="167"/>
	  <point x="607" y="341" type="curve" smooth="yes"/>
	  <point x="633" y="527"/>
	  <point x="559" y="608"/>
	  <point x="403" y="614" type="curve"/>
	  <point x="417" y="693" type="line"/>
	</contour>
	<contour>
	  <point x="237" y="171" type="line"/>
	  <point x="155" y="173"/>
	  <point x="146" y="233"/>
	  <point x="162" y="341" type="curve" smooth="yes"/>
	  <point x="178" y="460"/>
	  <point x="214" y="524"/>
	  <point x="292" y="525" type="curve"/>
	</contour>
	<contour>
	  <point x="463" y="524"/>
	  <point x="477" y="468"/>
	  <point x="462" y="359" type="curve" smooth="yes"/>
	  <point x="446" y="242"/>
	  <point x="413" y="173"/>
	  <point x="331" y="171" type="curve"/>
	  <point x="386" y="525" type="line"/>
	</contour>
  </outline>
</glyph>
<glyph name="Psi" format="1">
  <advance width="600"/>
  <unicode hex="03A8"/>
  <outline>
	<contour>
	  <point x="336" y="0" type="line"/>
	  <point x="364" y="183" type="line"/>
	  <point x="515" y="205"/>
	  <point x="592" y="289"/>
	  <point x="611" y="419" type="curve" smooth="yes"/>
	  <point x="649" y="693" type="line"/>
	  <point x="509" y="693" type="line"/>
	  <point x="471" y="423" type="line" smooth="yes"/>
	  <point x="460" y="346"/>
	  <point x="436" y="306"/>
	  <point x="364" y="291" type="curve"/>
	  <point x="423" y="693" type="line"/>
	  <point x="298" y="693" type="line"/>
	  <point x="238" y="288" type="line"/>
	  <point x="167" y="302"/>
	  <point x="161" y="337"/>
	  <point x="172" y="415" type="curve" smooth="yes"/>
	  <point x="211" y="693" type="line"/>
	  <point x="71" y="693" type="line"/>
	  <point x="34" y="427" type="line" smooth="yes"/>
	  <point x="15" y="293"/>
	  <point x="72" y="205"/>
	  <point x="219" y="184" type="curve"/>
	  <point x="190" y="0" type="line"/>
	</contour>
  </outline>
</glyph>
<glyph name="Omega" format="1">
  <advance width="600"/>
  <unicode hex="03A9"/>
  <outline>
	<contour>
	  <point x="423" y="589"/>
	  <point x="444" y="524"/>
	  <point x="425" y="387" type="curve" smooth="yes"/>
	  <point x="403" y="231"/>
	  <point x="367" y="152"/>
	  <point x="303" y="118" type="curve"/>
	  <point x="290" y="0" type="line"/>
	  <point x="530" y="0" type="line"/>
	  <point x="546" y="118" type="line"/>
	  <point x="436" y="118" type="line"/>
	  <point x="440" y="120" type="line"/>
	  <point x="527" y="163"/>
	  <point x="576" y="249"/>
	  <point x="593" y="369" type="curve" smooth="yes"/>
	  <point x="620" y="565"/>
	  <point x="539" y="711"/>
	  <point x="356" y="711" type="curve" smooth="yes"/>
	  <point x="181" y="711"/>
	  <point x="65" y="573"/>
	  <point x="39" y="387" type="curve" smooth="yes"/>
	  <point x="21" y="257"/>
	  <point x="50" y="166"/>
	  <point x="125" y="124" type="curve"/>
	  <point x="120" y="118" type="line"/>
	  <point x="12" y="118" type="line"/>
	  <point x="-4" y="0" type="line"/>
	  <point x="236" y="0" type="line"/>
	  <point x="249" y="114" type="line"/>
	  <point x="196" y="149"/>
	  <point x="186" y="223"/>
	  <point x="207" y="369" type="curve" smooth="yes"/>
	  <point x="227" y="516"/>
	  <point x="273" y="589"/>
	  <point x="352" y="589" type="curve" smooth="yes"/>
	</contour>
	<contour>
	  <point x="420" y="693" type="move" name="top"/>
	</contour>
  </outline>
</glyph>
<glyph name="alpha" format="1">
  <advance width="600"/>
  <unicode hex="03B1"/>
  <outline>
	<contour>
	  <point x="155" y="549"/>
	  <point x="57" y="432"/>
	  <point x="35" y="272" type="curve" smooth="yes"/>
	  <point x="9" y="90"/>
	  <point x="73" y="-17"/>
	  <point x="202" y="-17" type="curve" smooth="yes"/>
	  <point x="284" y="-17"/>
	  <point x="342" y="25"/>
	  <point x="381" y="126" type="curve"/>
	  <point x="386" y="81" type="line" smooth="yes"/>
	  <point x="391" y="14"/>
	  <point x="427" y="-6"/>
	  <point x="483" y="-16" type="curve"/>
	  <point x="547" y="102" type="line"/>
	  <point x="518" y="108"/>
	  <point x="503" y="117"/>
	  <point x="499" y="165" type="curve" smooth="yes"/>
	  <point x="490" y="284" type="line"/>
	  <point x="610" y="531" type="line"/>
	  <point x="464" y="531" type="line"/>
	  <point x="422" y="401" type="line"/>
	  <point x="425" y="490"/>
	  <point x="380" y="549"/>
	  <point x="279" y="549" type="curve" smooth="yes"/>
	</contour>
	<contour>
	  <point x="337" y="432"/>
	  <point x="360" y="391"/>
	  <point x="361" y="275" type="curve"/>
	  <point x="318" y="137"/>
	  <point x="274" y="99"/>
	  <point x="234" y="99" type="curve" smooth="yes"/>
	  <point x="198" y="99"/>
	  <point x="178" y="140"/>
	  <point x="194" y="254" type="curve" smooth="yes"/>
	  <point x="211" y="375"/>
	  <point x="248" y="432"/>
	  <point x="298" y="432" type="curve" smooth="yes"/>
	</contour>
	<contour>
	  <point x="344" y="531" type="move" name="top"/>
	</contour>
  </outline>
</glyph>
<glyph name="beta" format="1">
  <advance width="600"/>
  <unicode hex="03B2"/>
  <outline>
	<contour>
	  <point x="218" y="764"/>
	  <point x="112" y="691"/>
	  <point x="92" y="553" type="curve" smooth="yes"/>
	  <point x="-17" y="-227" type="line"/>
	  <point x="148" y="-200" type="line"/>
	  <point x="254" y="554" type="line" smooth="yes"/>
	  <point x="262" y="614"/>
	  <point x="296" y="646"/>
	  <point x="344" y="646" type="curve" smooth="yes"/>
	  <point x="383" y="646"/>
	  <point x="401" y="618"/>
	  <point x="393" y="561" type="curve" smooth="yes"/>
	  <point x="383" y="490"/>
	  <point x="347" y="452"/>
	  <point x="307" y="452" type="curve" smooth="yes"/>
	  <point x="291" y="452" type="line"/>
	  <point x="265" y="338" type="line"/>
	  <point x="300" y="338" type="line" smooth="yes"/>
	  <point x="365" y="338"/>
	  <point x="408" y="305"/>
	  <point x="397" y="229" type="curve" smooth="yes"/>
	  <point x="384" y="138"/>
	  <point x="330" y="99"/>
	  <point x="269" y="99" type="curve" smooth="yes"/>
	  <point x="224" y="99"/>
	  <point x="191" y="116"/>
	  <point x="157" y="145" type="curve"/>
	  <point x="116" y="88" type="line"/>
	  <point x="167" y="22"/>
	  <point x="231" y="-20"/>
	  <point x="310" y="-20" type="curve" smooth="yes"/>
	  <point x="446" y="-20"/>
	  <point x="540" y="71"/>
	  <point x="558" y="201" type="curve" smooth="yes"/>
	  <point x="580" y="357"/>
	  <point x="476" y="398"/>
	  <point x="400" y="404" type="curve"/>
	  <point x="498" y="428"/>
	  <point x="544" y="478"/>
	  <point x="555" y="558" type="curve" smooth="yes"/>
	  <point x="571" y="673"/>
	  <point x="495" y="764"/>
	  <point x="347" y="764" type="curve" smooth="yes"/>
	</contour>
  </outline>
</glyph>
<glyph name="gamma" format="1">
  <advance width="600"/>
  <unicode hex="03B3"/>
  <outline>
	<contour>
	  <point x="283" y="136" type="line"/>
	  <point x="286" y="316"/>
	  <point x="253" y="455"/>
	  <point x="209" y="543" type="curve"/>
	  <point x="48" y="494" type="line"/>
	  <point x="121" y="381"/>
	  <point x="167" y="229"/>
	  <point x="191" y="22" type="curve"/>
	  <point x="148" y="-66"/>
	  <point x="141" y="-142"/>
	  <point x="166" y="-216" type="curve"/>
	  <point x="291" y="-211" type="line"/>
	  <point x="288" y="-120"/>
	  <point x="302" y="-50"/>
	  <point x="343" y="22" type="curve" smooth="yes"/>
	  <point x="621" y="508" type="line"/>
	  <point x="464" y="545" type="line"/>
	</contour>
  </outline>
</glyph>
<glyph name="delta" format="1">
  <advance width="600"/>
  <unicode hex="03B4"/>
  <outline>
	<contour>
	  <point x="237" y="759"/>
	  <point x="159" y="698"/>
	  <point x="147" y="614" type="curve" smooth="yes"/>
	  <point x="137" y="546"/>
	  <point x="157" y="507"/>
	  <point x="225" y="469" type="curve"/>
	  <point x="116" y="423"/>
	  <point x="54" y="348"/>
	  <point x="40" y="251" type="curve" smooth="yes"/>
	  <point x="17" y="91"/>
	  <point x="101" y="-17"/>
	  <point x="268" y="-17" type="curve" smooth="yes"/>
	  <point x="422" y="-17"/>
	  <point x="534" y="84"/>
	  <point x="556" y="239" type="curve" smooth="yes"/>
	  <point x="578" y="392"/>
	  <point x="521" y="464"/>
	  <point x="380" y="522" type="curve" smooth="yes"/>
	  <point x="311" y="554"/>
	  <point x="300" y="567"/>
	  <point x="304" y="593" type="curve" smooth="yes"/>
	  <point x="308" y="623"/>
	  <point x="335" y="645"/>
	  <point x="385" y="645" type="curve" smooth="yes"/>
	  <point x="422" y="645"/>
	  <point x="455" y="637"/>
	  <point x="487" y="612" type="curve"/>
	  <point x="570" y="693" type="line"/>
	  <point x="528" y="729"/>
	  <point x="467" y="759"/>
	  <point x="381" y="759" type="curve" smooth="yes"/>
	</contour>
	<contour>
	  <point x="392" y="387"/>
	  <point x="407" y="352"/>
	  <point x="394" y="258" type="curve" smooth="yes"/>
	  <point x="379" y="150"/>
	  <point x="336" y="100"/>
	  <point x="270" y="100" type="curve" smooth="yes"/>
	  <point x="212" y="100"/>
	  <point x="189" y="145"/>
	  <point x="202" y="240" type="curve" smooth="yes"/>
	  <point x="214" y="321"/>
	  <point x="241" y="376"/>
	  <point x="312" y="424" type="curve"/>
	</contour>
  </outline>
</glyph>
<glyph name="epsilon" format="1">
  <advance width="600"/>
  <unicode hex="03B5"/>
  <outline>
	<contour>
	  <point x="443" y="324" type="line"/>
	  <point x="333" y="324" type="line" smooth="yes"/>
	  <point x="276" y="324"/>
	  <point x="256" y="344"/>
	  <point x="260" y="374" type="curve" smooth="yes"/>
	  <point x="266" y="416"/>
	  <point x="305" y="438"/>
	  <point x="367" y="438" type="curve" smooth="yes"/>
	  <point x="413" y="438"/>
	  <point x="461" y="430"/>
	  <point x="496" y="409" type="curve"/>
	  <point x="573" y="491" type="line"/>
	  <point x="513" y="530"/>
	  <point x="436" y="549"/>
	  <point x="348" y="549" type="curve" smooth="yes"/>
	  <point x="220" y="549"/>
	  <point x="116" y="501"/>
	  <point x="104" y="414" type="curve" smooth="yes"/>
	  <point x="95" y="349"/>
	  <point x="127" y="303"/>
	  <point x="208" y="285" type="curve"/>
	  <point x="104" y="270"/>
	  <point x="58" y="232"/>
	  <point x="48" y="158" type="curve" smooth="yes"/>
	  <point x="32" y="44"/>
	  <point x="135" y="-17"/>
	  <point x="292" y="-17" type="curve" smooth="yes"/>
	  <point x="392" y="-17"/>
	  <point x="478" y="5"/>
	  <point x="547" y="46" type="curve"/>
	  <point x="481" y="139" type="line"/>
	  <point x="430" y="112"/>
	  <point x="374" y="97"/>
	  <point x="307" y="97" type="curve" smooth="yes"/>
	  <point x="238" y="97"/>
	  <point x="208" y="117"/>
	  <point x="213" y="153" type="curve" smooth="yes"/>
	  <point x="219" y="196"/>
	  <point x="251" y="222"/>
	  <point x="318" y="222" type="curve" smooth="yes"/>
	  <point x="414" y="222" type="line"/>
	</contour>
	<contour>
	  <point x="389" y="531" type="move" name="top"/>
	</contour>
	<contour>
	  <point x="245" y="0" type="move" name="bottom"/>
	</contour>
  </outline>
</glyph>
<glyph name="zeta" format="1">
  <advance width="600"/>
  <unicode hex="03B6"/>
  <outline>
	<contour>
	  <point x="212" y="742" type="line"/>
	  <point x="178" y="626" type="line"/>
	  <point x="285" y="626" type="line" smooth="yes"/>
	  <point x="373" y="626"/>
	  <point x="440" y="625"/>
	  <point x="467" y="640" type="curve"/>
	  <point x="214" y="512"/>
	  <point x="112" y="392"/>
	  <point x="94" y="262" type="curve" smooth="yes"/>
	  <point x="73" y="113"/>
	  <point x="144" y="64"/>
	  <point x="296" y="5" type="curve" smooth="yes"/>
	  <point x="343" y="-15"/>
	  <point x="354" y="-22"/>
	  <point x="351" y="-38" type="curve" smooth="yes"/>
	  <point x="346" y="-79"/>
	  <point x="308" y="-102"/>
	  <point x="259" y="-128" type="curve"/>
	  <point x="310" y="-228" type="line"/>
	  <point x="440" y="-175"/>
	  <point x="504" y="-117"/>
	  <point x="515" y="-37" type="curve" smooth="yes"/>
	  <point x="526" y="40"/>
	  <point x="486" y="69"/>
	  <point x="363" y="117" type="curve" smooth="yes"/>
	  <point x="271" y="156"/>
	  <point x="248" y="179"/>
	  <point x="258" y="250" type="curve" smooth="yes"/>
	  <point x="274" y="366"/>
	  <point x="382" y="488"/>
	  <point x="622" y="643" type="curve"/>
	  <point x="615" y="742" type="line"/>
	</contour>
  </outline>
</glyph>
<glyph name="eta" format="1">
  <advance width="600"/>
  <unicode hex="03B7"/>
  <outline>
	<contour>
	  <point x="365" y="549"/>
	  <point x="308" y="526"/>
	  <point x="250" y="468" type="curve"/>
	  <point x="252" y="496"/>
	  <point x="246" y="524"/>
	  <point x="239" y="541" type="curve"/>
	  <point x="92" y="529" type="line"/>
	  <point x="97" y="495"/>
	  <point x="99" y="439"/>
	  <point x="92" y="387" type="curve" smooth="yes"/>
	  <point x="38" y="0" type="line"/>
	  <point x="198" y="0" type="line"/>
	  <point x="251" y="363" type="line"/>
	  <point x="286" y="403"/>
	  <point x="320" y="431"/>
	  <point x="357" y="431" type="curve" smooth="yes"/>
	  <point x="392" y="431"/>
	  <point x="398" y="413"/>
	  <point x="389" y="349" type="curve" smooth="yes"/>
	  <point x="308" y="-222" type="line"/>
	  <point x="471" y="-205" type="line"/>
	  <point x="554" y="386" type="line" smooth="yes"/>
	  <point x="568" y="487"/>
	  <point x="522" y="549"/>
	  <point x="424" y="549" type="curve" smooth="yes"/>
	</contour>
	<contour>
	  <point x="384" y="531" type="move" name="top"/>
	</contour>
  </outline>
</glyph>
<glyph name="theta" format="1">
  <advance width="600"/>
  <unicode hex="03B8"/>
  <outline>
	<contour>
	  <point x="203" y="759"/>
	  <point x="92" y="628"/>
	  <point x="57" y="381" type="curve" smooth="yes"/>
	  <point x="21" y="120"/>
	  <point x="100" y="-17"/>
	  <point x="267" y="-17" type="curve" smooth="yes"/>
	  <point x="426" y="-17"/>
	  <point x="538" y="114"/>
	  <point x="573" y="364" type="curve" smooth="yes"/>
	  <point x="609" y="623"/>
	  <point x="530" y="759"/>
	  <point x="362" y="759" type="curve" smooth="yes"/>
	</contour>
	<contour>
	  <point x="383" y="152"/>
	  <point x="337" y="98"/>
	  <point x="269" y="98" type="curve" smooth="yes"/>
	  <point x="209" y="98"/>
	  <point x="183" y="144"/>
	  <point x="203" y="320" type="curve"/>
	  <point x="413" y="328" type="line"/>
	</contour>
	<contour>
	  <point x="421" y="644"/>
	  <point x="446" y="597"/>
	  <point x="426" y="421" type="curve"/>
	  <point x="217" y="413" type="line"/>
	  <point x="245" y="589"/>
	  <point x="292" y="644"/>
	  <point x="360" y="644" type="curve" smooth="yes"/>
	</contour>
  </outline>
</glyph>
<glyph name="iota" format="1">
  <advance width="600"/>
  <unicode hex="03B9"/>
  <outline>
	<contour>
	  <point x="186" y="165" type="line" smooth="yes"/>
	  <point x="171" y="56"/>
	  <point x="234" y="-17"/>
	  <point x="354" y="-17" type="curve" smooth="yes"/>
	  <point x="418" y="-17"/>
	  <point x="470" y="-3"/>
	  <point x="509" y="16" type="curve"/>
	  <point x="480" y="127" type="line"/>
	  <point x="457" y="118"/>
	  <point x="430" y="109"/>
	  <point x="399" y="109" type="curve" smooth="yes"/>
	  <point x="361" y="109"/>
	  <point x="340" y="121"/>
	  <point x="346" y="163" type="curve" smooth="yes"/>
	  <point x="397" y="531" type="line"/>
	  <point x="87" y="531" type="line"/>
	  <point x="58" y="415" type="line"/>
	  <point x="221" y="415" type="line"/>
	</contour>
	<contour>
	  <point x="364" y="531" type="move" name="top"/>
	</contour>
  </outline>
</glyph>
<glyph name="kappa" format="1">
  <advance width="600"/>
  <unicode hex="03BA"/>
  <outline>
	<contour>
	  <point x="239" y="278" type="line"/>
	  <point x="348" y="98" type="line"/>
	  <point x="387" y="21"/>
	  <point x="420" y="-11"/>
	  <point x="492" y="-18" type="curve"/>
	  <point x="559" y="107" type="line"/>
	  <point x="531" y="113"/>
	  <point x="512" y="121"/>
	  <point x="491" y="152" type="curve" smooth="yes"/>
	  <point x="403" y="287" type="line"/>
	  <point x="593" y="489" type="line"/>
	  <point x="468" y="547" type="line"/>
	</contour>
	<contour>
	  <point x="90" y="535" type="line"/>
	  <point x="98" y="473"/>
	  <point x="93" y="411"/>
	  <point x="85" y="352" type="curve" smooth="yes"/>
	  <point x="36" y="0" type="line"/>
	  <point x="196" y="0" type="line"/>
	  <point x="242" y="333" type="line" smooth="yes"/>
	  <point x="254" y="412"/>
	  <point x="249" y="484"/>
	  <point x="241" y="527" type="curve"/>
	</contour>
  </outline>
</glyph>
<glyph name="lambda" format="1">
  <advance width="600"/>
  <unicode hex="03BB"/>
  <outline>
	<contour>
	  <point x="-10" y="20" type="line"/>
	  <point x="145" y="-17" type="line"/>
	  <point x="317" y="422" type="line"/>
	  <point x="319" y="203"/>
	  <point x="341" y="90"/>
	  <point x="396" y="-13" type="curve"/>
	  <point x="556" y="29" type="line"/>
	  <point x="497" y="119"/>
	  <point x="468" y="231"/>
	  <point x="444" y="446" type="curve" smooth="yes"/>
	  <point x="425" y="662"/>
	  <point x="366" y="732"/>
	  <point x="169" y="757" type="curve"/>
	  <point x="141" y="650" type="line"/>
	  <point x="246" y="635"/>
	  <point x="275" y="611"/>
	  <point x="293" y="535" type="curve"/>
	  <point x="238" y="531" type="line"/>
	</contour>
  </outline>
</glyph>
<glyph name="nu" format="1">
  <advance width="600"/>
  <unicode hex="03BD"/>
  <outline>
	<contour>
	  <point x="348" y="0" type="line"/>
	  <point x="612" y="514" type="line"/>
	  <point x="461" y="549" type="line"/>
	  <point x="278" y="116" type="line"/>
	  <point x="280" y="323"/>
	  <point x="249" y="473"/>
	  <point x="198" y="545" type="curve"/>
	  <point x="50" y="501" type="line"/>
	  <point x="118" y="425"/>
	  <point x="155" y="217"/>
	  <point x="167" y="4" type="curve"/>
	</contour>
  </outline>
</glyph>
<glyph name="xi" format="1">
  <advance width="600"/>
  <unicode hex="03BE"/>
  <outline>
	<contour>
	  <point x="293" y="759"/>
	  <point x="174" y="697"/>
	  <point x="160" y="599" type="curve" smooth="yes"/>
	  <point x="148" y="515"/>
	  <point x="202" y="470"/>
	  <point x="272" y="446" type="curve"/>
	  <point x="177" y="428"/>
	  <point x="90" y="377"/>
	  <point x="75" y="271" type="curve" smooth="yes"/>
	  <point x="54" y="123"/>
	  <point x="139" y="83"/>
	  <point x="306" y="16" type="curve" smooth="yes"/>
	  <point x="345" y="-4"/>
	  <point x="356" y="-12"/>
	  <point x="353" y="-32" type="curve" smooth="yes"/>
	  <point x="346" y="-80"/>
	  <point x="295" y="-111"/>
	  <point x="262" y="-128" type="curve"/>
	  <point x="313" y="-228" type="line"/>
	  <point x="442" y="-175"/>
	  <point x="507" y="-117"/>
	  <point x="518" y="-38" type="curve" smooth="yes"/>
	  <point x="531" y="52"/>
	  <point x="482" y="85"/>
	  <point x="390" y="119" type="curve" smooth="yes"/>
	  <point x="262" y="173"/>
	  <point x="228" y="189"/>
	  <point x="239" y="264" type="curve" smooth="yes"/>
	  <point x="250" y="342"/>
	  <point x="312" y="383"/>
	  <point x="405" y="383" type="curve" smooth="yes"/>
	  <point x="488" y="383" type="line"/>
	  <point x="517" y="488" type="line"/>
	  <point x="417" y="488" type="line" smooth="yes"/>
	  <point x="343" y="488"/>
	  <point x="308" y="505"/>
	  <point x="316" y="562" type="curve" smooth="yes"/>
	  <point x="323" y="616"/>
	  <point x="375" y="647"/>
	  <point x="440" y="647" type="curve" smooth="yes"/>
	  <point x="481" y="647"/>
	  <point x="524" y="636"/>
	  <point x="556" y="614" type="curve"/>
	  <point x="632" y="694" type="line"/>
	  <point x="578" y="734"/>
	  <point x="511" y="759"/>
	  <point x="421" y="759" type="curve" smooth="yes"/>
	</contour>
  </outline>
</glyph>
<glyph name="pi" format="1">
  <advance width="600"/>
  <unicode hex="03C0"/>
  <outline>
	<contour>
	  <point x="119" y="432" type="line"/>
	  <point x="59" y="0" type="line"/>
	  <point x="211" y="0" type="line"/>
	  <point x="271" y="432" type="line"/>
	</contour>
	<contour>
	  <point x="376" y="432" type="line"/>
	  <point x="339" y="163" type="line" smooth="yes"/>
	  <point x="323" y="54"/>
	  <point x="378" y="0"/>
	  <point x="468" y="-16" type="curve"/>
	  <point x="526" y="98" type="line"/>
	  <point x="497" y="113"/>
	  <point x="489" y="132"/>
	  <point x="495" y="176" type="curve" smooth="yes"/>
	  <point x="532" y="433" type="line"/>
	</contour>
	<contour>
	  <point x="148" y="531" type="line" smooth="yes"/>
	  <point x="107" y="531"/>
	  <point x="72" y="525"/>
	  <point x="36" y="511" type="curve"/>
	  <point x="53" y="398" type="line"/>
	  <point x="92" y="412"/>
	  <point x="132" y="416"/>
	  <point x="188" y="416" type="curve" smooth="yes"/>
	  <point x="598" y="416" type="line"/>
	  <point x="614" y="531" type="line"/>
	</contour>
  </outline>
</glyph>
<glyph name="rho" format="1">
  <advance width="600"/>
  <unicode hex="03C1"/>
  <outline>
	<contour>
	  <point x="183" y="549"/>
	  <point x="93" y="454"/>
	  <point x="69" y="279" type="curve"/>
	  <point x="-2" y="-222" type="line"/>
	  <point x="161" y="-205" type="line"/>
	  <point x="198" y="42" type="line"/>
	  <point x="224" y="4"/>
	  <point x="266" y="-17"/>
	  <point x="320" y="-17" type="curve" smooth="yes"/>
	  <point x="446" y="-17"/>
	  <point x="536" y="103"/>
	  <point x="558" y="258" type="curve" smooth="yes"/>
	  <point x="585" y="448"/>
	  <point x="512" y="549"/>
	  <point x="344" y="549" type="curve" smooth="yes"/>
	</contour>
	<contour>
	  <point x="389" y="432"/>
	  <point x="413" y="399"/>
	  <point x="395" y="274" type="curve" smooth="yes"/>
	  <point x="378" y="153"/>
	  <point x="336" y="100"/>
	  <point x="274" y="100" type="curve" smooth="yes"/>
	  <point x="247" y="100"/>
	  <point x="224" y="111"/>
	  <point x="208" y="143" type="curve"/>
	  <point x="224" y="244" type="line" smooth="yes"/>
	  <point x="243" y="376"/>
	  <point x="274" y="432"/>
	  <point x="339" y="432" type="curve" smooth="yes"/>
	</contour>
  </outline>
</glyph>
<glyph name="sigma1" format="1">
  <advance width="600"/>
  <unicode hex="03C2"/>
  <outline>
	<contour>
	  <point x="226" y="549"/>
	  <point x="101" y="436"/>
	  <point x="80" y="288" type="curve" smooth="yes"/>
	  <point x="57" y="125"/>
	  <point x="135" y="69"/>
	  <point x="249" y="25" type="curve" smooth="yes"/>
	  <point x="314" y="-4"/>
	  <point x="331" y="-14"/>
	  <point x="327" y="-39" type="curve" smooth="yes"/>
	  <point x="322" y="-79"/>
	  <point x="282" y="-103"/>
	  <point x="234" y="-126" type="curve"/>
	  <point x="287" y="-228" type="line"/>
	  <point x="415" y="-175"/>
	  <point x="481" y="-117"/>
	  <point x="492" y="-38" type="curve" smooth="yes"/>
	  <point x="505" y="51"/>
	  <point x="451" y="84"/>
	  <point x="358" y="119" type="curve" smooth="yes"/>
	  <point x="262" y="160"/>
	  <point x="233" y="186"/>
	  <point x="245" y="270" type="curve" smooth="yes"/>
	  <point x="260" y="380"/>
	  <point x="323" y="426"/>
	  <point x="399" y="426" type="curve" smooth="yes"/>
	  <point x="437" y="426"/>
	  <point x="473" y="417"/>
	  <point x="505" y="391" type="curve"/>
	  <point x="582" y="480" type="line"/>
	  <point x="534" y="522"/>
	  <point x="475" y="549"/>
	  <point x="390" y="549" type="curve" smooth="yes"/>
	</contour>
  </outline>
</glyph>
<glyph name="sigma" format="1">
  <advance width="600"/>
  <unicode hex="03C3"/>
  <outline>
	<contour>
	  <point x="169" y="540"/>
	  <point x="65" y="434"/>
	  <point x="42" y="272" type="curve" smooth="yes"/>
	  <point x="16" y="90"/>
	  <point x="101" y="-17"/>
	  <point x="267" y="-17" type="curve" smooth="yes"/>
	  <point x="425" y="-17"/>
	  <point x="533" y="84"/>
	  <point x="556" y="245" type="curve" smooth="yes"/>
	  <point x="570" y="342"/>
	  <point x="538" y="408"/>
	  <point x="481" y="445" type="curve"/>
	  <point x="366" y="444" type="line"/>
	  <point x="394" y="421"/>
	  <point x="409" y="379"/>
	  <point x="394" y="272" type="curve" smooth="yes"/>
	  <point x="377" y="152"/>
	  <point x="337" y="100"/>
	  <point x="270" y="100" type="curve" smooth="yes"/>
	  <point x="210" y="100"/>
	  <point x="189" y="144"/>
	  <point x="204" y="254" type="curve" smooth="yes"/>
	  <point x="226" y="405"/>
	  <point x="284" y="438"/>
	  <point x="390" y="435" type="curve"/>
	  <point x="475" y="435" type="line"/>
	  <point x="600" y="425" type="line"/>
	  <point x="612" y="529" type="line"/>
	  <point x="535" y="534"/>
	  <point x="433" y="540"/>
	  <point x="339" y="540" type="curve" smooth="yes"/>
	</contour>
  </outline>
</glyph>
<glyph name="tau" format="1">
  <advance width="600"/>
  <unicode hex="03C4"/>
  <outline>
	<contour>
	  <point x="176" y="531" type="line" smooth="yes"/>
	  <point x="123" y="531"/>
	  <point x="86" y="528"/>
	  <point x="53" y="515" type="curve"/>
	  <point x="68" y="402" type="line"/>
	  <point x="99" y="411"/>
	  <point x="142" y="414"/>
	  <point x="171" y="414" type="curve" smooth="yes"/>
	  <point x="558" y="414" type="line"/>
	  <point x="574" y="531" type="line"/>
	</contour>
	<contour>
	  <point x="217" y="430" type="line"/>
	  <point x="180" y="165" type="line" smooth="yes"/>
	  <point x="165" y="56"/>
	  <point x="227" y="-17"/>
	  <point x="348" y="-17" type="curve" smooth="yes"/>
	  <point x="412" y="-17"/>
	  <point x="464" y="-3"/>
	  <point x="503" y="16" type="curve"/>
	  <point x="474" y="127" type="line"/>
	  <point x="451" y="118"/>
	  <point x="424" y="109"/>
	  <point x="392" y="109" type="curve" smooth="yes"/>
	  <point x="355" y="109"/>
	  <point x="334" y="121"/>
	  <point x="340" y="163" type="curve" smooth="yes"/>
	  <point x="377" y="430" type="line"/>
	</contour>
  </outline>
</glyph>
<glyph name="upsilon" format="1">
  <advance width="600"/>
  <unicode hex="03C5"/>
  <outline>
	<contour>
	  <point x="404" y="535" type="line"/>
	  <point x="408" y="452"/>
	  <point x="405" y="357"/>
	  <point x="393" y="274" type="curve" smooth="yes"/>
	  <point x="376" y="151"/>
	  <point x="325" y="100"/>
	  <point x="263" y="100" type="curve" smooth="yes"/>
	  <point x="222" y="100"/>
	  <point x="204" y="121"/>
	  <point x="213" y="186" type="curve" smooth="yes"/>
	  <point x="261" y="531" type="line"/>
	  <point x="101" y="531" type="line"/>
	  <point x="53" y="184" type="line" smooth="yes"/>
	  <point x="34" y="53"/>
	  <point x="117" y="-17"/>
	  <point x="249" y="-17" type="curve" smooth="yes"/>
	  <point x="389" y="-17"/>
	  <point x="524" y="63"/>
	  <point x="549" y="247" type="curve" smooth="yes"/>
	  <point x="565" y="359"/>
	  <point x="564" y="448"/>
	  <point x="559" y="527" type="curve"/>
	</contour>
	<contour>
	  <point x="374" y="531" type="move" name="top"/>
	</contour>
  </outline>
</glyph>
<glyph name="phi" format="1">
  <advance width="600"/>
  <unicode hex="03C6"/>
  <outline>
	<contour>
	  <point x="320" y="549"/>
	  <point x="263" y="474"/>
	  <point x="243" y="328" type="curve"/>
	  <point x="205" y="84" type="line"/>
	  <point x="145" y="100"/>
	  <point x="136" y="150"/>
	  <point x="150" y="253" type="curve" smooth="yes"/>
	  <point x="163" y="342"/>
	  <point x="193" y="426"/>
	  <point x="239" y="527" type="curve"/>
	  <point x="107" y="535" type="line"/>
	  <point x="69" y="460"/>
	  <point x="32" y="362"/>
	  <point x="16" y="249" type="curve" smooth="yes"/>
	  <point x="-5" y="99"/>
	  <point x="47" y="4"/>
	  <point x="198" y="-13" type="curve"/>
	  <point x="165" y="-222" type="line"/>
	  <point x="289" y="-210" type="line"/>
	  <point x="320" y="-14" type="line"/>
	  <point x="463" y="3"/>
	  <point x="556" y="83"/>
	  <point x="581" y="261" type="curve" smooth="yes"/>
	  <point x="608" y="447"/>
	  <point x="568" y="549"/>
	  <point x="433" y="549" type="curve" smooth="yes"/>
	</contour>
	<contour>
	  <point x="465" y="448"/>
	  <point x="464" y="405"/>
	  <point x="446" y="278" type="curve" smooth="yes"/>
	  <point x="429" y="159"/>
	  <point x="394" y="101"/>
	  <point x="328" y="86" type="curve"/>
	  <point x="364" y="320" type="line" smooth="yes"/>
	  <point x="375" y="404"/>
	  <point x="388" y="448"/>
	  <point x="431" y="448" type="curve" smooth="yes"/>
	</contour>
  </outline>
</glyph>
<glyph name="chi" format="1">
  <advance width="600"/>
  <unicode hex="03C7"/>
  <outline>
	<contour>
	  <point x="51" y="497" type="line"/>
	  <point x="123" y="422"/>
	  <point x="178" y="308"/>
	  <point x="203" y="178" type="curve"/>
	  <point x="276" y="73" type="line"/>
	  <point x="357" y="-237" type="line"/>
	  <point x="520" y="-193" type="line"/>
	  <point x="368" y="173" type="line"/>
	  <point x="298" y="267" type="line"/>
	  <point x="290" y="387"/>
	  <point x="255" y="472"/>
	  <point x="207" y="545" type="curve"/>
	</contour>
	<contour>
	  <point x="299" y="271" type="line"/>
	  <point x="199" y="174" type="line"/>
	  <point x="-52" y="-200" type="line"/>
	  <point x="103" y="-237" type="line"/>
	  <point x="276" y="73" type="line"/>
	  <point x="372" y="173" type="line"/>
	  <point x="601" y="514" type="line"/>
	  <point x="453" y="547" type="line"/>
	</contour>
  </outline>
</glyph>
<glyph name="psi" format="1">
  <advance width="600"/>
  <unicode hex="03C8"/>
  <outline>
	<contour>
	  <point x="276" y="531" type="line"/>
	  <point x="211" y="91" type="line"/>
	  <point x="159" y="100"/>
	  <point x="142" y="132"/>
	  <point x="152" y="201" type="curve" smooth="yes"/>
	  <point x="198" y="531" type="line"/>
	  <point x="65" y="531" type="line"/>
	  <point x="20" y="207" type="line" smooth="yes"/>
	  <point x="4" y="93"/>
	  <point x="42" y="4"/>
	  <point x="203" y="-13" type="curve"/>
	  <point x="170" y="-222" type="line"/>
	  <point x="296" y="-205" type="line"/>
	  <point x="326" y="-14" type="line"/>
	  <point x="487" y="11"/>
	  <point x="555" y="87"/>
	  <point x="577" y="247" type="curve" smooth="yes"/>
	  <point x="593" y="356"/>
	  <point x="593" y="446"/>
	  <point x="588" y="527" type="curve"/>
	  <point x="462" y="535" type="line"/>
	  <point x="461" y="433"/>
	  <point x="458" y="354"/>
	  <point x="446" y="269" type="curve" smooth="yes"/>
	  <point x="430" y="150"/>
	  <point x="406" y="108"/>
	  <point x="335" y="93" type="curve"/>
	  <point x="399" y="531" type="line"/>
	</contour>
  </outline>
</glyph>
<glyph name="omega" format="1">
  <advance width="600"/>
  <unicode hex="03C9"/>
  <outline>
	<contour>
	  <point x="447" y="535" type="line"/>
	  <point x="456" y="438"/>
	  <point x="458" y="348"/>
	  <point x="447" y="270" type="curve" smooth="yes"/>
	  <point x="430" y="150"/>
	  <point x="414" y="100"/>
	  <point x="372" y="100" type="curve" smooth="yes"/>
	  <point x="339" y="100"/>
	  <point x="339" y="129"/>
	  <point x="354" y="235" type="curve" smooth="yes"/>
	  <point x="372" y="362" type="line"/>
	  <point x="254" y="342" type="line"/>
	  <point x="239" y="238" type="line" smooth="yes"/>
	  <point x="225" y="138"/>
	  <point x="210" y="100"/>
	  <point x="171" y="100" type="curve" smooth="yes"/>
	  <point x="138" y="100"/>
	  <point x="137" y="142"/>
	  <point x="152" y="252" type="curve" smooth="yes"/>
	  <point x="165" y="341"/>
	  <point x="192" y="429"/>
	  <point x="230" y="527" type="curve"/>
	  <point x="104" y="535" type="line"/>
	  <point x="65" y="448"/>
	  <point x="25" y="344"/>
	  <point x="12" y="251" type="curve" smooth="yes"/>
	  <point x="-13" y="72"/>
	  <point x="33" y="-17"/>
	  <point x="138" y="-17" type="curve" smooth="yes"/>
	  <point x="200" y="-17"/>
	  <point x="242" y="9"/>
	  <point x="276" y="87" type="curve"/>
	  <point x="286" y="15"/>
	  <point x="326" y="-17"/>
	  <point x="400" y="-17" type="curve" smooth="yes"/>
	  <point x="496" y="-17"/>
	  <point x="558" y="66"/>
	  <point x="581" y="233" type="curve" smooth="yes"/>
	  <point x="596" y="336"/>
	  <point x="583" y="438"/>
	  <point x="569" y="527" type="curve"/>
	</contour>
	<contour>
	  <point x="374" y="531" type="move" name="top"/>
	</contour>
  </outline>
</glyph>
<glyph name="uni0402" format="1">
  <advance width="600"/>
  <unicode hex="0402"/>
  <outline>
	<contour>
	  <point x="467" y="575" type="line"/>
	  <point x="501" y="693" type="line"/>
	  <point x="52" y="693" type="line"/>
	  <point x="35" y="575" type="line"/>
	  <point x="173" y="575" type="line"/>
	  <point x="93" y="0" type="line"/>
	  <point x="248" y="0" type="line"/>
	  <point x="294" y="317" type="line"/>
	  <point x="316" y="335"/>
	  <point x="342" y="352"/>
	  <point x="379" y="352" type="curve" smooth="yes"/>
	  <point x="423" y="352"/>
	  <point x="436" y="333"/>
	  <point x="428" y="271" type="curve" smooth="yes"/>
	  <point x="405" y="106" type="line" smooth="yes"/>
	  <point x="393" y="22"/>
	  <point x="368" y="-22"/>
	  <point x="281" y="-56" type="curve"/>
	  <point x="315" y="-172" type="line"/>
	  <point x="436" y="-133"/>
	  <point x="535" y="-70"/>
	  <point x="558" y="95" type="curve" smooth="yes"/>
	  <point x="580" y="248" type="line" smooth="yes"/>
	  <point x="600" y="394"/>
	  <point x="546" y="471"/>
	  <point x="425" y="471" type="curve" smooth="yes"/>
	  <point x="381" y="471"/>
	  <point x="341" y="457"/>
	  <point x="305" y="430" type="curve"/>
	  <point x="328" y="575" type="line"/>
	</contour>
  </outline>
</glyph>
<glyph name="uni0404" format="1">
  <advance width="600"/>
  <unicode hex="0404"/>
  <outline>
	<contour>
	  <point x="232" y="711"/>
	  <point x="78" y="584"/>
	  <point x="46" y="357" type="curve" smooth="yes"/>
	  <point x="12" y="114"/>
	  <point x="126" y="-17"/>
	  <point x="321" y="-17" type="curve" smooth="yes"/>
	  <point x="427" y="-17"/>
	  <point x="507" y="21"/>
	  <point x="565" y="70" type="curve"/>
	  <point x="497" y="169" type="line"/>
	  <point x="455" y="138"/>
	  <point x="408" y="108"/>
	  <point x="336" y="108" type="curve" smooth="yes"/>
	  <point x="251" y="108"/>
	  <point x="195" y="162"/>
	  <point x="205" y="287" type="curve"/>
	  <point x="461" y="291" type="line"/>
	  <point x="478" y="418" type="line"/>
	  <point x="223" y="414" type="line"/>
	  <point x="250" y="533"/>
	  <point x="331" y="591"/>
	  <point x="422" y="591" type="curve" smooth="yes"/>
	  <point x="471" y="591"/>
	  <point x="508" y="575"/>
	  <point x="542" y="544" type="curve"/>
	  <point x="631" y="631" type="line"/>
	  <point x="578" y="678"/>
	  <point x="517" y="711"/>
	  <point x="413" y="711" type="curve" smooth="yes"/>
	</contour>
  </outline>
</glyph>
<glyph name="uni0409" format="1">
  <advance width="600"/>
  <unicode hex="0409"/>
  <outline>
	<contour>
	  <point x="120" y="693" type="line"/>
	  <point x="49" y="326" type="line" smooth="yes"/>
	  <point x="12" y="139"/>
	  <point x="-13" y="102"/>
	  <point x="-44" y="78" type="curve"/>
	  <point x="7" y="-23" type="line"/>
	  <point x="92" y="29"/>
	  <point x="130" y="66"/>
	  <point x="174" y="300" type="curve" smooth="yes"/>
	  <point x="227" y="588" type="line"/>
	  <point x="283" y="588" type="line"/>
	  <point x="201" y="0" type="line"/>
	  <point x="331" y="0" type="line" smooth="yes"/>
	  <point x="474" y="0"/>
	  <point x="573" y="70"/>
	  <point x="595" y="227" type="curve" smooth="yes"/>
	  <point x="617" y="384"/>
	  <point x="538" y="460"/>
	  <point x="388" y="460" type="curve"/>
	  <point x="424" y="693" type="line"/>
	</contour>
	<contour>
	  <point x="455" y="356"/>
	  <point x="471" y="316"/>
	  <point x="461" y="244" type="curve" smooth="yes"/>
	  <point x="449" y="159"/>
	  <point x="415" y="107"/>
	  <point x="354" y="107" type="curve" smooth="yes"/>
	  <point x="342" y="107" type="line"/>
	  <point x="377" y="356" type="line"/>
	  <point x="390" y="356" type="line" smooth="yes"/>
	</contour>
  </outline>
</glyph>
<glyph name="uni040A" format="1">
  <advance width="600"/>
  <unicode hex="040A"/>
  <outline>
	<contour>
	  <point x="300" y="693" type="line"/>
	  <point x="264" y="435" type="line"/>
	  <point x="182" y="435" type="line"/>
	  <point x="218" y="693" type="line"/>
	  <point x="88" y="693" type="line"/>
	  <point x="-9" y="0" type="line"/>
	  <point x="121" y="0" type="line"/>
	  <point x="166" y="321" type="line"/>
	  <point x="248" y="321" type="line"/>
	  <point x="203" y="0" type="line"/>
	  <point x="326" y="0" type="line" smooth="yes"/>
	  <point x="486" y="0"/>
	  <point x="573" y="72"/>
	  <point x="593" y="218" type="curve" smooth="yes"/>
	  <point x="614" y="365"/>
	  <point x="532" y="433"/>
	  <point x="391" y="435" type="curve"/>
	  <point x="430" y="693" type="line"/>
	</contour>
	<contour>
	  <point x="450" y="323"/>
	  <point x="472" y="302"/>
	  <point x="463" y="235" type="curve" smooth="yes"/>
	  <point x="451" y="153"/>
	  <point x="419" y="116"/>
	  <point x="351" y="114" type="curve"/>
	  <point x="349" y="114" type="line"/>
	  <point x="378" y="324" type="line"/>
	  <point x="386" y="324" type="line"/>
	</contour>
  </outline>
</glyph>
<glyph name="uni040B" format="1">
  <advance width="600"/>
  <unicode hex="040B"/>
  <outline>
	<contour>
	  <point x="52" y="693" type="line"/>
	  <point x="35" y="575" type="line"/>
	  <point x="173" y="575" type="line"/>
	  <point x="93" y="0" type="line"/>
	  <point x="248" y="0" type="line"/>
	  <point x="294" y="317" type="line"/>
	  <point x="316" y="335"/>
	  <point x="342" y="352"/>
	  <point x="379" y="352" type="curve" smooth="yes"/>
	  <point x="423" y="352"/>
	  <point x="436" y="333"/>
	  <point x="428" y="271" type="curve" smooth="yes"/>
	  <point x="390" y="0" type="line"/>
	  <point x="545" y="0" type="line"/>
	  <point x="580" y="248" type="line" smooth="yes"/>
	  <point x="600" y="394"/>
	  <point x="546" y="471"/>
	  <point x="425" y="471" type="curve" smooth="yes"/>
	  <point x="381" y="471"/>
	  <point x="341" y="457"/>
	  <point x="305" y="430" type="curve"/>
	  <point x="328" y="575" type="line"/>
	  <point x="467" y="575" type="line"/>
	  <point x="501" y="693" type="line"/>
	</contour>
  </outline>
</glyph>
